<svg width="167" height="165" viewBox="0 0 167 165" fill="none" xmlns="http://www.w3.org/2000/svg">
<path d="M83.802 0.503599V0.501458C129.309 0.76688 166.104 37.2425 166.104 82.1836C166.104 127.289 129.039 163.871 83.302 163.871C37.5648 163.871 0.5 127.293 0.5 82.1872C0.5 37.0817 37.5661 0.503599 83.302 0.503599H83.802Z" fill="white" stroke="#2A44A9"/>
<path d="M83.2809 6.97205C125.383 6.97205 159.516 40.6514 159.516 82.1836C159.516 123.716 125.378 157.393 83.2809 157.393C41.1834 157.393 7.04688 123.713 7.04688 82.1836C7.04688 40.6538 41.1846 6.97205 83.2809 6.97205V6.97205ZM83.2809 9.65201C42.6777 9.65201 9.76454 42.1256 9.76454 82.1836C9.76454 122.242 42.6777 154.714 83.2809 154.714C123.884 154.714 156.8 122.24 156.8 82.1836C156.8 42.1268 123.891 9.65201 83.2809 9.65201Z" fill="#2A44A9"/>
<g clip-path="url(#clip0_2_55)" filter="url(#filter0_d_2_55)">
<path d="M77.5457 101.604V77.9251H74.6865C72.6388 78.9979 70.6597 80.1928 68.7604 81.5031V84.5883C70.4542 83.4474 73.1372 81.836 74.4426 81.1391H74.4968V101.604H77.5457V101.604ZM82.9117 95.8105C83.124 98.6516 85.5947 102.052 90.6039 102.052C96.2861 102.052 99.6376 97.3198 99.6376 89.3071C99.6376 80.7218 96.11 77.4634 90.8162 77.4634C86.6336 77.4634 82.6994 80.4466 82.6994 85.4939C82.6994 90.6433 86.4213 93.3512 90.2697 93.3512C93.6392 93.3512 95.8254 91.6821 96.5165 89.8443H96.6384C96.6204 95.6862 94.5562 99.4506 90.7439 99.4506C87.7447 99.4506 86.1909 97.453 86.0012 95.8105H82.9117V95.8105ZM96.25 85.525C96.25 88.6146 93.7251 90.7632 90.902 90.7632C88.1874 90.7632 85.7347 89.063 85.7347 85.4362C85.7347 81.7827 88.3636 80.0648 91.0104 80.0648C93.8696 80.0648 96.25 81.8316 96.25 85.525Z" fill="#2A44A9"/>
<path d="M64.2436 45.2795C64.8425 45.2795 65.417 45.5133 65.8405 45.9296C66.264 46.3458 66.502 46.9104 66.502 47.4991V49.7186H102.637V47.4991C102.637 46.9104 102.875 46.3458 103.298 45.9296C103.722 45.5133 104.296 45.2795 104.895 45.2795C105.494 45.2795 106.069 45.5133 106.492 45.9296C106.916 46.3458 107.154 46.9104 107.154 47.4991V49.7186H111.671C114.066 49.7186 116.364 50.654 118.058 52.319C119.752 53.9841 120.704 56.2423 120.704 58.597V107.428C120.704 109.782 119.752 112.041 118.058 113.706C116.364 115.371 114.066 116.306 111.671 116.306H57.4683C55.0724 116.306 52.7746 115.371 51.0805 113.706C49.3863 112.041 48.4346 109.782 48.4346 107.428V58.597C48.4346 56.2423 49.3863 53.9841 51.0805 52.319C52.7746 50.654 55.0724 49.7186 57.4683 49.7186H61.9851V47.4991C61.9851 46.9104 62.2231 46.3458 62.6466 45.9296C63.0701 45.5133 63.6446 45.2795 64.2436 45.2795V45.2795ZM57.4683 54.1578C56.2703 54.1578 55.1215 54.6255 54.2744 55.458C53.4273 56.2905 52.9514 57.4196 52.9514 58.597V107.428C52.9514 108.605 53.4273 109.734 54.2744 110.567C55.1215 111.399 56.2703 111.867 57.4683 111.867H111.671C112.868 111.867 114.017 111.399 114.864 110.567C115.711 109.734 116.187 108.605 116.187 107.428V58.597C116.187 57.4196 115.711 56.2905 114.864 55.458C114.017 54.6255 112.868 54.1578 111.671 54.1578H57.4683Z" fill="#2A44A9"/>
<path d="M59.7267 63.0361C59.7267 62.4474 59.9646 61.8829 60.3882 61.4666C60.8117 61.0504 61.3862 60.8165 61.9851 60.8165H107.154C107.753 60.8165 108.327 61.0504 108.751 61.4666C109.174 61.8829 109.412 62.4474 109.412 63.0361V67.4753C109.412 68.0639 109.174 68.6285 108.751 69.0448C108.327 69.461 107.753 69.6949 107.154 69.6949H61.9851C61.3862 69.6949 60.8117 69.461 60.3882 69.0448C59.9646 68.6285 59.7267 68.0639 59.7267 67.4753V63.0361Z" fill="#2A44A9"/>
</g>
<defs>
<filter id="filter0_d_2_55" x="44.4346" y="45.2795" width="80.2697" height="79.0267" filterUnits="userSpaceOnUse" color-interpolation-filters="sRGB">
<feFlood flood-opacity="0" result="BackgroundImageFix"/>
<feColorMatrix in="SourceAlpha" type="matrix" values="0 0 0 0 0 0 0 0 0 0 0 0 0 0 0 0 0 0 127 0" result="hardAlpha"/>
<feOffset dy="4"/>
<feGaussianBlur stdDeviation="2"/>
<feComposite in2="hardAlpha" operator="out"/>
<feColorMatrix type="matrix" values="0 0 0 0 0 0 0 0 0 0 0 0 0 0 0 0 0 0 0.25 0"/>
<feBlend mode="normal" in2="BackgroundImageFix" result="effect1_dropShadow_2_55"/>
<feBlend mode="normal" in="SourceGraphic" in2="effect1_dropShadow_2_55" result="shape"/>
</filter>
<clipPath id="clip0_2_55">
<rect width="72.2697" height="71.0266" fill="white" transform="translate(48.4346 45.2795)"/>
</clipPath>
</defs>
</svg>
