<svg width="167" height="168" viewBox="0 0 167 168" fill="none" xmlns="http://www.w3.org/2000/svg">
<path d="M83.802 0.503669V0.501487C129.299 0.772119 166.104 37.9554 166.104 83.7886C166.104 129.79 129.029 167.081 83.302 167.081C37.5752 167.081 0.5 129.793 0.5 83.7923C0.5 37.7913 37.5752 0.503669 83.302 0.503669H83.802Z" fill="white" stroke="#2A44A9"/>
<path d="M83.4617 7.24146C125.563 7.24146 159.696 41.5785 159.696 83.9219C159.696 126.265 125.558 160.6 83.4617 160.6C41.3654 160.6 7.22656 126.263 7.22656 83.9219C7.22656 41.581 41.3642 7.24146 83.4617 7.24146ZM83.4617 9.97376C42.8585 9.97376 9.94299 43.0803 9.94299 83.9219C9.94299 124.763 42.8585 157.869 83.4617 157.869C124.065 157.869 156.979 124.761 156.979 83.9219C156.979 43.0828 124.064 9.97376 83.4617 9.97376Z" fill="#2A44A9"/>
<g clip-path="url(#clip0_5878_12558)" filter="url(#filter0_d_5878_12558)">
<path d="M125 101.53C124.344 103.142 123.117 103.648 121.402 103.646C95.9027 103.614 70.4037 103.625 44.9068 103.625C43.1869 103.625 42.1127 102.916 41.7605 101.53C41.6822 101.223 41.6713 100.893 41.6713 100.575C41.667 88.8662 41.667 77.1598 41.667 65.4534C41.667 63.4948 42.7694 62.3864 44.7198 62.3842C49.1404 62.3778 53.5631 62.3885 57.9836 62.3778C58.7272 62.3778 59.3295 62.5564 59.6209 63.2947C59.9927 64.2352 59.286 65.1177 58.1314 65.122C55.2286 65.1327 52.3258 65.1263 49.423 65.1263C47.7988 65.1263 46.1745 65.1263 44.4937 65.1263V100.812H73.4826C67.2595 96.4337 63.9153 90.5687 63.911 83.0184C63.9066 75.4595 67.2399 69.588 73.5848 65.1241C73.126 65.1241 72.8673 65.1241 72.6085 65.1241C70.1949 65.1241 67.7792 65.1349 65.3656 65.1155C64.4654 65.1091 63.8957 64.5365 63.911 63.7294C63.924 62.9546 64.4741 62.4294 65.333 62.3842C65.5765 62.3713 65.8222 62.3799 66.0658 62.3799C84.5394 62.3799 103.011 62.3928 121.484 62.3584C123.183 62.3563 124.355 62.9094 124.998 64.4741V101.528L125 101.53ZM122.169 100.839V65.1693H93.1412C99.4296 69.5923 102.759 75.4681 102.752 83.027C102.745 90.5708 99.4056 96.4402 93.1391 100.839H122.169ZM66.679 81.8734C66.692 86.645 67.6466 90.0026 69.5122 92.975C74.9829 101.696 86.3615 103.506 93.8588 96.847C101.53 90.0349 102.095 77.827 95.0851 70.3478C89.647 64.5473 81.2713 63.4023 74.7568 67.7133C69.2817 71.3357 66.8442 76.6239 66.679 81.8734Z" fill="#2A44A9"/>
<path d="M113.657 50.0342C112.622 50.3721 111.626 50.6928 110.632 51.0221C101.859 53.932 93.0871 56.8441 84.3134 59.754C84.0568 59.838 83.7981 59.9305 83.5328 59.9649C82.7826 60.0661 82.1651 59.6615 81.9977 58.962C81.8237 58.2366 82.0934 57.6835 82.7761 57.3843C83.2675 57.1669 83.7959 57.0292 84.3091 56.8592C93.5937 53.7728 102.876 50.6885 112.161 47.6021C114.485 46.8294 115.744 47.4493 116.523 49.7523C117.458 52.5201 118.386 55.2901 119.332 58.0559C119.536 58.6542 119.497 59.2375 118.999 59.5883C118.647 59.8358 118.027 60.0295 117.679 59.8875C117.253 59.7131 116.836 59.2138 116.673 58.764C115.725 56.1425 114.853 53.4951 113.955 50.8564C113.87 50.6067 113.776 50.3592 113.659 50.0364L113.657 50.0342Z" fill="#2A44A9"/>
<path d="M53.0111 115.972C53.8657 115.699 54.6854 115.447 55.5008 115.176C64.4571 112.201 73.4112 109.223 82.3675 106.246C82.5719 106.177 82.7763 106.097 82.9872 106.054C83.7243 105.902 84.4006 106.261 84.6289 106.909C84.8789 107.613 84.5854 108.344 83.8483 108.629C82.7894 109.035 81.7043 109.378 80.628 109.735C71.9 112.63 63.172 115.525 54.4441 118.415C52.2044 119.158 50.915 118.529 50.1714 116.338C49.2234 113.542 48.2732 110.751 47.349 107.948C46.9642 106.782 47.8274 105.719 48.9124 106.085C49.3603 106.235 49.8213 106.771 49.9887 107.234C50.9455 109.855 51.8131 112.505 52.7133 115.146C52.7981 115.395 52.8916 115.645 53.009 115.97L53.0111 115.972Z" fill="#2A44A9"/>
<path d="M49.9866 70.6168C49.9866 72.0158 49.9953 73.2749 49.9844 74.534C49.9757 75.5305 49.4843 76.0879 48.6385 76.103C47.7666 76.1181 47.2251 75.5305 47.2186 74.5103C47.2056 72.8207 47.2034 71.1312 47.2186 69.4395C47.2295 68.4214 47.7557 67.8898 48.7733 67.8769C50.5085 67.8575 52.2415 67.8597 53.9766 67.8769C54.9507 67.8855 55.5335 68.4236 55.5313 69.2565C55.5291 70.0981 54.9616 70.6039 53.9723 70.6146C52.6785 70.6275 51.3847 70.6168 49.9888 70.6168H49.9866Z" fill="#2A44A9"/>
<path d="M49.9862 95.3877C51.3365 95.3877 52.5759 95.3834 53.8175 95.3877C54.9416 95.392 55.533 95.8719 55.5287 96.7565C55.5243 97.6325 54.9133 98.1254 53.8001 98.1297C52.1736 98.1362 50.5472 98.1383 48.9229 98.1297C47.74 98.1233 47.2225 97.6239 47.216 96.4703C47.2051 94.8066 47.203 93.1428 47.216 91.4812C47.2247 90.4675 47.7748 89.8799 48.6489 89.9015C49.4948 89.923 49.9753 90.4761 49.984 91.4812C49.9949 92.7403 49.9862 93.9973 49.9862 95.3877Z" fill="#2A44A9"/>
<path d="M116.681 70.6167C115.267 70.6167 113.995 70.6253 112.723 70.6146C111.712 70.606 111.154 70.126 111.136 69.2844C111.119 68.4192 111.712 67.8833 112.743 67.8768C114.45 67.8639 116.157 67.8618 117.866 67.8768C118.896 67.8876 119.436 68.4063 119.447 69.4136C119.468 71.1311 119.464 72.8465 119.447 74.5641C119.438 75.5283 118.892 76.1051 118.053 76.1051C117.205 76.1051 116.689 75.5391 116.681 74.5619C116.668 73.2813 116.679 72.0007 116.679 70.6167H116.681Z" fill="#2A44A9"/>
<path d="M116.679 95.3876C116.679 94.0618 116.674 92.835 116.679 91.6081C116.683 90.4846 117.155 89.9035 118.048 89.9014C118.94 89.8992 119.444 90.4997 119.449 91.5974C119.455 93.2073 119.457 94.8172 119.449 96.425C119.442 97.6303 118.936 98.1253 117.703 98.1296C116.076 98.1382 114.45 98.1382 112.826 98.1296C111.725 98.1232 111.121 97.6109 111.136 96.7199C111.151 95.8546 111.719 95.3941 112.802 95.3876C114.048 95.3811 115.291 95.3876 116.679 95.3876Z" fill="#2A44A9"/>
<path d="M85.8961 94.2435L78.4832 86.5274V84.3229H82.3412C83.3149 84.3229 84.1556 84.0058 84.8632 83.3716C85.5709 82.7374 85.9978 81.9522 86.1441 81.016H77.3809V78.8114H85.8134C85.5011 78.1684 85.037 77.64 84.4212 77.2263C83.8054 76.8126 83.112 76.6061 82.3412 76.6068H77.3809V74.4022H90.6084V76.6068H87.0259C87.2831 76.9191 87.5128 77.259 87.7149 77.6264C87.9169 77.9939 88.0731 78.3888 88.1833 78.8114H90.6084V81.016H88.3762C88.2293 82.5776 87.5863 83.8867 86.4472 84.9434C85.3082 86.0002 83.9395 86.5282 82.3412 86.5274H81.542L88.9549 94.2435H85.8961Z" fill="#2A44A9"/>
</g>
<defs>
<filter id="filter0_d_5878_12558" x="37.667" y="47.2858" width="91.333" height="79.4286" filterUnits="userSpaceOnUse" color-interpolation-filters="sRGB">
<feFlood flood-opacity="0" result="BackgroundImageFix"/>
<feColorMatrix in="SourceAlpha" type="matrix" values="0 0 0 0 0 0 0 0 0 0 0 0 0 0 0 0 0 0 127 0" result="hardAlpha"/>
<feOffset dy="4"/>
<feGaussianBlur stdDeviation="2"/>
<feComposite in2="hardAlpha" operator="out"/>
<feColorMatrix type="matrix" values="0 0 0 0 0 0 0 0 0 0 0 0 0 0 0 0 0 0 0.25 0"/>
<feBlend mode="normal" in2="BackgroundImageFix" result="effect1_dropShadow_5878_12558"/>
<feBlend mode="normal" in="SourceGraphic" in2="effect1_dropShadow_5878_12558" result="shape"/>
</filter>
<clipPath id="clip0_5878_12558">
<rect width="83.3333" height="71.4286" fill="white" transform="translate(41.667 47.2858)"/>
</clipPath>
</defs>
</svg>
