<svg width="532" height="101" viewBox="0 0 532 101" fill="none" xmlns="http://www.w3.org/2000/svg">
<path d="M0 25C0 11.1929 11.1929 0 25 0H507C520.807 0 532 11.1929 532 25V100H0V25Z" fill="#111820"/>
<g clip-path="url(#clip0_141_22)">
<path d="M504.51 77.0732H491.237V78.8731H504.884C505.74 78.8659 506.583 79.0943 507.331 79.5361C508.078 79.9778 508.705 80.6178 509.15 81.3934C509.002 80.1989 508.449 79.1022 507.596 78.3075C506.742 77.5128 505.646 77.0742 504.51 77.0732Z" fill="#777778"/>
<path d="M494.013 59.8335H488.725C487.588 59.8325 486.49 60.2702 485.634 61.0651C484.779 61.86 484.226 62.9578 484.077 64.1537C484.524 63.3764 485.153 62.7356 485.904 62.2942C486.654 61.8528 487.5 61.626 488.358 61.6361H494.021L494.013 59.8335Z" fill="#777778"/>
<path d="M504.51 59.8335H495.712V61.6361H504.884C505.74 61.6284 506.583 61.8563 507.33 62.2976C508.078 62.7388 508.705 63.3784 509.15 64.1537C509.002 62.9592 508.449 61.8626 507.596 61.0678C506.742 60.2731 505.646 59.8345 504.51 59.8335Z" fill="#777778"/>
<path d="M527.349 92.3679H511.676V94.1704H527.724C528.581 94.1618 529.425 94.3893 530.174 94.8306C530.923 95.2719 531.551 95.9119 531.997 96.6881C531.849 95.4921 531.295 94.3944 530.44 93.5995C529.585 92.8046 528.486 92.3668 527.349 92.3679Z" fill="#777778"/>
<path d="M527.349 66.0741H511.676V67.874H527.724C528.58 67.8668 529.423 68.0952 530.17 68.5369C530.918 68.9787 531.545 69.6187 531.99 70.3943C531.841 69.1998 531.289 68.1031 530.435 67.3084C529.582 66.5137 528.485 66.0751 527.349 66.0741Z" fill="#777778"/>
<path d="M527.349 75.1309H511.676V76.9307H527.724C528.58 76.9236 529.423 77.152 530.17 77.5937C530.918 78.0355 531.545 78.6755 531.99 79.4511C531.841 78.2566 531.289 77.1599 530.435 76.3652C529.582 75.5705 528.485 75.1319 527.349 75.1309Z" fill="#777778"/>
<path d="M527.349 83.7494H511.676V85.5492H527.724C528.58 85.542 529.423 85.7705 530.17 86.2122C530.918 86.654 531.545 87.2939 531.99 88.0696C531.841 86.8751 531.289 85.7784 530.435 84.9837C529.582 84.189 528.485 83.7504 527.349 83.7494Z" fill="#777778"/>
<path d="M519.19 70.6025H511.686V72.4051H519.19V70.6025Z" fill="#777778"/>
<path d="M527.349 70.6025H520.894V72.4024H527.739C528.595 72.3952 529.438 72.6236 530.186 73.0654C530.933 73.5071 531.56 74.147 532.005 74.9227C531.856 73.7254 531.302 72.6265 530.445 71.8314C529.588 71.0363 528.488 70.5995 527.349 70.6025Z" fill="#777778"/>
<path d="M513.958 79.4401H511.686V81.2427H513.958V79.4401Z" fill="#777778"/>
<path d="M527.349 79.4402H515.644V81.2427H527.724C528.581 81.2336 529.425 81.4608 530.174 81.9021C530.924 82.3435 531.552 82.9838 531.997 83.7603C531.849 82.5644 531.295 81.4667 530.44 80.6718C529.585 79.8769 528.486 79.4391 527.349 79.4402Z" fill="#777778"/>
<path d="M521.842 88.0586H511.686V89.8612H521.842V88.0586Z" fill="#777778"/>
<path d="M527.349 88.0586H523.53V89.8612H527.724C528.581 89.852 529.425 90.0792 530.174 90.5206C530.924 90.962 531.552 91.6023 531.997 92.3788C531.849 91.1829 531.295 90.0851 530.44 89.2902C529.585 88.4953 528.486 88.0576 527.349 88.0586Z" fill="#777778"/>
<path d="M513.958 96.6798H511.686V98.4824H513.958V96.6798Z" fill="#777778"/>
<path d="M527.349 96.6771H515.644V98.4797H527.724C528.58 98.4702 529.424 98.6964 530.173 99.1362C530.922 99.576 531.55 100.214 531.997 100.989C531.847 99.7946 531.293 98.6988 530.438 97.9056C529.583 97.1124 528.485 96.6758 527.349 96.6771Z" fill="#777778"/>
<path d="M527.349 61.5402H516.615V63.3428H527.719C528.575 63.3356 529.417 63.5641 530.165 64.0058C530.913 64.4476 531.54 65.0875 531.985 65.8632C531.837 64.6691 531.285 63.5725 530.433 62.7774C529.58 61.9822 528.485 61.5426 527.349 61.5402Z" fill="#777778"/>
<path d="M514.927 61.5457H511.686V63.3483H514.927V61.5457Z" fill="#777778"/>
<path d="M492.317 94.3102H488.725C487.588 94.3091 486.49 94.7469 485.634 95.5418C484.779 96.3367 484.226 97.4345 484.077 98.6304C484.522 97.8547 485.149 97.2148 485.897 96.773C486.644 96.3313 487.487 96.1028 488.343 96.11H492.309L492.317 94.3102Z" fill="#777778"/>
<path d="M504.51 94.3102H494.013V96.11H504.884C505.74 96.1028 506.583 96.3313 507.331 96.773C508.078 97.2148 508.705 97.8547 509.15 98.6304C509.002 97.4359 508.449 96.3392 507.596 95.5445C506.742 94.7498 505.646 94.3111 504.51 94.3102Z" fill="#777778"/>
<path d="M498.651 85.6917H488.725C487.588 85.6907 486.49 86.1284 485.634 86.9233C484.779 87.7182 484.226 88.816 484.077 90.0119C484.522 89.2362 485.149 88.5963 485.897 88.1545C486.644 87.7128 487.487 87.4843 488.343 87.4915H498.643L498.651 85.6917Z" fill="#777778"/>
<path d="M504.51 85.6917H500.347V87.4915H504.884C505.74 87.4843 506.583 87.7128 507.331 88.1545C508.078 88.5963 508.705 89.2362 509.15 90.0119C509.002 88.8174 508.449 87.7207 507.596 86.926C506.742 86.1313 505.646 85.6926 504.51 85.6917Z" fill="#777778"/>
<path d="M504.51 68.452H501.979V70.2546H504.884C505.74 70.2474 506.583 70.4755 507.33 70.9167C508.078 71.358 508.705 71.9972 509.15 72.7722C509.002 71.5777 508.449 70.481 507.596 69.6863C506.742 68.8916 505.646 68.4529 504.51 68.452Z" fill="#777778"/>
<path d="M500.28 68.452H488.725C487.588 68.451 486.49 68.8887 485.634 69.6836C484.779 70.4785 484.226 71.5763 484.077 72.7722C484.524 71.9948 485.153 71.354 485.904 70.9127C486.654 70.4713 487.5 70.2445 488.358 70.2546H500.288L500.28 68.452Z" fill="#777778"/>
<path d="M504.51 50.9959H491.101V52.7985H504.884C505.74 52.7907 506.583 53.0186 507.331 53.4599C508.078 53.9012 508.705 54.5408 509.15 55.3161C509.002 54.1216 508.449 53.0249 507.596 52.2302C506.742 51.4355 505.646 50.9968 504.51 50.9959Z" fill="#777778"/>
<path d="M497.801 46.473H488.725C487.588 46.4719 486.49 46.9097 485.634 47.7046C484.779 48.4995 484.226 49.5972 484.077 50.7932C484.522 50.0175 485.149 49.3776 485.897 48.9358C486.644 48.4941 487.487 48.2656 488.343 48.2728H497.794L497.801 46.473Z" fill="#777778"/>
<path d="M504.51 46.473H499.5V48.2728H504.884C505.74 48.2656 506.583 48.4941 507.331 48.9358C508.078 49.3776 508.705 50.0175 509.15 50.7932C509.002 49.5986 508.449 48.502 507.596 47.7073C506.742 46.9126 505.646 46.4739 504.51 46.473Z" fill="#777778"/>
<path d="M527.349 96.6771H526.833V98.4797H527.737C528.591 98.4726 529.432 98.6999 530.178 99.1396C530.925 99.5793 531.552 100.216 531.997 100.989C531.847 99.7946 531.293 98.6988 530.438 97.9056C529.583 97.1124 528.485 96.6758 527.349 96.6771Z" fill="#777778"/>
<path d="M488.358 91.8008H504.884C505.74 91.7936 506.583 92.022 507.331 92.4638C508.078 92.9055 508.705 93.5455 509.15 94.3211C509.002 93.1252 508.448 92.0274 507.593 91.2325C506.738 90.4376 505.639 89.9999 504.502 90.0009H488.717C487.58 89.9999 486.482 90.4376 485.627 91.2325C484.771 92.0274 484.218 93.1252 484.069 94.3211C484.516 93.5418 485.147 92.8996 485.899 92.4576C486.651 92.0157 487.499 91.7893 488.358 91.8008Z" fill="#777778"/>
<path d="M488.358 83.1823H504.884C505.74 83.1751 506.583 83.4035 507.331 83.8453C508.078 84.287 508.705 84.927 509.15 85.7026C509.002 84.5062 508.449 83.4078 507.594 82.6124C506.738 81.8169 505.64 81.3788 504.502 81.3797H488.717C487.58 81.3788 486.481 81.8169 485.626 82.6124C484.771 83.4078 484.217 84.5062 484.069 85.7026C484.516 84.9234 485.147 84.2811 485.899 83.8392C486.651 83.3972 487.499 83.1708 488.358 83.1823Z" fill="#777778"/>
<path d="M488.358 74.5638H504.884C505.74 74.5566 506.583 74.7848 507.33 75.226C508.078 75.6672 508.705 76.3065 509.15 77.0814C509.002 75.8855 508.448 74.7877 507.593 73.9929C506.738 73.198 505.639 72.7602 504.502 72.7612H488.717C487.58 72.7602 486.482 73.198 485.627 73.9929C484.771 74.7877 484.218 75.8855 484.069 77.0814C484.517 76.3029 485.147 75.6613 485.899 75.2199C486.652 74.7784 487.499 74.5523 488.358 74.5638Z" fill="#777778"/>
<path d="M488.358 65.9454H504.884C505.74 65.9381 506.583 66.1663 507.33 66.6075C508.078 67.0487 508.705 67.688 509.15 68.463C509.002 67.267 508.448 66.1693 507.593 65.3744C506.738 64.5795 505.639 64.1417 504.502 64.1428H488.717C487.58 64.1417 486.482 64.5795 485.627 65.3744C484.771 66.1693 484.218 67.267 484.069 68.463C484.517 67.6844 485.147 67.0428 485.899 66.6014C486.652 66.16 487.499 65.9339 488.358 65.9454Z" fill="#777778"/>
<path d="M488.358 57.3241H504.884C505.74 57.3169 506.583 57.5454 507.331 57.9871C508.078 58.4289 508.705 59.0688 509.15 59.8445C509.002 58.6486 508.448 57.5508 507.593 56.7559C506.738 55.961 505.639 55.5232 504.502 55.5243H488.717C487.58 55.5232 486.482 55.961 485.627 56.7559C484.771 57.5508 484.218 58.6486 484.069 59.8445C484.516 59.0652 485.147 58.423 485.899 57.981C486.651 57.539 487.499 57.3126 488.358 57.3241Z" fill="#777778"/>
<path d="M488.358 43.7334H504.884C505.74 43.7262 506.583 43.9546 507.331 44.3964C508.078 44.8381 508.705 45.4781 509.15 46.2538C509.002 45.0578 508.448 43.9601 507.593 43.1652C506.738 42.3703 505.639 41.9325 504.502 41.9335H488.717C487.58 41.9325 486.482 42.3703 485.627 43.1652C484.771 43.9601 484.218 45.0578 484.069 46.2538C484.516 45.4745 485.147 44.8322 485.899 44.3903C486.651 43.9483 487.499 43.7219 488.358 43.7334Z" fill="#777778"/>
<path d="M504.51 77.0732H503.981V78.8731H504.884C505.74 78.8659 506.583 79.0943 507.331 79.5361C508.078 79.9778 508.705 80.6178 509.15 81.3934C509.002 80.1989 508.449 79.1022 507.596 78.3075C506.742 77.5128 505.646 77.0742 504.51 77.0732Z" fill="#777778"/>
<path d="M504.51 41.9391H503.981V43.7335H504.884C505.74 43.7263 506.583 43.9547 507.331 44.3964C508.078 44.8382 508.705 45.4782 509.15 46.2538C509.001 45.0603 508.448 43.9649 507.594 43.1713C506.741 42.3777 505.645 41.9399 504.51 41.9391Z" fill="#777778"/>
<path d="M504.51 81.3797H503.981V83.1823H504.884C505.74 83.1751 506.583 83.4035 507.331 83.8453C508.078 84.287 508.705 84.927 509.15 85.7026C509.002 84.5076 508.45 83.4103 507.597 82.6151C506.743 81.8198 505.646 81.3808 504.51 81.3797Z" fill="#777778"/>
<path d="M509.15 94.3211C509.002 93.1252 508.448 92.0274 507.593 91.2325C506.738 90.4376 505.639 89.9999 504.502 90.0009H503.973V91.8008H504.877C505.734 91.7922 506.578 92.0199 507.327 92.4617C508.076 92.9035 508.705 93.5443 509.15 94.3211Z" fill="#777778"/>
<path d="M504.51 85.6917H503.981V87.4915H504.884C505.74 87.4843 506.583 87.7128 507.331 88.1545C508.078 88.5963 508.705 89.2362 509.15 90.0119C509.002 88.8174 508.449 87.7207 507.596 86.926C506.742 86.1313 505.646 85.6926 504.51 85.6917Z" fill="#777778"/>
<path d="M504.51 68.452H503.981V70.2546H504.884C505.74 70.2474 506.582 70.4755 507.33 70.9167C508.078 71.358 508.705 71.9972 509.15 72.7722C509.002 71.5777 508.449 70.481 507.596 69.6863C506.742 68.8916 505.646 68.4529 504.51 68.452Z" fill="#777778"/>
<path d="M504.51 72.7722H503.981V74.5748H504.884C505.74 74.5676 506.582 74.7957 507.33 75.2369C508.078 75.6782 508.705 76.3174 509.15 77.0924C509.002 75.8979 508.449 74.8012 507.596 74.0065C506.742 73.2118 505.646 72.7732 504.51 72.7722Z" fill="#777778"/>
<path d="M504.51 50.9959H503.981V52.7985H504.884C505.74 52.7907 506.583 53.0186 507.33 53.4599C508.078 53.9012 508.705 54.5408 509.15 55.3161C509.002 54.1216 508.449 53.0249 507.596 52.2302C506.742 51.4355 505.646 50.9968 504.51 50.9959Z" fill="#777778"/>
<path d="M504.51 46.473H503.981V48.2728H504.884C505.74 48.2656 506.583 48.4941 507.331 48.9358C508.078 49.3776 508.705 50.0175 509.15 50.7932C509.002 49.5986 508.449 48.502 507.596 47.7073C506.742 46.9126 505.646 46.4739 504.51 46.473Z" fill="#777778"/>
<path d="M509.15 98.6304C509.002 97.4345 508.448 96.3367 507.593 95.5418C506.738 94.7469 505.639 94.3091 504.502 94.3102H503.973V96.11H504.877C505.734 96.1014 506.578 96.3292 507.327 96.771C508.076 97.2128 508.705 97.8535 509.15 98.6304Z" fill="#777778"/>
<path d="M504.51 64.1428H503.981V65.9454H504.884C505.74 65.9381 506.582 66.1663 507.33 66.6075C508.078 67.0487 508.705 67.688 509.15 68.463C509.002 67.2684 508.449 66.1718 507.596 65.3771C506.742 64.5824 505.646 64.1437 504.51 64.1428Z" fill="#777778"/>
<path d="M504.51 59.8335H503.981V61.6361H504.884C505.74 61.6284 506.583 61.8563 507.33 62.2976C508.078 62.7388 508.705 63.3784 509.15 64.1537C509.002 62.9592 508.449 61.8626 507.596 61.0678C506.742 60.2731 505.646 59.8345 504.51 59.8335Z" fill="#777778"/>
<path d="M504.51 55.5133H503.981V57.3132H504.884C505.74 57.306 506.583 57.5344 507.331 57.9762C508.078 58.4179 508.705 59.0579 509.15 59.8335C509.002 58.639 508.449 57.5424 507.596 56.7477C506.742 55.9529 505.646 55.5143 504.51 55.5133Z" fill="#777778"/>
<path d="M488.725 77.0732H489.254V78.8731H488.358C487.503 78.8659 486.66 79.0943 485.912 79.5361C485.164 79.9778 484.537 80.6178 484.093 81.3934C484.241 80.2003 484.792 79.1048 485.644 78.3102C486.496 77.5157 487.591 77.0762 488.725 77.0732Z" fill="#777778"/>
<path d="M488.725 41.9391H489.254V43.7335H488.358C487.503 43.7263 486.66 43.9547 485.912 44.3964C485.164 44.8382 484.537 45.4782 484.093 46.2538C484.242 45.0617 484.794 43.9675 485.645 43.1741C486.497 42.3806 487.591 41.9419 488.725 41.9391Z" fill="#777778"/>
<path d="M488.725 81.3797H489.254V83.1823H488.358C487.503 83.1751 486.66 83.4035 485.912 83.8453C485.164 84.287 484.537 84.927 484.093 85.7026C484.24 84.509 484.791 83.4128 485.643 82.6178C486.495 81.8227 487.59 81.3827 488.725 81.3797Z" fill="#777778"/>
<path d="M484.085 94.3211C484.233 93.1252 484.787 92.0274 485.642 91.2325C486.497 90.4376 487.596 89.9999 488.733 90.0009H489.262V91.8008H488.358C487.501 91.7922 486.657 92.0199 485.908 92.4617C485.158 92.9035 484.53 93.5443 484.085 94.3211Z" fill="#777778"/>
<path d="M488.725 85.6917H489.254V87.4915H488.358C487.503 87.4843 486.66 87.7128 485.912 88.1545C485.164 88.5963 484.537 89.2362 484.093 90.0119C484.241 88.8188 484.792 87.7232 485.644 86.9287C486.496 86.1342 487.591 85.6946 488.725 85.6917Z" fill="#777778"/>
<path d="M488.725 68.452H489.254V70.2546H488.358C487.502 70.2459 486.657 70.4734 485.908 70.9147C485.159 71.356 484.531 71.996 484.085 72.7722C484.233 71.5777 484.786 70.481 485.639 69.6863C486.493 68.8916 487.589 68.4529 488.725 68.452Z" fill="#777778"/>
<path d="M488.725 72.7722H489.254V74.5748H488.358C487.503 74.5676 486.66 74.7957 485.913 75.2369C485.165 75.6782 484.538 76.3174 484.093 77.0924C484.241 75.8993 484.792 74.8037 485.644 74.0092C486.496 73.2147 487.591 72.7751 488.725 72.7722Z" fill="#777778"/>
<path d="M488.725 50.9959H489.254V52.7985H488.358C487.503 52.7907 486.66 53.0186 485.912 53.4599C485.164 53.9012 484.538 54.5408 484.093 55.3161C484.241 54.123 484.792 53.0274 485.644 52.2329C486.496 51.4384 487.591 50.9988 488.725 50.9959Z" fill="#777778"/>
<path d="M488.725 46.473H489.254V48.2728H488.358C487.503 48.2656 486.66 48.4941 485.912 48.9358C485.164 49.3776 484.537 50.0175 484.093 50.7932C484.241 49.6 484.792 48.5045 485.644 47.71C486.496 46.9155 487.591 46.4759 488.725 46.473Z" fill="#777778"/>
<path d="M484.085 98.6304C484.233 97.4345 484.787 96.3367 485.642 95.5418C486.497 94.7469 487.596 94.3091 488.733 94.3102H489.262V96.11H488.358C487.501 96.1014 486.657 96.3292 485.908 96.771C485.158 97.2128 484.53 97.8535 484.085 98.6304Z" fill="#777778"/>
<path d="M488.725 64.1428H489.254V65.9454H488.358C487.503 65.9381 486.66 66.1663 485.913 66.6075C485.165 67.0487 484.538 67.688 484.093 68.463C484.241 67.2698 484.792 66.1743 485.644 65.3798C486.496 64.5853 487.591 64.1457 488.725 64.1428Z" fill="#777778"/>
<path d="M488.725 59.8335H489.254V61.6361H488.358C487.503 61.6284 486.66 61.8563 485.912 62.2976C485.164 62.7388 484.538 63.3784 484.093 64.1537C484.241 62.9606 484.792 61.8651 485.644 61.0705C486.496 60.276 487.591 59.8365 488.725 59.8335Z" fill="#777778"/>
<path d="M488.725 55.5133H489.254V57.3132H488.358C487.503 57.306 486.66 57.5344 485.912 57.9762C485.164 58.4179 484.537 59.0579 484.093 59.8335C484.241 58.6404 484.792 57.5449 485.644 56.7503C486.496 55.9558 487.591 55.5163 488.725 55.5133Z" fill="#777778"/>
<path d="M527.349 61.5402H526.833V63.3428H527.737C528.593 63.3356 529.435 63.5641 530.183 64.0058C530.931 64.4476 531.558 65.0875 532.003 65.8632C531.854 64.6658 531.3 63.5666 530.444 62.7711C529.588 61.9755 528.488 61.5379 527.349 61.5402Z" fill="#777778"/>
<path d="M527.349 88.0586H526.833V89.8612H527.737C528.591 89.8544 529.433 90.0828 530.18 90.524C530.927 90.9652 531.553 91.6043 531.997 92.3788C531.849 91.1829 531.295 90.0851 530.44 89.2902C529.585 88.4953 528.486 88.0576 527.349 88.0586Z" fill="#777778"/>
<path d="M527.349 92.3679H526.833V94.1704H527.737C528.591 94.1642 529.433 94.3928 530.18 94.834C530.926 95.2751 531.552 95.9139 531.997 96.6881C531.849 95.4921 531.295 94.3944 530.44 93.5995C529.585 92.8046 528.486 92.3668 527.349 92.3679Z" fill="#777778"/>
<path d="M527.349 70.6025H526.833V72.4024H527.737C528.593 72.3952 529.435 72.6236 530.183 73.0653C530.931 73.5071 531.558 74.147 532.003 74.9227C531.854 73.7258 531.3 72.6273 530.443 71.8323C529.587 71.0373 528.487 70.6001 527.349 70.6025Z" fill="#777778"/>
<path d="M527.349 66.0741H526.833V67.8739H527.737C528.593 67.8667 529.435 68.0952 530.183 68.5369C530.931 68.9787 531.558 69.6186 532.003 70.3943C531.854 69.1974 531.3 68.0989 530.443 67.3039C529.587 66.5089 528.487 66.0717 527.349 66.0741Z" fill="#777778"/>
<path d="M527.349 83.7494H526.833V85.5492H527.737C528.593 85.542 529.435 85.7705 530.183 86.2122C530.931 86.654 531.558 87.2939 532.003 88.0696C531.854 86.8727 531.3 85.7742 530.443 84.9792C529.587 84.1842 528.487 83.747 527.349 83.7494Z" fill="#777778"/>
<path d="M527.349 79.4402H526.833V81.2427H527.737C528.591 81.2359 529.433 81.4643 530.18 81.9055C530.927 82.3468 531.553 82.9858 531.997 83.7603C531.849 82.5644 531.295 81.4667 530.44 80.6718C529.585 79.8769 528.486 79.4391 527.349 79.4402Z" fill="#777778"/>
<path d="M527.349 75.1309H526.833V76.9307H527.737C528.593 76.9235 529.435 77.152 530.183 77.5937C530.931 78.0355 531.558 78.6754 532.003 79.4511C531.854 78.2542 531.3 77.1557 530.443 76.3607C529.587 75.5657 528.487 75.1285 527.349 75.1309Z" fill="#777778"/>
<path d="M481.312 71.964H465.263C464.408 71.9565 463.565 72.1848 462.818 72.6267C462.07 73.0685 461.444 73.7086 461 74.4844C461.147 73.288 461.701 72.1896 462.556 71.3944C463.412 70.5993 464.511 70.162 465.648 70.1642H481.322L481.312 71.964Z" fill="#777778"/>
<path d="M465.635 83.7494H481.309V85.5492H465.261C464.405 85.5417 463.562 85.77 462.815 86.2118C462.068 86.6536 461.441 87.2938 460.997 88.0696C461.145 86.8751 461.696 85.7781 462.55 84.9833C463.403 84.1884 464.499 83.7499 465.635 83.7494Z" fill="#777778"/>
<path d="M465.635 92.3679H481.309V94.1704H465.261C464.405 94.1629 463.563 94.3909 462.816 94.8322C462.068 95.2735 461.442 95.9129 460.997 96.688C461.145 95.4938 461.697 94.3972 462.55 93.6024C463.403 92.8077 464.5 92.3689 465.635 92.3679Z" fill="#777778"/>
<path d="M481.314 79.221H478.079V81.0236H481.314V79.221Z" fill="#777778"/>
<path d="M465.635 79.221H476.375V81.0236H465.271C464.416 81.0155 463.573 81.2433 462.826 81.6846C462.078 82.126 461.452 82.7657 461.008 83.5412C461.155 82.3485 461.705 81.2531 462.556 80.4585C463.407 79.6638 464.501 79.2241 465.635 79.221Z" fill="#777778"/>
<path d="M481.314 74.6926H472.005V76.4952H481.314V74.6926Z" fill="#777778"/>
<path d="M465.635 74.6898H470.304V76.4897H465.261C464.405 76.4822 463.562 76.7105 462.815 77.1523C462.068 77.5941 461.441 78.2342 460.997 79.01C461.145 77.8155 461.696 76.7186 462.55 75.9237C463.403 75.1288 464.499 74.6903 465.635 74.6898Z" fill="#777778"/>
<path d="M481.314 88.0586H472.005V89.8612H481.314V88.0586Z" fill="#777778"/>
<path d="M465.635 88.0586H470.304V89.8612H465.261C464.405 89.8531 463.563 90.0809 462.815 90.5222C462.068 90.9636 461.442 91.6033 460.997 92.3788C461.145 91.1845 461.697 90.0879 462.55 89.2932C463.403 88.4984 464.5 88.0597 465.635 88.0586Z" fill="#777778"/>
<path d="M481.314 96.6798H478.079V98.4824H481.314V96.6798Z" fill="#777778"/>
<path d="M465.635 96.6771H476.374V98.4797H465.271C464.415 98.4699 463.572 98.6959 462.823 99.1358C462.074 99.5757 461.446 100.214 461 100.989C461.149 99.7967 461.702 98.7025 462.554 97.9095C463.407 97.1164 464.501 96.6785 465.635 96.6771Z" fill="#777778"/>
<path d="M465.635 70.1642H466.151V71.964H465.248C464.392 71.9565 463.55 72.1848 462.802 72.6266C462.055 73.0684 461.429 73.7086 460.984 74.4844C461.132 73.2875 461.686 72.1887 462.542 71.3935C463.398 70.5983 464.497 70.1613 465.635 70.1642Z" fill="#777778"/>
<path d="M465.635 96.6771H466.151V98.4797H465.248C464.396 98.4741 463.557 98.7023 462.813 99.1419C462.069 99.5816 461.444 100.218 461 100.989C461.149 99.7967 461.702 98.7025 462.554 97.9095C463.407 97.1164 464.501 96.6785 465.635 96.6771Z" fill="#777778"/>
<path d="M465.635 79.221H466.151V81.0236H465.248C464.392 81.0155 463.55 81.2433 462.802 81.6846C462.055 82.1259 461.429 82.7657 460.984 83.5412C461.132 82.3443 461.686 81.2455 462.542 80.4503C463.398 79.6551 464.497 79.2181 465.635 79.221Z" fill="#777778"/>
<path d="M465.635 74.6898H466.151V76.4897H465.248C464.392 76.4822 463.55 76.7105 462.802 77.1523C462.055 77.5941 461.429 78.2342 460.984 79.01C461.132 77.8132 461.686 76.7144 462.542 75.9192C463.398 75.124 464.497 74.687 465.635 74.6898Z" fill="#777778"/>
<path d="M465.635 92.3679H466.151V94.1704H465.248C464.393 94.1629 463.55 94.3909 462.803 94.8322C462.056 95.2735 461.429 95.9129 460.984 96.688C461.133 95.4914 461.686 94.3929 462.542 93.5979C463.398 92.8028 464.497 92.3656 465.635 92.3679Z" fill="#777778"/>
<path d="M465.635 88.0586H466.151V89.8612H465.248C464.392 89.8531 463.55 90.0809 462.802 90.5222C462.055 90.9636 461.429 91.6033 460.984 92.3788C461.133 91.1822 461.686 90.0837 462.542 89.2886C463.398 88.4936 464.497 88.0563 465.635 88.0586Z" fill="#777778"/>
<path d="M465.635 83.7494H466.151V85.5492H465.248C464.392 85.5417 463.55 85.77 462.802 86.2118C462.055 86.6536 461.429 87.2938 460.984 88.0696C461.132 86.8727 461.686 85.7739 462.542 84.9787C463.398 84.1835 464.497 83.7465 465.635 83.7494Z" fill="#777778"/>
</g>
<path d="M48.9686 36.856V31.984H51.6326C53.5286 31.984 54.3686 32.896 54.3686 34.432C54.3686 35.92 53.5286 36.856 51.6326 36.856H48.9686ZM57.8246 34.432C57.8246 31.528 55.8086 29.248 51.7766 29.248H45.6086V46H48.9686V39.568H51.7766C56.0966 39.568 57.8246 36.976 57.8246 34.432ZM60.2102 46H63.5702V28.24H60.2102V46ZM66.0259 39.304C66.0259 43.456 68.7139 46.216 72.0739 46.216C74.1859 46.216 75.6979 45.208 76.4899 44.056V46H79.8739V32.704H76.4899V34.6C75.6979 33.496 74.2339 32.488 72.0979 32.488C68.7139 32.488 66.0259 35.152 66.0259 39.304ZM76.4899 39.352C76.4899 41.872 74.8099 43.264 72.9619 43.264C71.1619 43.264 69.4579 41.824 69.4579 39.304C69.4579 36.784 71.1619 35.44 72.9619 35.44C74.8099 35.44 76.4899 36.832 76.4899 39.352ZM83.6835 41.872C83.6835 44.92 85.3875 46 87.9315 46H90.0435V43.168H88.4835C87.4275 43.168 87.0675 42.784 87.0675 41.896V35.464H90.0435V32.704H87.0675V29.416H83.6835V32.704H82.0995V35.464H83.6835V41.872ZM92.4602 46H95.8202V32.704H92.4602V46ZM94.1642 31.12C95.3402 31.12 96.2282 30.256 96.2282 29.152C96.2282 28.048 95.3402 27.184 94.1642 27.184C92.9642 27.184 92.1002 28.048 92.1002 29.152C92.1002 30.256 92.9642 31.12 94.1642 31.12ZM108.452 46H111.812V38.2C111.812 34.528 109.604 32.512 106.508 32.512C104.804 32.512 103.364 33.232 102.5 34.36V32.704H99.1399V46H102.5V38.656C102.5 36.52 103.676 35.368 105.5 35.368C107.276 35.368 108.452 36.52 108.452 38.656V46ZM127.559 32.704H124.175V40.024C124.175 42.16 123.023 43.312 121.199 43.312C119.423 43.312 118.247 42.16 118.247 40.024V32.704H114.887V40.504C114.887 44.152 117.119 46.168 120.215 46.168C121.871 46.168 123.335 45.448 124.175 44.32V46H127.559V32.704ZM149.474 46H152.834V38.2C152.834 34.528 150.578 32.512 147.386 32.512C145.442 32.512 143.69 33.544 142.826 35.056C141.914 33.4 140.21 32.512 138.146 32.512C136.49 32.512 135.074 33.208 134.234 34.312V32.704H130.874V46H134.234V38.656C134.234 36.544 135.41 35.44 137.234 35.44C139.01 35.44 140.186 36.544 140.186 38.656V46H143.546V38.656C143.546 36.544 144.722 35.44 146.522 35.44C148.298 35.44 149.474 36.544 149.474 38.656V46Z" fill="#94918E"/>
<path d="M42.716 81V65.49H45.554V81H42.716ZM48.748 81V72.662C48.748 72.2073 48.7333 71.7453 48.704 71.276C48.6746 70.8067 48.6306 70.3447 48.572 69.89H51.234L51.454 72.09H51.19C51.542 71.3127 52.0626 70.7187 52.752 70.308C53.4413 69.8827 54.2406 69.67 55.15 69.67C56.4553 69.67 57.438 70.0367 58.098 70.77C58.758 71.5033 59.088 72.6473 59.088 74.202V81H56.338V74.334C56.338 73.4393 56.162 72.8013 55.81 72.42C55.4726 72.024 54.9593 71.826 54.27 71.826C53.4193 71.826 52.7446 72.09 52.246 72.618C51.7473 73.146 51.498 73.85 51.498 74.73V81H48.748ZM65.1524 81L60.3564 69.89H63.2824L66.7584 78.58H66.0764L69.6404 69.89H72.3904L67.5724 81H65.1524ZM79.0163 81.22C77.1537 81.22 75.6943 80.7067 74.6383 79.68C73.5823 78.6533 73.0543 77.2453 73.0543 75.456C73.0543 74.2973 73.2817 73.2853 73.7363 72.42C74.191 71.5547 74.8217 70.88 75.6283 70.396C76.4497 69.912 77.403 69.67 78.4883 69.67C79.559 69.67 80.4537 69.8973 81.1723 70.352C81.891 70.8067 82.4337 71.4447 82.8003 72.266C83.1817 73.0873 83.3723 74.048 83.3723 75.148V75.874H75.2763V74.422H81.4143L81.0403 74.73C81.0403 73.7033 80.8203 72.9187 80.3803 72.376C79.955 71.8333 79.3317 71.562 78.5103 71.562C77.601 71.562 76.897 71.8847 76.3983 72.53C75.9143 73.1753 75.6723 74.0773 75.6723 75.236V75.522C75.6723 76.7247 75.9657 77.6267 76.5523 78.228C77.1537 78.8147 77.997 79.108 79.0823 79.108C79.713 79.108 80.2997 79.0273 80.8423 78.866C81.3997 78.69 81.9277 78.4113 82.4263 78.03L83.2403 79.878C82.7123 80.3033 82.0817 80.6333 81.3483 80.868C80.615 81.1027 79.8377 81.22 79.0163 81.22ZM89.6611 81.22C88.7077 81.22 87.8277 81.11 87.0211 80.89C86.2291 80.6553 85.5617 80.3327 85.0191 79.922L85.7891 78.074C86.3464 78.4553 86.9624 78.7487 87.6371 78.954C88.3117 79.1593 88.9937 79.262 89.6831 79.262C90.4164 79.262 90.9591 79.1373 91.3111 78.888C91.6777 78.6387 91.8611 78.3013 91.8611 77.876C91.8611 77.5387 91.7437 77.2747 91.5091 77.084C91.2891 76.8787 90.9297 76.7247 90.4311 76.622L88.2311 76.204C87.2924 75.9987 86.5737 75.6467 86.0751 75.148C85.5911 74.6493 85.3491 73.9967 85.3491 73.19C85.3491 72.5007 85.5324 71.892 85.8991 71.364C86.2804 70.836 86.8157 70.4253 87.5051 70.132C88.2091 69.824 89.0304 69.67 89.9691 69.67C90.7904 69.67 91.5604 69.78 92.2791 70C93.0124 70.22 93.6284 70.55 94.1271 70.99L93.3351 72.772C92.8804 72.4053 92.3597 72.1193 91.7731 71.914C91.1864 71.7087 90.6144 71.606 90.0571 71.606C89.2944 71.606 88.7371 71.7453 88.3851 72.024C88.0331 72.288 87.8571 72.6327 87.8571 73.058C87.8571 73.3807 87.9597 73.652 88.1651 73.872C88.3851 74.0773 88.7224 74.2313 89.1771 74.334L91.3771 74.752C92.3597 74.9427 93.1004 75.28 93.5991 75.764C94.1124 76.2333 94.3691 76.8787 94.3691 77.7C94.3691 78.4333 94.1711 79.064 93.7751 79.592C93.3791 80.12 92.8291 80.5233 92.1251 80.802C91.4211 81.0807 90.5997 81.22 89.6611 81.22ZM101.367 81.22C100.047 81.22 99.0498 80.8753 98.3751 80.186C97.7005 79.4967 97.3631 78.4627 97.3631 77.084V71.958H95.2291V69.89H97.3631V67.052L100.113 66.348V69.89H103.083V71.958H100.113V76.908C100.113 77.6707 100.26 78.206 100.553 78.514C100.846 78.822 101.25 78.976 101.763 78.976C102.042 78.976 102.276 78.954 102.467 78.91C102.672 78.866 102.87 78.8073 103.061 78.734V80.912C102.812 81.0147 102.533 81.088 102.225 81.132C101.932 81.1907 101.646 81.22 101.367 81.22ZM104.951 81V72.662C104.951 72.2073 104.936 71.7453 104.907 71.276C104.878 70.8067 104.834 70.3447 104.775 69.89H107.437L107.657 72.09H107.393C107.701 71.3273 108.17 70.7333 108.801 70.308C109.446 69.8827 110.209 69.67 111.089 69.67C111.969 69.67 112.695 69.8827 113.267 70.308C113.854 70.7187 114.264 71.364 114.499 72.244H114.147C114.455 71.452 114.961 70.8287 115.665 70.374C116.369 69.9047 117.176 69.67 118.085 69.67C119.332 69.67 120.263 70.0367 120.879 70.77C121.495 71.5033 121.803 72.6473 121.803 74.202V81H119.053V74.312C119.053 73.432 118.906 72.8013 118.613 72.42C118.32 72.024 117.85 71.826 117.205 71.826C116.442 71.826 115.841 72.0973 115.401 72.64C114.961 73.168 114.741 73.8867 114.741 74.796V81H111.991V74.312C111.991 73.432 111.844 72.8013 111.551 72.42C111.258 72.024 110.788 71.826 110.143 71.826C109.38 71.826 108.779 72.0973 108.339 72.64C107.914 73.168 107.701 73.8867 107.701 74.796V81H104.951ZM130.106 81.22C128.244 81.22 126.784 80.7067 125.728 79.68C124.672 78.6533 124.144 77.2453 124.144 75.456C124.144 74.2973 124.372 73.2853 124.826 72.42C125.281 71.5547 125.912 70.88 126.718 70.396C127.54 69.912 128.493 69.67 129.578 69.67C130.649 69.67 131.544 69.8973 132.262 70.352C132.981 70.8067 133.524 71.4447 133.89 72.266C134.272 73.0873 134.462 74.048 134.462 75.148V75.874H126.366V74.422H132.504L132.13 74.73C132.13 73.7033 131.91 72.9187 131.47 72.376C131.045 71.8333 130.422 71.562 129.6 71.562C128.691 71.562 127.987 71.8847 127.488 72.53C127.004 73.1753 126.762 74.0773 126.762 75.236V75.522C126.762 76.7247 127.056 77.6267 127.642 78.228C128.244 78.8147 129.087 79.108 130.172 79.108C130.803 79.108 131.39 79.0273 131.932 78.866C132.49 78.69 133.018 78.4113 133.516 78.03L134.33 79.878C133.802 80.3033 133.172 80.6333 132.438 80.868C131.705 81.1027 130.928 81.22 130.106 81.22ZM136.791 81V72.662C136.791 72.2073 136.776 71.7453 136.747 71.276C136.718 70.8067 136.674 70.3447 136.615 69.89H139.277L139.497 72.09H139.233C139.585 71.3127 140.106 70.7187 140.795 70.308C141.484 69.8827 142.284 69.67 143.193 69.67C144.498 69.67 145.481 70.0367 146.141 70.77C146.801 71.5033 147.131 72.6473 147.131 74.202V81H144.381V74.334C144.381 73.4393 144.205 72.8013 143.853 72.42C143.516 72.024 143.002 71.826 142.313 71.826C141.462 71.826 140.788 72.09 140.289 72.618C139.79 73.146 139.541 73.85 139.541 74.73V81H136.791ZM154.799 81.22C153.479 81.22 152.481 80.8753 151.807 80.186C151.132 79.4967 150.795 78.4627 150.795 77.084V71.958H148.661V69.89H150.795V67.052L153.545 66.348V69.89H156.515V71.958H153.545V76.908C153.545 77.6707 153.691 78.206 153.985 78.514C154.278 78.822 154.681 78.976 155.195 78.976C155.473 78.976 155.708 78.954 155.899 78.91C156.104 78.866 156.302 78.8073 156.493 78.734V80.912C156.243 81.0147 155.965 81.088 155.657 81.132C155.363 81.1907 155.077 81.22 154.799 81.22ZM169.436 81.22C168.292 81.22 167.302 80.9853 166.466 80.516C165.63 80.0467 164.977 79.3793 164.508 78.514C164.053 77.6487 163.826 76.622 163.826 75.434C163.826 74.246 164.053 73.2267 164.508 72.376C164.977 71.5107 165.63 70.8433 166.466 70.374C167.302 69.9047 168.292 69.67 169.436 69.67C170.58 69.67 171.57 69.9047 172.406 70.374C173.256 70.8433 173.909 71.5107 174.364 72.376C174.833 73.2267 175.068 74.246 175.068 75.434C175.068 76.622 174.833 77.6487 174.364 78.514C173.909 79.3793 173.256 80.0467 172.406 80.516C171.57 80.9853 170.58 81.22 169.436 81.22ZM169.436 79.108C170.301 79.108 170.99 78.8073 171.504 78.206C172.017 77.59 172.274 76.666 172.274 75.434C172.274 74.202 172.017 73.2853 171.504 72.684C170.99 72.0827 170.301 71.782 169.436 71.782C168.57 71.782 167.881 72.0827 167.368 72.684C166.854 73.2853 166.598 74.202 166.598 75.434C166.598 76.666 166.854 77.59 167.368 78.206C167.881 78.8073 168.57 79.108 169.436 79.108ZM178.08 81V71.958H175.946V69.89H178.85L178.08 70.594V68.9C178.08 67.5213 178.432 66.48 179.136 65.776C179.855 65.072 180.903 64.72 182.282 64.72C182.605 64.72 182.942 64.742 183.294 64.786C183.661 64.83 183.976 64.9107 184.24 65.028V67.184C184.049 67.1107 183.822 67.052 183.558 67.008C183.294 66.964 183.037 66.942 182.788 66.942C182.407 66.942 182.062 67.0153 181.754 67.162C181.461 67.3087 181.226 67.536 181.05 67.844C180.889 68.1373 180.808 68.5333 180.808 69.032V70.374L180.412 69.89H183.734V71.958H180.83V81H178.08ZM199.059 81L195.781 76.072C195.59 75.764 195.385 75.5147 195.165 75.324C194.959 75.1333 194.725 75.0013 194.461 74.928C194.211 74.84 193.911 74.796 193.559 74.796H190.435V72.86H194.747C195.788 72.86 196.573 72.6473 197.101 72.222C197.629 71.782 197.944 71.1587 198.047 70.352L198.421 70.572H190.435V68.944H198.421L198.003 69.23C197.885 68.5407 197.57 68.02 197.057 67.668C196.543 67.3013 195.81 67.118 194.857 67.118H190.435V65.49H202.733V67.118H198.795L199.147 66.81C199.616 67.074 199.983 67.426 200.247 67.866C200.511 68.2913 200.672 68.79 200.731 69.362L200.225 68.944H202.733V70.572H200.291L200.775 70.066C200.789 71.0047 200.584 71.8187 200.159 72.508C199.733 73.1973 199.125 73.7327 198.333 74.114C197.555 74.4807 196.617 74.664 195.517 74.664V74.444H196.133C196.793 74.444 197.357 74.576 197.827 74.84C198.311 75.0893 198.765 75.5367 199.191 76.182L202.447 81H199.059ZM215.911 81.22C215.237 81.22 214.562 81.1467 213.887 81C213.227 80.8533 212.604 80.648 212.017 80.384C211.445 80.12 210.954 79.8047 210.543 79.438L211.467 77.304C212.157 77.8173 212.861 78.206 213.579 78.47C214.313 78.7193 215.075 78.844 215.867 78.844C216.821 78.844 217.561 78.6093 218.089 78.14C218.632 77.656 218.903 77.0107 218.903 76.204C218.903 75.3827 218.647 74.7227 218.133 74.224C217.62 73.7107 216.916 73.454 216.021 73.454C215.391 73.454 214.811 73.5787 214.283 73.828C213.77 74.0627 213.308 74.4293 212.897 74.928H211.027V65.49H220.663V67.822H213.711V72.75H213.029C213.411 72.2367 213.917 71.8407 214.547 71.562C215.193 71.2833 215.911 71.144 216.703 71.144C217.701 71.144 218.566 71.3493 219.299 71.76C220.033 72.1707 220.605 72.75 221.015 73.498C221.426 74.2313 221.631 75.0967 221.631 76.094C221.631 77.106 221.397 78.0007 220.927 78.778C220.473 79.5407 219.813 80.142 218.947 80.582C218.097 81.0073 217.085 81.22 215.911 81.22ZM237.362 81.22C235.748 81.22 234.362 80.8973 233.204 80.252C232.06 79.592 231.18 78.668 230.564 77.48C229.948 76.2773 229.64 74.862 229.64 73.234C229.64 71.606 229.948 70.198 230.564 69.01C231.18 67.822 232.06 66.9053 233.204 66.26C234.362 65.6 235.748 65.27 237.362 65.27C238.447 65.27 239.422 65.424 240.288 65.732C241.168 66.04 241.923 66.4947 242.554 67.096L241.63 69.34C240.94 68.7827 240.273 68.3867 239.628 68.152C238.997 67.9027 238.271 67.778 237.45 67.778C235.88 67.778 234.678 68.2547 233.842 69.208C233.02 70.1467 232.61 71.4887 232.61 73.234C232.61 74.9793 233.02 76.3287 233.842 77.282C234.678 78.2353 235.88 78.712 237.45 78.712C238.271 78.712 238.997 78.5947 239.628 78.36C240.273 78.1107 240.94 77.7 241.63 77.128L242.554 79.372C241.923 79.9587 241.168 80.4133 240.288 80.736C239.422 81.0587 238.447 81.22 237.362 81.22ZM244.964 81V72.728C244.964 72.2587 244.95 71.782 244.92 71.298C244.906 70.814 244.869 70.3447 244.81 69.89H247.472L247.78 72.926H247.34C247.487 72.1927 247.729 71.584 248.066 71.1C248.418 70.616 248.844 70.2567 249.342 70.022C249.841 69.7873 250.384 69.67 250.97 69.67C251.234 69.67 251.447 69.6847 251.608 69.714C251.77 69.7287 251.931 69.7653 252.092 69.824L252.07 72.244C251.792 72.1267 251.55 72.0533 251.344 72.024C251.154 71.9947 250.912 71.98 250.618 71.98C249.988 71.98 249.452 72.112 249.012 72.376C248.587 72.64 248.264 73.0067 248.044 73.476C247.839 73.9453 247.736 74.4807 247.736 75.082V81H244.964ZM252.821 81V77.942H255.901V81H252.821ZM268.913 81.22C267.945 81.22 267.094 80.9927 266.361 80.538C265.628 80.0687 265.056 79.4013 264.645 78.536C264.234 77.6707 264.029 76.6367 264.029 75.434C264.029 74.2313 264.234 73.2047 264.645 72.354C265.056 71.4887 265.628 70.8287 266.361 70.374C267.094 69.9047 267.945 69.67 268.913 69.67C269.852 69.67 270.673 69.9047 271.377 70.374C272.096 70.8287 272.572 71.4447 272.807 72.222H272.565L272.807 69.89H275.447C275.403 70.3447 275.359 70.8067 275.315 71.276C275.286 71.7453 275.271 72.2073 275.271 72.662V81H272.543L272.521 78.712H272.785C272.55 79.4747 272.074 80.0833 271.355 80.538C270.636 80.9927 269.822 81.22 268.913 81.22ZM269.683 79.108C270.548 79.108 271.245 78.8073 271.773 78.206C272.301 77.59 272.565 76.666 272.565 75.434C272.565 74.202 272.301 73.2853 271.773 72.684C271.245 72.0827 270.548 71.782 269.683 71.782C268.818 71.782 268.121 72.0827 267.593 72.684C267.065 73.2853 266.801 74.202 266.801 75.434C266.801 76.666 267.058 77.59 267.571 78.206C268.099 78.8073 268.803 79.108 269.683 79.108ZM278.266 81V72.662C278.266 72.2073 278.251 71.7453 278.222 71.276C278.192 70.8067 278.148 70.3447 278.09 69.89H280.752L280.972 72.09H280.708C281.06 71.3127 281.58 70.7187 282.27 70.308C282.959 69.8827 283.758 69.67 284.668 69.67C285.973 69.67 286.956 70.0367 287.616 70.77C288.276 71.5033 288.606 72.6473 288.606 74.202V81H285.856V74.334C285.856 73.4393 285.68 72.8013 285.328 72.42C284.99 72.024 284.477 71.826 283.788 71.826C282.937 71.826 282.262 72.09 281.764 72.618C281.265 73.146 281.016 73.85 281.016 74.73V81H278.266ZM295.833 81.22C294.865 81.22 294.007 80.9927 293.259 80.538C292.526 80.0687 291.954 79.4013 291.543 78.536C291.133 77.6707 290.927 76.6367 290.927 75.434C290.927 74.2313 291.133 73.2047 291.543 72.354C291.954 71.4887 292.526 70.8287 293.259 70.374C294.007 69.9047 294.865 69.67 295.833 69.67C296.757 69.67 297.571 69.8973 298.275 70.352C298.994 70.792 299.471 71.3933 299.705 72.156H299.419V64.808H302.169V81H299.463V78.646H299.727C299.493 79.438 299.016 80.0687 298.297 80.538C297.593 80.9927 296.772 81.22 295.833 81.22ZM296.603 79.108C297.469 79.108 298.165 78.8073 298.693 78.206C299.221 77.59 299.485 76.666 299.485 75.434C299.485 74.202 299.221 73.2853 298.693 72.684C298.165 72.0827 297.469 71.782 296.603 71.782C295.738 71.782 295.034 72.0827 294.491 72.684C293.963 73.2853 293.699 74.202 293.699 75.434C293.699 76.666 293.963 77.59 294.491 78.206C295.034 78.8073 295.738 79.108 296.603 79.108ZM315.491 81.22C314.523 81.22 313.672 80.9927 312.939 80.538C312.206 80.0687 311.634 79.4013 311.223 78.536C310.812 77.6707 310.607 76.6367 310.607 75.434C310.607 74.2313 310.812 73.2047 311.223 72.354C311.634 71.4887 312.206 70.8287 312.939 70.374C313.672 69.9047 314.523 69.67 315.491 69.67C316.43 69.67 317.251 69.9047 317.955 70.374C318.674 70.8287 319.15 71.4447 319.385 72.222H319.143L319.385 69.89H322.025C321.981 70.3447 321.937 70.8067 321.893 71.276C321.864 71.7453 321.849 72.2073 321.849 72.662V81H319.121L319.099 78.712H319.363C319.128 79.4747 318.652 80.0833 317.933 80.538C317.214 80.9927 316.4 81.22 315.491 81.22ZM316.261 79.108C317.126 79.108 317.823 78.8073 318.351 78.206C318.879 77.59 319.143 76.666 319.143 75.434C319.143 74.202 318.879 73.2853 318.351 72.684C317.823 72.0827 317.126 71.782 316.261 71.782C315.396 71.782 314.699 72.0827 314.171 72.684C313.643 73.2853 313.379 74.202 313.379 75.434C313.379 76.666 313.636 77.59 314.149 78.206C314.677 78.8073 315.381 79.108 316.261 79.108ZM331.202 81.22C330.263 81.22 329.442 80.9927 328.738 80.538C328.034 80.0687 327.564 79.438 327.33 78.646H327.572V81H324.844V64.808H327.594V72.156H327.33C327.579 71.3933 328.056 70.792 328.76 70.352C329.464 69.8973 330.278 69.67 331.202 69.67C332.184 69.67 333.042 69.9047 333.776 70.374C334.509 70.8433 335.081 71.5107 335.492 72.376C335.902 73.2267 336.108 74.2533 336.108 75.456C336.108 76.6587 335.902 77.6927 335.492 78.558C335.081 79.4087 334.502 80.0687 333.754 80.538C333.02 80.9927 332.17 81.22 331.202 81.22ZM330.432 79.108C331.297 79.108 331.994 78.8073 332.522 78.206C333.064 77.6047 333.336 76.688 333.336 75.456C333.336 74.224 333.064 73.3073 332.522 72.706C331.994 72.09 331.297 71.782 330.432 71.782C329.566 71.782 328.87 72.0827 328.342 72.684C327.814 73.2853 327.55 74.202 327.55 75.434C327.55 76.666 327.814 77.59 328.342 78.206C328.87 78.8073 329.566 79.108 330.432 79.108ZM343.502 81.22C342.358 81.22 341.368 80.9853 340.532 80.516C339.696 80.0467 339.044 79.3793 338.574 78.514C338.12 77.6487 337.892 76.622 337.892 75.434C337.892 74.246 338.12 73.2267 338.574 72.376C339.044 71.5107 339.696 70.8433 340.532 70.374C341.368 69.9047 342.358 69.67 343.502 69.67C344.646 69.67 345.636 69.9047 346.472 70.374C347.323 70.8433 347.976 71.5107 348.43 72.376C348.9 73.2267 349.134 74.246 349.134 75.434C349.134 76.622 348.9 77.6487 348.43 78.514C347.976 79.3793 347.323 80.0467 346.472 80.516C345.636 80.9853 344.646 81.22 343.502 81.22ZM343.502 79.108C344.368 79.108 345.057 78.8073 345.57 78.206C346.084 77.59 346.34 76.666 346.34 75.434C346.34 74.202 346.084 73.2853 345.57 72.684C345.057 72.0827 344.368 71.782 343.502 71.782C342.637 71.782 341.948 72.0827 341.434 72.684C340.921 73.2853 340.664 74.202 340.664 75.434C340.664 76.666 340.921 77.59 341.434 78.206C341.948 78.8073 342.637 79.108 343.502 79.108ZM354.547 81L349.751 69.89H352.677L356.153 78.58H355.471L359.035 69.89H361.785L356.967 81H354.547ZM368.411 81.22C366.548 81.22 365.089 80.7067 364.033 79.68C362.977 78.6533 362.449 77.2453 362.449 75.456C362.449 74.2973 362.676 73.2853 363.131 72.42C363.586 71.5547 364.216 70.88 365.023 70.396C365.844 69.912 366.798 69.67 367.883 69.67C368.954 69.67 369.848 69.8973 370.567 70.352C371.286 70.8067 371.828 71.4447 372.195 72.266C372.576 73.0873 372.767 74.048 372.767 75.148V75.874H364.671V74.422H370.809L370.435 74.73C370.435 73.7033 370.215 72.9187 369.775 72.376C369.35 71.8333 368.726 71.562 367.905 71.562C366.996 71.562 366.292 71.8847 365.793 72.53C365.309 73.1753 365.067 74.0773 365.067 75.236V75.522C365.067 76.7247 365.36 77.6267 365.947 78.228C366.548 78.8147 367.392 79.108 368.477 79.108C369.108 79.108 369.694 79.0273 370.237 78.866C370.794 78.69 371.322 78.4113 371.821 78.03L372.635 79.878C372.107 80.3033 371.476 80.6333 370.743 80.868C370.01 81.1027 369.232 81.22 368.411 81.22Z" fill="#94918E"/>
<defs>
<clipPath id="clip0_141_22">
<rect width="71" height="59.0609" fill="white" transform="translate(461 41.9391)"/>
</clipPath>
</defs>
</svg>
