<svg width="167" height="165" viewBox="0 0 167 165" fill="none" xmlns="http://www.w3.org/2000/svg">
<path d="M84.1984 0.875914V0.873772C129.705 1.1392 166.5 37.6149 166.5 82.5559C166.5 127.661 129.435 164.243 83.6984 164.243C37.9613 164.243 0.896484 127.665 0.896484 82.5595C0.896484 37.454 37.9625 0.875914 83.6984 0.875914H84.1984Z" fill="white" stroke="#2A44A9"/>
<path d="M83.9158 7.34436C126.017 7.34436 160.147 41.0237 160.147 82.5559C160.147 124.088 126.017 157.765 83.9158 157.765C41.8147 157.765 7.68066 124.086 7.68066 82.5559C7.68066 41.0261 41.8123 7.34436 83.9158 7.34436ZM83.9158 10.0243C43.3114 10.0243 10.3959 42.4979 10.3959 82.5559C10.3959 122.614 43.3114 155.086 83.9158 155.086C124.52 155.086 157.433 122.613 157.433 82.5559C157.433 42.4991 124.517 10.0243 83.9158 10.0243Z" fill="#2A44A9"/>
<g filter="url(#filter0_d_2_33)">
<path d="M123.036 106.549H120.627V73.1323C120.627 71.7688 120.12 70.4612 119.216 69.4971C118.313 68.533 117.087 67.9913 115.809 67.9913H96.5376V52.5684C96.5376 51.2049 96.03 49.8973 95.1264 48.9332C94.2229 47.9691 92.9974 47.4274 91.7196 47.4274H62.8117C61.5339 47.4274 60.3085 47.9691 59.4049 48.9332C58.5014 49.8973 57.9938 51.2049 57.9938 52.5684V106.549H55.5848C54.9459 106.549 54.3331 106.819 53.8814 107.302C53.4296 107.784 53.1758 108.437 53.1758 109.119C53.1758 109.801 53.4296 110.455 53.8814 110.937C54.3331 111.419 54.9459 111.69 55.5848 111.69H123.036C123.675 111.69 124.288 111.419 124.74 110.937C125.192 110.455 125.445 109.801 125.445 109.119C125.445 108.437 125.192 107.784 124.74 107.302C124.288 106.819 123.675 106.549 123.036 106.549ZM115.809 73.1323V106.549H96.5376V73.1323H115.809ZM62.8117 52.5684H91.7196V106.549H62.8117V52.5684ZM67.6297 62.8504C67.6297 62.1686 67.8835 61.5148 68.3353 61.0328C68.7871 60.5507 69.3998 60.2799 70.0387 60.2799H79.6747C80.3136 60.2799 80.9263 60.5507 81.3781 61.0328C81.8298 61.5148 82.0836 62.1686 82.0836 62.8504C82.0836 63.5321 81.8298 64.1859 81.3781 64.668C80.9263 65.15 80.3136 65.4208 79.6747 65.4208H70.0387C69.3998 65.4208 68.7871 65.15 68.3353 64.668C67.8835 64.1859 67.6297 63.5321 67.6297 62.8504ZM86.9016 83.4143C86.9016 84.096 86.6478 84.7498 86.196 85.2319C85.7443 85.7139 85.1315 85.9848 84.4926 85.9848H74.8567C74.2178 85.9848 73.605 85.7139 73.1533 85.2319C72.7015 84.7498 72.4477 84.096 72.4477 83.4143C72.4477 82.7325 72.7015 82.0787 73.1533 81.5967C73.605 81.1146 74.2178 80.8438 74.8567 80.8438H84.4926C85.1315 80.8438 85.7443 81.1146 86.196 81.5967C86.6478 82.0787 86.9016 82.7325 86.9016 83.4143ZM82.0836 96.2667C82.0836 96.9484 81.8298 97.6023 81.3781 98.0843C80.9263 98.5664 80.3136 98.8372 79.6747 98.8372H70.0387C69.3998 98.8372 68.7871 98.5664 68.3353 98.0843C67.8835 97.6023 67.6297 96.9484 67.6297 96.2667C67.6297 95.585 67.8835 94.9312 68.3353 94.4491C68.7871 93.967 69.3998 93.6962 70.0387 93.6962H79.6747C80.3136 93.6962 80.9263 93.967 81.3781 94.4491C81.8298 94.9312 82.0836 95.585 82.0836 96.2667ZM110.992 96.2667C110.992 96.9484 110.738 97.6023 110.286 98.0843C109.834 98.5664 109.221 98.8372 108.583 98.8372H103.765C103.126 98.8372 102.513 98.5664 102.061 98.0843C101.609 97.6023 101.356 96.9484 101.356 96.2667C101.356 95.585 101.609 94.9312 102.061 94.4491C102.513 93.967 103.126 93.6962 103.765 93.6962H108.583C109.221 93.6962 109.834 93.967 110.286 94.4491C110.738 94.9312 110.992 95.585 110.992 96.2667ZM101.356 83.4143C101.356 82.7325 101.609 82.0787 102.061 81.5967C102.513 81.1146 103.126 80.8438 103.765 80.8438H108.583C109.221 80.8438 109.834 81.1146 110.286 81.5967C110.738 82.0787 110.992 82.7325 110.992 83.4143C110.992 84.096 110.738 84.7498 110.286 85.2319C109.834 85.7139 109.221 85.9848 108.583 85.9848H103.765C103.126 85.9848 102.513 85.7139 102.061 85.2319C101.609 84.7498 101.356 84.096 101.356 83.4143Z" fill="#2A44A9"/>
</g>
<defs>
<filter id="filter0_d_2_33" x="49.1758" y="47.4274" width="80.2697" height="72.2622" filterUnits="userSpaceOnUse" color-interpolation-filters="sRGB">
<feFlood flood-opacity="0" result="BackgroundImageFix"/>
<feColorMatrix in="SourceAlpha" type="matrix" values="0 0 0 0 0 0 0 0 0 0 0 0 0 0 0 0 0 0 127 0" result="hardAlpha"/>
<feOffset dy="4"/>
<feGaussianBlur stdDeviation="2"/>
<feComposite in2="hardAlpha" operator="out"/>
<feColorMatrix type="matrix" values="0 0 0 0 0 0 0 0 0 0 0 0 0 0 0 0 0 0 0.25 0"/>
<feBlend mode="normal" in2="BackgroundImageFix" result="effect1_dropShadow_2_33"/>
<feBlend mode="normal" in="SourceGraphic" in2="effect1_dropShadow_2_33" result="shape"/>
</filter>
</defs>
</svg>
