<svg width="167" height="165" viewBox="0 0 167 165" fill="none" xmlns="http://www.w3.org/2000/svg">
<path d="M83.8008 0.503599V0.501458C129.307 0.766887 166.103 37.2425 166.103 82.1836C166.103 127.289 129.037 163.871 83.3008 163.871C37.5649 163.871 0.5 127.293 0.5 82.1872C0.5 37.0817 37.5661 0.503599 83.3008 0.503599H83.8008Z" fill="white" stroke="#2A44A9"/>
<path d="M83.3013 6.97205C125.404 6.97205 159.536 40.6514 159.536 82.1836C159.536 123.716 125.399 157.393 83.3013 157.393C41.2038 157.393 7.06738 123.713 7.06738 82.1836C7.06738 40.6538 41.205 6.97205 83.3013 6.97205ZM83.3013 9.65201C42.6981 9.65201 9.78383 42.1244 9.78383 82.1836C9.78383 122.243 42.6993 154.714 83.3013 154.714C123.903 154.714 156.82 122.24 156.82 82.1836C156.82 42.1268 123.904 9.65201 83.3013 9.65201Z" fill="#2A44A9"/>
<g clip-path="url(#clip0_2_63)" filter="url(#filter0_d_2_63)">
<path d="M67.9506 115.418C66.0328 114.305 63.7611 113.607 62.2714 112.014C61.1486 110.807 60.3301 109.301 59.8962 107.641C59.4623 105.982 59.428 104.227 59.7965 102.549C60.165 100.871 60.9238 99.3268 61.9983 98.0684C63.0728 96.81 64.4263 95.8805 65.9258 95.3711C68.5843 94.4656 69.6872 92.8901 69.5885 90.0469C69.4074 84.7952 71.3581 80.4942 74.1236 76.3562C77.7369 70.9234 81.1526 65.3909 84.4202 59.7317C87.0306 55.0868 90.7256 51.297 95.1201 48.7574C95.8536 48.2549 96.5475 47.6855 97.1943 47.0551H98.4289C98.2725 48.1688 98.3795 49.4365 97.9268 50.3782C91.2874 64.3285 84.6013 78.2547 77.8686 92.1567C77.2551 93.1557 76.7522 94.2318 76.3706 95.362C76.1484 96.349 76.066 97.7797 76.5517 98.504C77.5387 99.9228 78.1785 101.596 78.4101 103.365C78.6416 105.133 78.4571 106.937 77.8743 108.605C77.2914 110.272 76.3295 111.748 75.0807 112.89C73.8318 114.032 72.3376 114.803 70.7408 115.129C70.6338 115.129 70.5432 115.319 70.4445 115.418H67.9506ZM68.9959 111.796C70.656 111.811 72.2541 111.104 73.4426 109.828C74.631 108.553 75.3136 106.813 75.3418 104.987C75.3287 103.152 74.6536 101.399 73.465 100.111C72.2765 98.8243 70.6718 98.1093 69.0041 98.1237C67.3363 98.1381 65.7421 98.8808 64.5721 100.188C63.4021 101.496 62.7521 103.261 62.7652 105.096C62.8164 106.878 63.4946 108.569 64.6569 109.813C65.8192 111.056 67.3748 111.754 68.9959 111.76V111.796ZM78.5764 85.3023C78.5214 84.3904 78.1481 83.5373 77.5345 82.9213C76.9209 82.3053 76.1145 81.9742 75.2841 81.9973C74.4581 82.028 73.6766 82.4163 73.1094 83.0775C72.5422 83.7388 72.2352 84.6197 72.2552 85.5286C72.2825 86.446 72.6399 87.3138 73.2489 87.9413C73.8578 88.5687 74.6684 88.9044 75.5022 88.8743C76.3361 88.8443 77.125 88.4511 77.6953 87.7812C78.2657 87.1113 78.5708 86.2196 78.5435 85.3023H78.5764Z" fill="#2A44A9"/>
<path d="M122.685 95.4979C121.039 98.7394 120.907 98.7666 115.746 96.9376C114.775 101.61 112.256 102.696 108.643 100.08C105.516 104.869 105.516 104.869 101.17 103.475C100.157 104.879 99.3919 106.852 98.1079 107.45C96.8239 108.048 95.1448 107.124 93.2929 106.816C93.0479 107.575 92.692 108.284 92.2394 108.917C91.4822 109.75 90.4616 110.864 89.5726 110.846C89.0339 110.74 88.5245 110.5 88.0835 110.144C87.6425 109.787 87.2819 109.324 87.0294 108.79C85.0787 103.81 83.2103 98.7757 81.6465 93.6326C81.2761 92.4011 82.1815 90.6989 82.4695 89.2139L83.1115 89.2863C85.1939 95.0813 87.2845 100.876 89.408 106.789C90.478 105.313 91.2435 103.258 92.4452 102.868C93.6469 102.479 95.3424 103.72 96.8239 104.245C97.7375 102.714 98.3713 100.406 99.6388 99.8532C100.906 99.3008 102.799 100.523 104.388 100.958C105.285 99.491 105.935 97.2545 107.211 96.6569C108.487 96.0593 110.24 97.3269 111.968 97.8159C112.684 96.4305 113.162 94.2755 114.364 93.542C115.384 92.9082 117.228 93.8952 118.858 94.194C118.765 93.7139 118.649 93.2394 118.512 92.7724C114.396 81.2729 110.281 69.7825 106.166 58.2558C105.532 56.4449 104.808 56.146 103.26 56.9248C101.359 57.8302 99.359 58.5818 97.2931 59.442C98.1902 54.7245 101.548 53.7828 104.824 53.1037C106.742 52.6871 107.894 54.2989 108.586 56.2366C111.746 65.1464 114.931 74.0502 118.141 82.948C119.598 87.0045 121.129 91.0339 122.627 95.0723L122.685 95.4979Z" fill="#2A44A9"/>
<path d="M48.6084 73.7665C48.8471 73.0784 49.1187 72.3993 49.3327 71.7021C50.0093 69.5077 51.3318 67.6243 53.0909 66.35C54.85 65.0757 56.9453 64.4833 59.0449 64.6665C63.3085 65.0197 66.5678 68.388 67.5967 73.0603C67.9341 74.6267 68.9959 76.003 69.7284 77.4699L70.2305 77.2164C69.6132 78.3844 68.9218 79.5163 68.395 80.7296C67.8683 81.9429 67.572 83.111 67.144 84.3515C66.2633 83.9984 65.3332 83.3193 64.4361 83.3645C63.5389 83.4098 62.5512 84.1613 61.5965 84.5507C60.3927 85.049 59.1092 85.2716 57.8245 85.205C56.5398 85.1385 55.2809 84.7841 54.1251 84.1636C52.9692 83.543 51.9407 82.6695 51.1025 81.5963C50.2643 80.5232 49.6341 79.2731 49.2504 77.9226C49.0693 77.2888 48.8306 76.6821 48.6166 76.0574L48.6084 73.7665ZM58.263 68.1617C57.0481 68.192 55.8683 68.6161 54.8716 69.3809C53.8748 70.1457 53.1055 71.2171 52.6599 72.4609C52.2143 73.7047 52.1123 75.0655 52.3667 76.3727C52.6211 77.68 53.2207 78.8756 54.0901 79.8096C54.9595 80.7437 56.0602 81.3746 57.2542 81.6234C58.4483 81.8722 59.6825 81.7277 60.8021 81.2081C61.9218 80.6885 62.8772 79.8169 63.5486 78.7025C64.2199 77.5881 64.5773 76.2805 64.576 74.9436C64.5774 74.0388 64.4139 73.1428 64.0953 72.3086C63.7766 71.4744 63.3093 70.7189 62.7208 70.0867C62.1323 69.4545 61.4346 68.9584 60.669 68.6278C59.9034 68.2972 59.0853 68.1387 58.263 68.1617Z" fill="#2A44A9"/>
<path d="M96.2313 91.8126C97.4906 92.0752 98.3631 92.3378 99.2437 92.4283C100.179 92.6009 101.136 92.5671 102.059 92.3287C102.339 92.1103 102.563 91.8147 102.707 91.4716C102.852 91.1284 102.912 90.7496 102.882 90.3729C102.424 89.5312 101.714 88.891 100.873 88.562C99.7889 88.3323 98.6853 88.2291 97.5811 88.2541C96.8509 88.2367 96.1446 87.9642 95.5645 87.4758C94.9844 86.9874 94.5607 86.3086 94.3547 85.5377C94.1133 84.7851 94.0815 83.9703 94.2633 83.1977C94.4451 82.4251 94.8323 81.7297 95.3753 81.2005C95.9677 80.4634 96.5175 79.6862 97.0214 78.8734C98.5277 80.2588 101.557 78.8281 102.585 82.1241C101.696 83.0295 100.939 83.5185 99.7129 82.3504C99.3768 82.1481 99.0025 82.0346 98.6197 82.0189C98.2368 82.0032 97.8559 82.0857 97.5071 82.2599C97.2257 82.4839 97.002 82.7844 96.8577 83.1319C96.7135 83.4795 96.6536 83.8623 96.684 84.2429C96.8373 84.6327 97.0629 84.9831 97.3463 85.2716C97.6298 85.56 97.9649 85.7802 98.3301 85.918C99.4662 86.1854 100.625 86.316 101.787 86.3073C102.545 86.295 103.287 86.5529 103.901 87.0425C104.515 87.5321 104.969 88.2271 105.195 89.0238C105.48 89.8066 105.529 90.6699 105.333 91.4855C105.137 92.3011 104.708 93.0255 104.108 93.5511C103.56 94.2278 103.054 94.9448 102.594 95.6971C100.857 94.2031 97.5235 96.2313 96.2313 91.8126Z" fill="#2A44A9"/>
<path d="M104.536 68.5057L105.359 70.8509L91.7867 76.6278L90.8484 74.337L104.536 68.5057Z" fill="#2A44A9"/>
<path d="M102.157 61.9048L103.038 64.1685L98.4124 66.2421C97.3507 64.8929 97.0461 63.915 98.8816 63.2812C99.9187 62.919 100.915 62.43 102.157 61.9048Z" fill="#2A44A9"/>
<path d="M73.6627 71.1316C72.2223 67.7542 73.3993 65.7803 77.6793 64.6213L73.6627 71.1316Z" fill="#2A44A9"/>
</g>
<defs>
<filter id="filter0_d_2_63" x="44.6084" y="47.0551" width="82.0764" height="76.3632" filterUnits="userSpaceOnUse" color-interpolation-filters="sRGB">
<feFlood flood-opacity="0" result="BackgroundImageFix"/>
<feColorMatrix in="SourceAlpha" type="matrix" values="0 0 0 0 0 0 0 0 0 0 0 0 0 0 0 0 0 0 127 0" result="hardAlpha"/>
<feOffset dy="4"/>
<feGaussianBlur stdDeviation="2"/>
<feComposite in2="hardAlpha" operator="out"/>
<feColorMatrix type="matrix" values="0 0 0 0 0 0 0 0 0 0 0 0 0 0 0 0 0 0 0.25 0"/>
<feBlend mode="normal" in2="BackgroundImageFix" result="effect1_dropShadow_2_63"/>
<feBlend mode="normal" in="SourceGraphic" in2="effect1_dropShadow_2_63" result="shape"/>
</filter>
<clipPath id="clip0_2_63">
<rect width="74.0764" height="68.3631" fill="white" transform="translate(48.6084 47.0551)"/>
</clipPath>
</defs>
</svg>
