<svg width="532" height="100" viewBox="0 0 532 100" fill="none" xmlns="http://www.w3.org/2000/svg">
<path d="M0 25C0 11.1929 11.1929 0 25 0H507C520.807 0 532 11.1929 532 25V99.4192H0V25Z" fill="#BA8561"/>
<g clip-path="url(#clip0_116_416)">
<path d="M504.51 75.834H491.237V77.6518H504.884C505.74 77.6446 506.583 77.8753 507.331 78.3215C508.078 78.7676 508.705 79.414 509.15 80.1974C509.002 78.9909 508.449 77.8833 507.596 77.0806C506.742 76.278 505.646 75.835 504.51 75.834Z" fill="#3E2F16"/>
<path d="M494.013 58.4219H488.725C487.588 58.4208 486.49 58.863 485.634 59.6658C484.779 60.4686 484.226 61.5774 484.077 62.7853C484.524 62.0001 485.153 61.3529 485.904 60.9072C486.654 60.4614 487.5 60.2323 488.358 60.2425H494.021L494.013 58.4219Z" fill="#3E2F16"/>
<path d="M504.51 58.4219H495.712V60.2425H504.884C505.74 60.2347 506.583 60.4648 507.331 60.9105C508.078 61.3562 508.705 62.0022 509.15 62.7853C509.002 61.5788 508.449 60.4712 507.596 59.6685C506.742 58.8659 505.646 58.4228 504.51 58.4219Z" fill="#3E2F16"/>
<path d="M527.349 91.2816H511.676V93.1022H527.724C528.581 93.0934 529.425 93.3232 530.174 93.7689C530.923 94.2146 531.551 94.861 531.997 95.6449C531.849 94.4371 531.295 93.3283 530.44 92.5255C529.585 91.7226 528.486 91.2805 527.349 91.2816Z" fill="#3E2F16"/>
<path d="M527.349 64.7249H511.676V66.5427H527.724C528.58 66.5354 529.423 66.7662 530.17 67.2123C530.918 67.6585 531.545 68.3049 531.99 69.0883C531.841 67.8818 531.289 66.7742 530.435 65.9715C529.582 65.1689 528.485 64.7258 527.349 64.7249Z" fill="#3E2F16"/>
<path d="M527.349 73.8723H511.676V75.6901H527.724C528.58 75.6828 529.423 75.9136 530.17 76.3597C530.918 76.8059 531.545 77.4523 531.99 78.2357C531.841 77.0292 531.289 75.9216 530.435 75.1189C529.582 74.3163 528.485 73.8732 527.349 73.8723Z" fill="#3E2F16"/>
<path d="M527.349 82.5769H511.676V84.3948H527.724C528.58 84.3875 529.423 84.6182 530.17 85.0644C530.918 85.5105 531.545 86.1569 531.99 86.9403C531.841 85.7338 531.289 84.6262 530.435 83.8236C529.582 83.0209 528.485 82.5779 527.349 82.5769Z" fill="#3E2F16"/>
<path d="M519.19 69.2986H511.686V71.1192H519.19V69.2986Z" fill="#3E2F16"/>
<path d="M527.349 69.2985H520.894V71.1164H527.739C528.595 71.1091 529.438 71.3398 530.186 71.786C530.933 72.2322 531.56 72.8785 532.005 73.6619C531.856 72.4526 531.302 71.3428 530.445 70.5397C529.588 69.7367 528.488 69.2955 527.349 69.2985Z" fill="#3E2F16"/>
<path d="M513.958 78.2245H511.686V80.0452H513.958V78.2245Z" fill="#3E2F16"/>
<path d="M527.349 78.2246H515.644V80.0452H527.724C528.581 80.0359 529.425 80.2654 530.174 80.7112C530.924 81.1569 531.552 81.8036 531.997 82.5879C531.849 81.3801 531.295 80.2713 530.44 79.4685C529.585 78.6656 528.486 78.2235 527.349 78.2246Z" fill="#3E2F16"/>
<path d="M521.842 86.9292H511.686V88.7498H521.842V86.9292Z" fill="#3E2F16"/>
<path d="M527.349 86.9292H523.53V88.7499H527.724C528.581 88.7406 529.425 88.9701 530.174 89.4158C530.924 89.8616 531.552 90.5083 531.997 91.2926C531.849 90.0848 531.295 88.976 530.44 88.1732C529.585 87.3703 528.486 86.9282 527.349 86.9292Z" fill="#3E2F16"/>
<path d="M513.958 95.6366H511.686V97.4572H513.958V95.6366Z" fill="#3E2F16"/>
<path d="M527.349 95.6339H515.644V97.4545H527.724C528.58 97.4449 529.424 97.6734 530.173 98.1176C530.922 98.5618 531.55 99.2066 531.997 99.989C531.847 98.7826 531.293 97.6759 530.438 96.8747C529.583 96.0735 528.485 95.6326 527.349 95.6339Z" fill="#3E2F16"/>
<path d="M527.349 60.1457H516.615V61.9663H527.719C528.575 61.959 529.417 62.1898 530.165 62.6359C530.913 63.0821 531.54 63.7285 531.985 64.5119C531.837 63.3058 531.285 62.1983 530.433 61.3952C529.58 60.5921 528.485 60.1481 527.349 60.1457Z" fill="#3E2F16"/>
<path d="M514.927 60.1512H511.686V61.9718H514.927V60.1512Z" fill="#3E2F16"/>
<path d="M492.317 93.2433H488.725C487.588 93.2422 486.49 93.6844 485.634 94.4872C484.779 95.2901 484.226 96.3988 484.077 97.6067C484.522 96.8233 485.149 96.1769 485.896 95.7308C486.644 95.2846 487.487 95.0539 488.343 95.0611H492.309L492.317 93.2433Z" fill="#3E2F16"/>
<path d="M504.51 93.2433H494.013V95.0611H504.884C505.74 95.0539 506.583 95.2846 507.331 95.7308C508.078 96.1769 508.705 96.8233 509.15 97.6067C509.002 96.4002 508.449 95.2926 507.596 94.49C506.742 93.6873 505.646 93.2443 504.51 93.2433Z" fill="#3E2F16"/>
<path d="M498.651 84.5386H488.725C487.588 84.5376 486.49 84.9797 485.634 85.7826C484.779 86.5854 484.226 87.6942 484.077 88.902C484.522 88.1186 485.149 87.4723 485.896 87.0261C486.644 86.5799 487.487 86.3492 488.343 86.3565H498.643L498.651 84.5386Z" fill="#3E2F16"/>
<path d="M504.51 84.5386H500.347V86.3565H504.884C505.74 86.3492 506.583 86.5799 507.331 87.0261C508.078 87.4723 508.705 88.1186 509.15 88.902C509.002 87.6956 508.449 86.588 507.596 85.7853C506.742 84.9827 505.646 84.5396 504.51 84.5386Z" fill="#3E2F16"/>
<path d="M504.51 67.1265H501.979V68.9471H504.884C505.74 68.9399 506.583 69.1703 507.33 69.6159C508.078 70.0616 508.705 70.7072 509.15 71.4899C509.002 70.2835 508.449 69.1759 507.596 68.3732C506.742 67.5705 505.646 67.1275 504.51 67.1265Z" fill="#3E2F16"/>
<path d="M500.28 67.1265H488.725C487.588 67.1255 486.49 67.5676 485.634 68.3705C484.779 69.1733 484.226 70.2821 484.077 71.4899C484.524 70.7048 485.153 70.0576 485.904 69.6118C486.654 69.166 487.5 68.937 488.358 68.9472H500.288L500.28 67.1265Z" fill="#3E2F16"/>
<path d="M504.51 49.4958H491.101V51.3165H504.884C505.74 51.3086 506.583 51.5388 507.33 51.9845C508.078 52.4302 508.705 53.0762 509.15 53.8593C509.002 52.6528 508.449 51.5452 507.596 50.7425C506.742 49.9399 505.646 49.4968 504.51 49.4958Z" fill="#3E2F16"/>
<path d="M497.801 44.9277H488.725C487.588 44.9267 486.49 45.3688 485.634 46.1717C484.779 46.9745 484.226 48.0833 484.077 49.2911C484.522 48.5077 485.149 47.8614 485.896 47.4152C486.644 46.969 487.487 46.7383 488.343 46.7456H497.794L497.801 44.9277Z" fill="#3E2F16"/>
<path d="M504.51 44.9277H499.501V46.7456H504.884C505.74 46.7383 506.583 46.969 507.331 47.4152C508.078 47.8614 508.705 48.5077 509.15 49.2911C509.002 48.0847 508.449 46.9771 507.596 46.1744C506.742 45.3717 505.646 44.9287 504.51 44.9277Z" fill="#3E2F16"/>
<path d="M527.349 95.6339H526.833V97.4545H527.737C528.591 97.4473 529.432 97.6769 530.178 98.121C530.925 98.5651 531.552 99.2086 531.997 99.989C531.847 98.7826 531.293 97.6759 530.438 96.8747C529.583 96.0735 528.485 95.6326 527.349 95.6339Z" fill="#3E2F16"/>
<path d="M488.358 90.7088H504.884C505.74 90.7015 506.583 90.9323 507.331 91.3784C508.078 91.8246 508.705 92.471 509.15 93.2544C509.002 92.0465 508.448 90.9377 507.593 90.1349C506.738 89.332 505.639 88.8899 504.502 88.891H488.717C487.58 88.8899 486.482 89.332 485.627 90.1349C484.771 90.9377 484.218 92.0465 484.069 93.2544C484.516 92.4673 485.147 91.8186 485.899 91.3722C486.651 90.9259 487.499 90.6972 488.358 90.7088Z" fill="#3E2F16"/>
<path d="M488.358 82.0042H504.884C505.74 81.9969 506.583 82.2276 507.331 82.6738C508.078 83.1199 508.705 83.7663 509.15 84.5497C509.002 83.3413 508.449 82.2319 507.594 81.4285C506.738 80.6251 505.64 80.1826 504.502 80.1835H488.717C487.58 80.1826 486.481 80.6251 485.626 81.4285C484.771 82.2319 484.217 83.3413 484.069 84.5497C484.516 83.7627 485.147 83.114 485.899 82.6676C486.651 82.2212 487.499 81.9926 488.358 82.0042Z" fill="#3E2F16"/>
<path d="M488.358 73.2995H504.884C505.74 73.2922 506.583 73.5226 507.33 73.9683C508.078 74.4139 508.705 75.0596 509.15 75.8423C509.002 74.6344 508.448 73.5257 507.593 72.7228C506.738 71.92 505.639 71.4778 504.502 71.4789H488.717C487.58 71.4778 486.482 71.92 485.627 72.7228C484.771 73.5257 484.218 74.6344 484.069 75.8423C484.517 75.0559 485.147 74.4079 485.899 73.9621C486.652 73.5162 487.499 73.2879 488.358 73.2995Z" fill="#3E2F16"/>
<path d="M488.358 64.5949H504.884C505.74 64.5876 506.583 64.818 507.33 65.2636C508.078 65.7093 508.705 66.3549 509.15 67.1376C509.002 65.9298 508.448 64.821 507.593 64.0182C506.738 63.2153 505.639 62.7732 504.502 62.7742H488.717C487.58 62.7732 486.482 63.2153 485.627 64.0182C484.771 64.821 484.218 65.9298 484.069 67.1376C484.517 66.3513 485.147 65.7033 485.899 65.2574C486.652 64.8116 487.499 64.5832 488.358 64.5949Z" fill="#3E2F16"/>
<path d="M488.358 55.8874H504.884C505.74 55.8801 506.583 56.1108 507.331 56.557C508.078 57.0032 508.705 57.6495 509.15 58.4329C509.002 57.225 508.448 56.1163 507.593 55.3135C506.738 54.5106 505.639 54.0685 504.502 54.0695H488.717C487.58 54.0685 486.482 54.5106 485.627 55.3135C484.771 56.1163 484.218 57.225 484.069 58.4329C484.516 57.6459 485.147 56.9972 485.899 56.5508C486.651 56.1044 487.499 55.8758 488.358 55.8874Z" fill="#3E2F16"/>
<path d="M488.358 42.1608H504.884C505.74 42.1535 506.583 42.3843 507.331 42.8304C508.078 43.2766 508.705 43.923 509.15 44.7064C509.002 43.4985 508.448 42.3897 507.593 41.5869C506.738 40.7841 505.639 40.3419 504.502 40.343H488.717C487.58 40.3419 486.482 40.7841 485.627 41.5869C484.771 42.3897 484.218 43.4985 484.069 44.7064C484.516 43.9193 485.147 43.2706 485.899 42.8242C486.651 42.3779 487.499 42.1492 488.358 42.1608Z" fill="#3E2F16"/>
<path d="M504.51 75.834H503.981V77.6518H504.884C505.74 77.6446 506.583 77.8753 507.331 78.3215C508.078 78.7676 508.705 79.414 509.15 80.1974C509.002 78.9909 508.449 77.8833 507.596 77.0806C506.742 76.278 505.646 75.835 504.51 75.834Z" fill="#3E2F16"/>
<path d="M504.51 40.3485H503.981V42.1608H504.884C505.74 42.1536 506.583 42.3843 507.331 42.8304C508.078 43.2766 508.705 43.923 509.15 44.7064C509.001 43.5009 508.448 42.3946 507.594 41.5931C506.741 40.7916 505.645 40.3493 504.51 40.3485Z" fill="#3E2F16"/>
<path d="M504.51 80.1835H503.981V82.0042H504.884C505.74 81.9969 506.583 82.2276 507.331 82.6738C508.078 83.1199 508.705 83.7663 509.15 84.5497C509.002 83.3427 508.45 82.2345 507.597 81.4313C506.743 80.628 505.646 80.1846 504.51 80.1835Z" fill="#3E2F16"/>
<path d="M509.15 93.2544C509.002 92.0465 508.448 90.9377 507.593 90.1349C506.738 89.332 505.639 88.8899 504.502 88.891H503.973V90.7088H504.877C505.734 90.7001 506.578 90.9301 507.327 91.3764C508.077 91.8226 508.705 92.4697 509.15 93.2544Z" fill="#3E2F16"/>
<path d="M504.51 84.5386H503.981V86.3565H504.884C505.74 86.3492 506.583 86.5799 507.331 87.0261C508.078 87.4723 508.705 88.1186 509.15 88.902C509.002 87.6956 508.449 86.588 507.596 85.7853C506.742 84.9827 505.646 84.5396 504.51 84.5386Z" fill="#3E2F16"/>
<path d="M504.51 67.1265H503.981V68.9471H504.884C505.74 68.9399 506.583 69.1703 507.33 69.6159C508.078 70.0616 508.705 70.7072 509.15 71.4899C509.002 70.2835 508.449 69.1759 507.596 68.3732C506.742 67.5705 505.646 67.1275 504.51 67.1265Z" fill="#3E2F16"/>
<path d="M504.51 71.4899H503.981V73.3106H504.884C505.74 73.3033 506.583 73.5337 507.33 73.9793C508.078 74.425 508.705 75.0706 509.15 75.8533C509.002 74.6469 508.449 73.5393 507.596 72.7366C506.742 71.9339 505.646 71.4909 504.51 71.4899Z" fill="#3E2F16"/>
<path d="M504.51 49.4958H503.981V51.3165H504.884C505.74 51.3086 506.583 51.5388 507.331 51.9845C508.078 52.4302 508.705 53.0762 509.15 53.8593C509.002 52.6528 508.449 51.5452 507.596 50.7425C506.742 49.9399 505.646 49.4968 504.51 49.4958Z" fill="#3E2F16"/>
<path d="M504.51 44.9277H503.981V46.7456H504.884C505.74 46.7383 506.583 46.969 507.331 47.4152C508.078 47.8614 508.705 48.5077 509.15 49.2911C509.002 48.0847 508.449 46.9771 507.596 46.1744C506.742 45.3717 505.646 44.9287 504.51 44.9277Z" fill="#3E2F16"/>
<path d="M509.15 97.6067C509.002 96.3988 508.448 95.2901 507.593 94.4872C506.738 93.6844 505.639 93.2422 504.502 93.2433H503.973V95.0611H504.877C505.734 95.0524 506.578 95.2825 507.327 95.7287C508.077 96.1749 508.705 96.8221 509.15 97.6067Z" fill="#3E2F16"/>
<path d="M504.51 62.7742H503.981V64.5949H504.884C505.74 64.5876 506.583 64.818 507.33 65.2636C508.078 65.7093 508.705 66.3549 509.15 67.1376C509.002 65.9312 508.449 64.8236 507.596 64.0209C506.742 63.2182 505.646 62.7752 504.51 62.7742Z" fill="#3E2F16"/>
<path d="M504.51 58.4219H503.981V60.2425H504.884C505.74 60.2347 506.583 60.4648 507.331 60.9105C508.078 61.3562 508.705 62.0022 509.15 62.7853C509.002 61.5788 508.449 60.4712 507.596 59.6685C506.742 58.8659 505.646 58.4228 504.51 58.4219Z" fill="#3E2F16"/>
<path d="M504.51 54.0585H503.981V55.8763H504.884C505.74 55.8691 506.583 56.0998 507.331 56.5459C508.078 56.9921 508.705 57.6385 509.15 58.4219C509.002 57.2154 508.449 56.1078 507.596 55.3051C506.742 54.5025 505.646 54.0594 504.51 54.0585Z" fill="#3E2F16"/>
<path d="M488.725 75.834H489.254V77.6518H488.358C487.503 77.6446 486.66 77.8753 485.912 78.3215C485.164 78.7676 484.537 79.414 484.093 80.1974C484.241 78.9923 484.792 77.8859 485.644 77.0834C486.496 76.2809 487.591 75.837 488.725 75.834Z" fill="#3E2F16"/>
<path d="M488.725 40.3485H489.254V42.1608H488.358C487.503 42.1536 486.66 42.3843 485.912 42.8304C485.164 43.2766 484.537 43.923 484.093 44.7064C484.242 43.5023 484.794 42.3972 485.645 41.5958C486.497 40.7945 487.591 40.3513 488.725 40.3485Z" fill="#3E2F16"/>
<path d="M488.725 80.1835H489.254V82.0042H488.358C487.503 81.9969 486.66 82.2276 485.912 82.6738C485.164 83.1199 484.537 83.7663 484.093 84.5497C484.24 83.3442 484.791 82.237 485.643 81.434C486.495 80.6309 487.59 80.1866 488.725 80.1835Z" fill="#3E2F16"/>
<path d="M484.085 93.2544C484.233 92.0465 484.787 90.9377 485.642 90.1349C486.497 89.332 487.596 88.8899 488.733 88.891H489.262V90.7088H488.358C487.501 90.7001 486.657 90.9301 485.908 91.3764C485.158 91.8226 484.53 92.4697 484.085 93.2544Z" fill="#3E2F16"/>
<path d="M488.725 84.5386H489.254V86.3565H488.358C487.503 86.3492 486.66 86.5799 485.912 87.0261C485.164 87.4723 484.537 88.1186 484.093 88.902C484.241 87.697 484.792 86.5905 485.644 85.788C486.496 84.9856 487.591 84.5416 488.725 84.5386Z" fill="#3E2F16"/>
<path d="M488.725 67.1265H489.254V68.9471H488.358C487.502 68.9384 486.657 69.1681 485.908 69.6139C485.159 70.0596 484.531 70.706 484.085 71.4899C484.233 70.2835 484.786 69.1759 485.639 68.3732C486.493 67.5705 487.589 67.1275 488.725 67.1265Z" fill="#3E2F16"/>
<path d="M488.725 71.4899H489.254V73.3106H488.358C487.503 73.3033 486.66 73.5337 485.913 73.9793C485.165 74.425 484.538 75.0706 484.093 75.8533C484.241 74.6483 484.792 73.5418 485.644 72.7393C486.496 71.9368 487.591 71.4929 488.725 71.4899Z" fill="#3E2F16"/>
<path d="M488.725 49.4958H489.254V51.3165H488.358C487.503 51.3086 486.66 51.5388 485.912 51.9845C485.165 52.4302 484.538 53.0762 484.093 53.8593C484.241 52.6542 484.792 51.5477 485.644 50.7452C486.496 49.9428 487.591 49.4988 488.725 49.4958Z" fill="#3E2F16"/>
<path d="M488.725 44.9277H489.254V46.7456H488.358C487.503 46.7383 486.66 46.969 485.912 47.4152C485.164 47.8614 484.537 48.5077 484.093 49.2911C484.241 48.0861 484.792 46.9796 485.644 46.1771C486.496 45.3747 487.591 44.9307 488.725 44.9277Z" fill="#3E2F16"/>
<path d="M484.085 97.6067C484.233 96.3988 484.787 95.2901 485.642 94.4872C486.497 93.6844 487.596 93.2422 488.733 93.2433H489.262V95.0611H488.358C487.501 95.0524 486.657 95.2825 485.908 95.7287C485.158 96.1749 484.53 96.8221 484.085 97.6067Z" fill="#3E2F16"/>
<path d="M488.725 62.7742H489.254V64.5949H488.358C487.503 64.5876 486.66 64.818 485.913 65.2636C485.165 65.7093 484.538 66.3549 484.093 67.1376C484.241 65.9326 484.792 64.8261 485.644 64.0236C486.496 63.2212 487.591 62.7772 488.725 62.7742Z" fill="#3E2F16"/>
<path d="M488.725 58.4219H489.254V60.2425H488.358C487.503 60.2347 486.66 60.4648 485.912 60.9105C485.165 61.3562 484.538 62.0022 484.093 62.7853C484.241 61.5802 484.792 60.4737 485.644 59.6713C486.496 58.8688 487.591 58.4249 488.725 58.4219Z" fill="#3E2F16"/>
<path d="M488.725 54.0585H489.254V55.8763H488.358C487.503 55.8691 486.66 56.0998 485.912 56.5459C485.164 56.9921 484.537 57.6385 484.093 58.4219C484.241 57.2168 484.792 56.1103 485.644 55.3079C486.496 54.5054 487.591 54.0615 488.725 54.0585Z" fill="#3E2F16"/>
<path d="M527.349 60.1456H526.833V61.9663H527.737C528.593 61.959 529.435 62.1897 530.183 62.6359C530.931 63.0821 531.558 63.7284 532.003 64.5118C531.854 63.3025 531.301 62.1923 530.444 61.3888C529.588 60.5853 528.488 60.1433 527.349 60.1456Z" fill="#3E2F16"/>
<path d="M527.349 86.9292H526.833V88.7499H527.737C528.592 88.743 529.433 88.9736 530.18 89.4193C530.927 89.8649 531.553 90.5104 531.997 91.2926C531.849 90.0848 531.295 88.976 530.44 88.1732C529.585 87.3703 528.486 86.9282 527.349 86.9292Z" fill="#3E2F16"/>
<path d="M527.349 91.2816H526.833V93.1022H527.737C528.591 93.0958 529.433 93.3267 530.18 93.7723C530.926 94.2179 531.553 94.8631 531.997 95.6449C531.849 94.4371 531.295 93.3283 530.44 92.5255C529.585 91.7226 528.486 91.2805 527.349 91.2816Z" fill="#3E2F16"/>
<path d="M527.349 69.2985H526.833V71.1164H527.737C528.593 71.1091 529.435 71.3398 530.183 71.786C530.931 72.2322 531.558 72.8785 532.003 73.6619C531.854 72.4531 531.3 71.3436 530.443 70.5406C529.587 69.7377 528.487 69.2961 527.349 69.2985Z" fill="#3E2F16"/>
<path d="M527.349 64.7249H526.833V66.5427H527.737C528.593 66.5354 529.435 66.7662 530.183 67.2123C530.931 67.6585 531.558 68.3049 532.003 69.0883C531.854 67.8794 531.3 66.7699 530.443 65.967C529.587 65.164 528.487 64.7225 527.349 64.7249Z" fill="#3E2F16"/>
<path d="M527.349 82.5769H526.833V84.3947H527.737C528.593 84.3875 529.435 84.6182 530.183 85.0644C530.931 85.5105 531.558 86.1569 532.003 86.9403C531.854 85.7315 531.3 84.622 530.443 83.819C529.587 83.016 528.487 82.5745 527.349 82.5769Z" fill="#3E2F16"/>
<path d="M527.349 78.2246H526.833V80.0452H527.737C528.592 80.0383 529.433 80.2689 530.18 80.7146C530.927 81.1602 531.553 81.8057 531.997 82.5879C531.849 81.3801 531.295 80.2713 530.44 79.4685C529.585 78.6656 528.486 78.2235 527.349 78.2246Z" fill="#3E2F16"/>
<path d="M527.349 73.8722H526.833V75.6901H527.737C528.593 75.6828 529.435 75.9135 530.183 76.3597C530.931 76.8058 531.558 77.4522 532.003 78.2356C531.854 77.0268 531.3 75.9173 530.443 75.1143C529.587 74.3113 528.487 73.8698 527.349 73.8722Z" fill="#3E2F16"/>
<path d="M481.312 70.6737H465.263C464.408 70.6661 463.565 70.8967 462.818 71.3429C462.07 71.7892 461.444 72.4357 461 73.2192C461.147 72.0109 461.701 70.9015 462.556 70.0984C463.412 69.2953 464.511 68.8536 465.648 68.8558H481.322L481.312 70.6737Z" fill="#3E2F16"/>
<path d="M465.635 82.5769H481.309V84.3948H465.261C464.405 84.3872 463.562 84.6177 462.815 85.064C462.068 85.5102 461.441 86.1568 460.997 86.9403C461.145 85.7338 461.696 84.6259 462.55 83.8231C463.403 83.0203 464.499 82.5774 465.635 82.5769Z" fill="#3E2F16"/>
<path d="M465.635 91.2816H481.309V93.1022H465.261C464.405 93.0945 463.563 93.3248 462.816 93.7705C462.068 94.2162 461.442 94.8621 460.997 95.6449C461.145 94.4387 461.697 93.3312 462.55 92.5285C463.403 91.7257 464.5 91.2826 465.635 91.2816Z" fill="#3E2F16"/>
<path d="M481.314 78.0032H478.079V79.8239H481.314V78.0032Z" fill="#3E2F16"/>
<path d="M465.635 78.0032H476.374V79.8239H465.271C464.416 79.8157 463.573 80.0458 462.826 80.4915C462.078 80.9373 461.452 81.5834 461.008 82.3666C461.155 81.1621 461.705 80.0557 462.556 79.2531C463.407 78.4505 464.501 78.0064 465.635 78.0032Z" fill="#3E2F16"/>
<path d="M481.314 73.4295H472.005V75.2501H481.314V73.4295Z" fill="#3E2F16"/>
<path d="M465.635 73.4268H470.304V75.2446H465.261C464.405 75.237 463.562 75.4676 462.815 75.9138C462.068 76.36 461.441 77.0066 460.997 77.7902C461.145 76.5837 461.696 75.4758 462.55 74.673C463.403 73.8701 464.499 73.4272 465.635 73.4268Z" fill="#3E2F16"/>
<path d="M481.314 86.9292H472.005V88.7498H481.314V86.9292Z" fill="#3E2F16"/>
<path d="M465.635 86.9292H470.304V88.7499H465.261C464.405 88.7417 463.563 88.9717 462.815 89.4175C462.068 89.8632 461.442 90.5094 460.997 91.2926C461.145 90.0864 461.697 88.9788 462.55 88.1761C463.403 87.3734 464.5 86.9303 465.635 86.9292Z" fill="#3E2F16"/>
<path d="M481.314 95.6366H478.079V97.4572H481.314V95.6366Z" fill="#3E2F16"/>
<path d="M465.635 95.6339H476.374V97.4545H465.271C464.415 97.4446 463.572 97.6729 462.823 98.1172C462.074 98.5615 461.446 99.2064 461 99.989C461.149 98.7847 461.702 97.6795 462.554 96.8786C463.407 96.0776 464.501 95.6353 465.635 95.6339Z" fill="#3E2F16"/>
<path d="M465.635 68.8558H466.151V70.6737H465.248C464.392 70.6661 463.55 70.8967 462.802 71.3429C462.055 71.7892 461.429 72.4357 460.985 73.2193C461.132 72.0104 461.686 70.9006 462.542 70.0975C463.398 69.2944 464.497 68.853 465.635 68.8558Z" fill="#3E2F16"/>
<path d="M465.635 95.6339H466.151V97.4545H465.248C464.396 97.4489 463.557 97.6793 462.813 98.1234C462.069 98.5674 461.444 99.2101 461 99.989C461.149 98.7847 461.702 97.6795 462.554 96.8786C463.407 96.0776 464.501 95.6353 465.635 95.6339Z" fill="#3E2F16"/>
<path d="M465.635 78.0032H466.151V79.8238H465.248C464.392 79.8156 463.55 80.0457 462.802 80.4915C462.055 80.9372 461.429 81.5834 460.985 82.3666C461.132 81.1578 461.686 80.048 462.542 79.2448C463.398 78.4417 464.497 78.0003 465.635 78.0032Z" fill="#3E2F16"/>
<path d="M465.635 73.4268H466.151V75.2446H465.248C464.392 75.237 463.55 75.4676 462.802 75.9138C462.055 76.3601 461.429 77.0066 460.985 77.7902C461.132 76.5813 461.686 75.4715 462.542 74.6684C463.398 73.8653 464.497 73.4239 465.635 73.4268Z" fill="#3E2F16"/>
<path d="M465.635 91.2816H466.151V93.1022H465.248C464.393 93.0946 463.55 93.3249 462.803 93.7706C462.056 94.2163 461.429 94.8621 460.985 95.6449C461.133 94.4364 461.686 93.3269 462.542 92.5239C463.398 91.7209 464.497 91.2793 465.635 91.2816Z" fill="#3E2F16"/>
<path d="M465.635 86.9292H466.151V88.7498H465.248C464.392 88.7417 463.55 88.9717 462.802 89.4175C462.055 89.8632 461.429 90.5094 460.985 91.2926C461.133 90.084 461.686 88.9746 462.542 88.1715C463.398 87.3685 464.497 86.9269 465.635 86.9292Z" fill="#3E2F16"/>
<path d="M465.635 82.5769H466.151V84.3947H465.248C464.392 84.3871 463.55 84.6177 462.802 85.064C462.055 85.5102 461.429 86.1567 460.985 86.9403C461.132 85.7315 461.686 84.6217 462.542 83.8185C463.398 83.0154 464.497 82.574 465.635 82.5769Z" fill="#3E2F16"/>
</g>
<path d="M47.992 41.9398C47.992 43.3558 47.032 44.1478 45.4 44.1478H42.016V39.6358H45.328C46.96 39.6358 47.992 40.4998 47.992 41.9398ZM47.584 34.9558C47.584 36.3238 46.672 37.0438 45.088 37.0438H42.016V32.8438H45.088C46.672 32.8438 47.584 33.6118 47.584 34.9558ZM51.4 42.3478C51.4 40.3798 50.056 38.6278 48.16 38.2918C49.792 37.7638 51.016 36.4918 51.016 34.4518C51.016 31.9558 49.072 30.1318 45.568 30.1318H38.656V46.8838H45.88C49.36 46.8838 51.4 45.0118 51.4 42.3478ZM57.4379 40.2598C57.4379 37.6918 58.6379 36.9238 60.6299 36.9238H61.5179V33.3958C59.6699 33.3958 58.2779 34.2838 57.4379 35.6518V33.5878H54.0779V46.8838H57.4379V40.2598ZM76.621 40.2358C76.621 36.0358 73.621 33.3718 69.781 33.3718C65.941 33.3718 62.941 36.0358 62.941 40.2358C62.941 44.4118 65.845 47.0998 69.685 47.0998C73.549 47.0998 76.621 44.4118 76.621 40.2358ZM66.349 40.2358C66.349 37.5718 67.957 36.2998 69.733 36.2998C71.509 36.2998 73.165 37.5718 73.165 40.2358C73.165 42.8758 71.461 44.1718 69.685 44.1718C67.885 44.1718 66.349 42.8758 66.349 40.2358ZM88.3977 46.8838H91.7577V39.0838C91.7577 35.4118 89.5497 33.3958 86.4537 33.3958C84.7497 33.3958 83.3097 34.1158 82.4457 35.2438V33.5878H79.0857V46.8838H82.4457V39.5398C82.4457 37.4038 83.6217 36.2518 85.4457 36.2518C87.2217 36.2518 88.3977 37.4038 88.3977 39.5398V46.8838ZM103.881 33.5878H94.2329V36.3478H100.017L94.2089 44.1718V46.8838H103.953V44.1238H98.0249L103.881 36.2998V33.5878ZM112.266 36.1318C113.994 36.1318 115.386 37.2358 115.434 38.9878H109.122C109.386 37.1638 110.658 36.1318 112.266 36.1318ZM118.578 42.7078H114.954C114.522 43.5958 113.73 44.3158 112.29 44.3158C110.61 44.3158 109.266 43.2118 109.098 41.2438H118.818C118.89 40.8118 118.914 40.3798 118.914 39.9478C118.914 35.9878 116.202 33.3718 112.362 33.3718C108.426 33.3718 105.69 36.0358 105.69 40.2358C105.69 44.4118 108.498 47.0998 112.362 47.0998C115.65 47.0998 117.858 45.1558 118.578 42.7078Z" fill="#30230E"/>
<path d="M38.716 80V64.49H41.554V80H38.716ZM44.748 80V71.662C44.748 71.2073 44.7333 70.7453 44.704 70.276C44.6746 69.8067 44.6306 69.3447 44.572 68.89H47.234L47.454 71.09H47.19C47.542 70.3127 48.0626 69.7187 48.752 69.308C49.4413 68.8827 50.2406 68.67 51.15 68.67C52.4553 68.67 53.438 69.0367 54.098 69.77C54.758 70.5033 55.088 71.6473 55.088 73.202V80H52.338V73.334C52.338 72.4393 52.162 71.8013 51.81 71.42C51.4726 71.024 50.9593 70.826 50.27 70.826C49.4193 70.826 48.7446 71.09 48.246 71.618C47.7473 72.146 47.498 72.85 47.498 73.73V80H44.748ZM61.1524 80L56.3564 68.89H59.2824L62.7584 77.58H62.0764L65.6404 68.89H68.3904L63.5724 80H61.1524ZM75.0163 80.22C73.1537 80.22 71.6943 79.7067 70.6383 78.68C69.5823 77.6533 69.0543 76.2453 69.0543 74.456C69.0543 73.2973 69.2817 72.2853 69.7363 71.42C70.191 70.5547 70.8217 69.88 71.6283 69.396C72.4497 68.912 73.403 68.67 74.4883 68.67C75.559 68.67 76.4537 68.8973 77.1723 69.352C77.891 69.8067 78.4337 70.4447 78.8003 71.266C79.1817 72.0873 79.3723 73.048 79.3723 74.148V74.874H71.2763V73.422H77.4143L77.0403 73.73C77.0403 72.7033 76.8203 71.9187 76.3803 71.376C75.955 70.8333 75.3317 70.562 74.5103 70.562C73.601 70.562 72.897 70.8847 72.3983 71.53C71.9143 72.1753 71.6723 73.0773 71.6723 74.236V74.522C71.6723 75.7247 71.9657 76.6267 72.5523 77.228C73.1537 77.8147 73.997 78.108 75.0823 78.108C75.713 78.108 76.2997 78.0273 76.8423 77.866C77.3997 77.69 77.9277 77.4113 78.4263 77.03L79.2403 78.878C78.7123 79.3033 78.0817 79.6333 77.3483 79.868C76.615 80.1027 75.8377 80.22 75.0163 80.22ZM85.6611 80.22C84.7077 80.22 83.8277 80.11 83.0211 79.89C82.2291 79.6553 81.5617 79.3327 81.0191 78.922L81.7891 77.074C82.3464 77.4553 82.9624 77.7487 83.6371 77.954C84.3117 78.1593 84.9937 78.262 85.6831 78.262C86.4164 78.262 86.9591 78.1373 87.3111 77.888C87.6777 77.6387 87.8611 77.3013 87.8611 76.876C87.8611 76.5387 87.7437 76.2747 87.5091 76.084C87.2891 75.8787 86.9297 75.7247 86.4311 75.622L84.2311 75.204C83.2924 74.9987 82.5737 74.6467 82.0751 74.148C81.5911 73.6493 81.3491 72.9967 81.3491 72.19C81.3491 71.5007 81.5324 70.892 81.8991 70.364C82.2804 69.836 82.8157 69.4253 83.5051 69.132C84.2091 68.824 85.0304 68.67 85.9691 68.67C86.7904 68.67 87.5604 68.78 88.2791 69C89.0124 69.22 89.6284 69.55 90.1271 69.99L89.3351 71.772C88.8804 71.4053 88.3597 71.1193 87.7731 70.914C87.1864 70.7087 86.6144 70.606 86.0571 70.606C85.2944 70.606 84.7371 70.7453 84.3851 71.024C84.0331 71.288 83.8571 71.6327 83.8571 72.058C83.8571 72.3807 83.9597 72.652 84.1651 72.872C84.3851 73.0773 84.7224 73.2313 85.1771 73.334L87.3771 73.752C88.3597 73.9427 89.1004 74.28 89.5991 74.764C90.1124 75.2333 90.3691 75.8787 90.3691 76.7C90.3691 77.4333 90.1711 78.064 89.7751 78.592C89.3791 79.12 88.8291 79.5233 88.1251 79.802C87.4211 80.0807 86.5997 80.22 85.6611 80.22ZM97.3671 80.22C96.0471 80.22 95.0498 79.8753 94.3751 79.186C93.7005 78.4967 93.3631 77.4627 93.3631 76.084V70.958H91.2291V68.89H93.3631V66.052L96.1131 65.348V68.89H99.0831V70.958H96.1131V75.908C96.1131 76.6707 96.2598 77.206 96.5531 77.514C96.8465 77.822 97.2498 77.976 97.7631 77.976C98.0418 77.976 98.2765 77.954 98.4671 77.91C98.6725 77.866 98.8705 77.8073 99.0611 77.734V79.912C98.8118 80.0147 98.5331 80.088 98.2251 80.132C97.9318 80.1907 97.6458 80.22 97.3671 80.22ZM100.951 80V71.662C100.951 71.2073 100.936 70.7453 100.907 70.276C100.878 69.8067 100.834 69.3447 100.775 68.89H103.437L103.657 71.09H103.393C103.701 70.3273 104.17 69.7333 104.801 69.308C105.446 68.8827 106.209 68.67 107.089 68.67C107.969 68.67 108.695 68.8827 109.267 69.308C109.854 69.7187 110.264 70.364 110.499 71.244H110.147C110.455 70.452 110.961 69.8287 111.665 69.374C112.369 68.9047 113.176 68.67 114.085 68.67C115.332 68.67 116.263 69.0367 116.879 69.77C117.495 70.5033 117.803 71.6473 117.803 73.202V80H115.053V73.312C115.053 72.432 114.906 71.8013 114.613 71.42C114.32 71.024 113.85 70.826 113.205 70.826C112.442 70.826 111.841 71.0973 111.401 71.64C110.961 72.168 110.741 72.8867 110.741 73.796V80H107.991V73.312C107.991 72.432 107.844 71.8013 107.551 71.42C107.258 71.024 106.788 70.826 106.143 70.826C105.38 70.826 104.779 71.0973 104.339 71.64C103.914 72.168 103.701 72.8867 103.701 73.796V80H100.951ZM126.106 80.22C124.244 80.22 122.784 79.7067 121.728 78.68C120.672 77.6533 120.144 76.2453 120.144 74.456C120.144 73.2973 120.372 72.2853 120.826 71.42C121.281 70.5547 121.912 69.88 122.718 69.396C123.54 68.912 124.493 68.67 125.578 68.67C126.649 68.67 127.544 68.8973 128.262 69.352C128.981 69.8067 129.524 70.4447 129.89 71.266C130.272 72.0873 130.462 73.048 130.462 74.148V74.874H122.366V73.422H128.504L128.13 73.73C128.13 72.7033 127.91 71.9187 127.47 71.376C127.045 70.8333 126.422 70.562 125.6 70.562C124.691 70.562 123.987 70.8847 123.488 71.53C123.004 72.1753 122.762 73.0773 122.762 74.236V74.522C122.762 75.7247 123.056 76.6267 123.642 77.228C124.244 77.8147 125.087 78.108 126.172 78.108C126.803 78.108 127.39 78.0273 127.932 77.866C128.49 77.69 129.018 77.4113 129.516 77.03L130.33 78.878C129.802 79.3033 129.172 79.6333 128.438 79.868C127.705 80.1027 126.928 80.22 126.106 80.22ZM132.791 80V71.662C132.791 71.2073 132.776 70.7453 132.747 70.276C132.718 69.8067 132.674 69.3447 132.615 68.89H135.277L135.497 71.09H135.233C135.585 70.3127 136.106 69.7187 136.795 69.308C137.484 68.8827 138.284 68.67 139.193 68.67C140.498 68.67 141.481 69.0367 142.141 69.77C142.801 70.5033 143.131 71.6473 143.131 73.202V80H140.381V73.334C140.381 72.4393 140.205 71.8013 139.853 71.42C139.516 71.024 139.002 70.826 138.313 70.826C137.462 70.826 136.788 71.09 136.289 71.618C135.79 72.146 135.541 72.85 135.541 73.73V80H132.791ZM150.799 80.22C149.479 80.22 148.481 79.8753 147.807 79.186C147.132 78.4967 146.795 77.4627 146.795 76.084V70.958H144.661V68.89H146.795V66.052L149.545 65.348V68.89H152.515V70.958H149.545V75.908C149.545 76.6707 149.691 77.206 149.985 77.514C150.278 77.822 150.681 77.976 151.195 77.976C151.473 77.976 151.708 77.954 151.899 77.91C152.104 77.866 152.302 77.8073 152.493 77.734V79.912C152.243 80.0147 151.965 80.088 151.657 80.132C151.363 80.1907 151.077 80.22 150.799 80.22ZM166.778 80.22C165.839 80.22 165.018 79.9927 164.314 79.538C163.61 79.0687 163.14 78.438 162.906 77.646H163.148V80H160.42V63.808H163.17V71.156H162.906C163.155 70.3933 163.632 69.792 164.336 69.352C165.04 68.8973 165.854 68.67 166.778 68.67C167.76 68.67 168.618 68.9047 169.352 69.374C170.085 69.8433 170.657 70.5107 171.068 71.376C171.478 72.2267 171.684 73.2533 171.684 74.456C171.684 75.6587 171.478 76.6927 171.068 77.558C170.657 78.4087 170.078 79.0687 169.33 79.538C168.596 79.9927 167.746 80.22 166.778 80.22ZM166.008 78.108C166.873 78.108 167.57 77.8073 168.098 77.206C168.64 76.6047 168.912 75.688 168.912 74.456C168.912 73.224 168.64 72.3073 168.098 71.706C167.57 71.09 166.873 70.782 166.008 70.782C165.142 70.782 164.446 71.0827 163.918 71.684C163.39 72.2853 163.126 73.202 163.126 74.434C163.126 75.666 163.39 76.59 163.918 77.206C164.446 77.8073 165.142 78.108 166.008 78.108ZM179.43 80.22C177.568 80.22 176.108 79.7067 175.052 78.68C173.996 77.6533 173.468 76.2453 173.468 74.456C173.468 73.2973 173.696 72.2853 174.15 71.42C174.605 70.5547 175.236 69.88 176.042 69.396C176.864 68.912 177.817 68.67 178.902 68.67C179.973 68.67 180.868 68.8973 181.586 69.352C182.305 69.8067 182.848 70.4447 183.214 71.266C183.596 72.0873 183.786 73.048 183.786 74.148V74.874H175.69V73.422H181.828L181.454 73.73C181.454 72.7033 181.234 71.9187 180.794 71.376C180.369 70.8333 179.746 70.562 178.924 70.562C178.015 70.562 177.311 70.8847 176.812 71.53C176.328 72.1753 176.086 73.0773 176.086 74.236V74.522C176.086 75.7247 176.38 76.6267 176.966 77.228C177.568 77.8147 178.411 78.108 179.496 78.108C180.127 78.108 180.714 78.0273 181.256 77.866C181.814 77.69 182.342 77.4113 182.84 77.03L183.654 78.878C183.126 79.3033 182.496 79.6333 181.762 79.868C181.029 80.1027 180.252 80.22 179.43 80.22ZM186.115 80V63.808H188.865V80H186.115ZM196.867 80.22C195.723 80.22 194.733 79.9853 193.897 79.516C193.061 79.0467 192.409 78.3793 191.939 77.514C191.485 76.6487 191.257 75.622 191.257 74.434C191.257 73.246 191.485 72.2267 191.939 71.376C192.409 70.5107 193.061 69.8433 193.897 69.374C194.733 68.9047 195.723 68.67 196.867 68.67C198.011 68.67 199.001 68.9047 199.837 69.374C200.688 69.8433 201.341 70.5107 201.795 71.376C202.265 72.2267 202.499 73.246 202.499 74.434C202.499 75.622 202.265 76.6487 201.795 77.514C201.341 78.3793 200.688 79.0467 199.837 79.516C199.001 79.9853 198.011 80.22 196.867 80.22ZM196.867 78.108C197.733 78.108 198.422 77.8073 198.935 77.206C199.449 76.59 199.705 75.666 199.705 74.434C199.705 73.202 199.449 72.2853 198.935 71.684C198.422 71.0827 197.733 70.782 196.867 70.782C196.002 70.782 195.313 71.0827 194.799 71.684C194.286 72.2853 194.029 73.202 194.029 74.434C194.029 75.666 194.286 76.59 194.799 77.206C195.313 77.8073 196.002 78.108 196.867 78.108ZM207.736 80L203.402 68.89H206.24L209.364 77.536H208.792L211.96 68.89H213.918L217.064 77.536H216.558L219.66 68.89H222.344L218.01 80H215.59L212.268 71.156H213.434L210.178 80H207.736ZM237.705 80L234.427 75.072C234.236 74.764 234.031 74.5147 233.811 74.324C233.606 74.1333 233.371 74.0013 233.107 73.928C232.858 73.84 232.557 73.796 232.205 73.796H229.081V71.86H233.393C234.434 71.86 235.219 71.6473 235.747 71.222C236.275 70.782 236.59 70.1587 236.693 69.352L237.067 69.572H229.081V67.944H237.067L236.649 68.23C236.532 67.5407 236.216 67.02 235.703 66.668C235.19 66.3013 234.456 66.118 233.503 66.118H229.081V64.49H241.379V66.118H237.441L237.793 65.81C238.262 66.074 238.629 66.426 238.893 66.866C239.157 67.2913 239.318 67.79 239.377 68.362L238.871 67.944H241.379V69.572H238.937L239.421 69.066C239.436 70.0047 239.23 70.8187 238.805 71.508C238.38 72.1973 237.771 72.7327 236.979 73.114C236.202 73.4807 235.263 73.664 234.163 73.664V73.444H234.779C235.439 73.444 236.004 73.576 236.473 73.84C236.957 74.0893 237.412 74.5367 237.837 75.182L241.093 80H237.705ZM250.29 80V77.646H253.854V66.866H255.218L250.642 69.594V66.91L254.668 64.49H256.692V77.646H260.036V80H250.29ZM276.008 80.22C274.395 80.22 273.009 79.8973 271.85 79.252C270.706 78.592 269.826 77.668 269.21 76.48C268.594 75.2773 268.286 73.862 268.286 72.234C268.286 70.606 268.594 69.198 269.21 68.01C269.826 66.822 270.706 65.9053 271.85 65.26C273.009 64.6 274.395 64.27 276.008 64.27C277.094 64.27 278.069 64.424 278.934 64.732C279.814 65.04 280.57 65.4947 281.2 66.096L280.276 68.34C279.587 67.7827 278.92 67.3867 278.274 67.152C277.644 66.9027 276.918 66.778 276.096 66.778C274.527 66.778 273.324 67.2547 272.488 68.208C271.667 69.1467 271.256 70.4887 271.256 72.234C271.256 73.9793 271.667 75.3287 272.488 76.282C273.324 77.2353 274.527 77.712 276.096 77.712C276.918 77.712 277.644 77.5947 278.274 77.36C278.92 77.1107 279.587 76.7 280.276 76.128L281.2 78.372C280.57 78.9587 279.814 79.4133 278.934 79.736C278.069 80.0587 277.094 80.22 276.008 80.22ZM283.611 80V71.728C283.611 71.2587 283.596 70.782 283.567 70.298C283.552 69.814 283.515 69.3447 283.457 68.89H286.119L286.427 71.926H285.987C286.133 71.1927 286.375 70.584 286.713 70.1C287.065 69.616 287.49 69.2567 287.989 69.022C288.487 68.7873 289.03 68.67 289.617 68.67C289.881 68.67 290.093 68.6847 290.255 68.714C290.416 68.7287 290.577 68.7653 290.739 68.824L290.717 71.244C290.438 71.1267 290.196 71.0533 289.991 71.024C289.8 70.9947 289.558 70.98 289.265 70.98C288.634 70.98 288.099 71.112 287.659 71.376C287.233 71.64 286.911 72.0067 286.691 72.476C286.485 72.9453 286.383 73.4807 286.383 74.082V80H283.611ZM291.467 80V76.942H294.547V80H291.467Z" fill="#49381C"/>
<defs>
<clipPath id="clip0_116_416">
<rect width="71" height="59.6515" fill="white" transform="translate(461 40.3485)"/>
</clipPath>
</defs>
</svg>
