<svg width="532" height="100" viewBox="0 0 532 100" fill="none" xmlns="http://www.w3.org/2000/svg">
<path d="M0 25C0 11.1929 11.1929 0 25 0H507C520.807 0 532 11.1929 532 25V98.766H0V25Z" fill="#D3AE36"/>
<g clip-path="url(#clip0_141_21)">
<path d="M504.51 76.0732H491.237V77.8731H504.884C505.74 77.8659 506.583 78.0943 507.331 78.5361C508.078 78.9778 508.705 79.6178 509.15 80.3934C509.002 79.1989 508.449 78.1022 507.596 77.3075C506.742 76.5128 505.646 76.0742 504.51 76.0732Z" fill="#AF8D1F"/>
<path d="M494.013 58.8335H488.725C487.588 58.8325 486.49 59.2702 485.634 60.0651C484.779 60.86 484.226 61.9578 484.077 63.1537C484.524 62.3764 485.153 61.7356 485.904 61.2942C486.654 60.8528 487.5 60.626 488.358 60.6361H494.021L494.013 58.8335Z" fill="#AF8D1F"/>
<path d="M504.51 58.8335H495.712V60.6361H504.884C505.74 60.6284 506.583 60.8563 507.331 61.2976C508.078 61.7388 508.705 62.3784 509.15 63.1537C509.002 61.9592 508.449 60.8626 507.596 60.0678C506.742 59.2731 505.646 58.8345 504.51 58.8335Z" fill="#AF8D1F"/>
<path d="M527.349 91.3679H511.676V93.1704H527.724C528.581 93.1618 529.425 93.3893 530.174 93.8306C530.923 94.2719 531.551 94.9119 531.997 95.6881C531.849 94.4921 531.295 93.3944 530.44 92.5995C529.585 91.8046 528.486 91.3668 527.349 91.3679Z" fill="#AF8D1F"/>
<path d="M527.349 65.0741H511.676V66.874H527.724C528.58 66.8668 529.423 67.0952 530.17 67.5369C530.918 67.9787 531.545 68.6187 531.99 69.3943C531.841 68.1998 531.289 67.1031 530.435 66.3084C529.582 65.5137 528.485 65.0751 527.349 65.0741Z" fill="#AF8D1F"/>
<path d="M527.349 74.1309H511.676V75.9307H527.724C528.58 75.9236 529.423 76.152 530.17 76.5937C530.918 77.0355 531.545 77.6755 531.99 78.4511C531.841 77.2566 531.289 76.1599 530.435 75.3652C529.582 74.5705 528.485 74.1319 527.349 74.1309Z" fill="#AF8D1F"/>
<path d="M527.349 82.7494H511.676V84.5492H527.724C528.58 84.542 529.423 84.7705 530.17 85.2122C530.918 85.654 531.545 86.2939 531.99 87.0696C531.841 85.8751 531.289 84.7784 530.435 83.9837C529.582 83.189 528.485 82.7504 527.349 82.7494Z" fill="#AF8D1F"/>
<path d="M519.19 69.6025H511.686V71.4051H519.19V69.6025Z" fill="#AF8D1F"/>
<path d="M527.349 69.6025H520.894V71.4024H527.739C528.595 71.3952 529.438 71.6236 530.186 72.0654C530.933 72.5071 531.56 73.147 532.005 73.9227C531.856 72.7254 531.302 71.6265 530.445 70.8314C529.588 70.0363 528.488 69.5995 527.349 69.6025Z" fill="#AF8D1F"/>
<path d="M513.958 78.4401H511.686V80.2427H513.958V78.4401Z" fill="#AF8D1F"/>
<path d="M527.349 78.4402H515.644V80.2427H527.724C528.581 80.2336 529.425 80.4608 530.174 80.9021C530.924 81.3435 531.552 81.9838 531.997 82.7603C531.849 81.5644 531.295 80.4667 530.44 79.6718C529.585 78.8769 528.486 78.4391 527.349 78.4402Z" fill="#AF8D1F"/>
<path d="M521.842 87.0586H511.686V88.8612H521.842V87.0586Z" fill="#AF8D1F"/>
<path d="M527.349 87.0586H523.53V88.8612H527.724C528.581 88.852 529.425 89.0792 530.174 89.5206C530.924 89.962 531.552 90.6023 531.997 91.3788C531.849 90.1829 531.295 89.0851 530.44 88.2902C529.585 87.4953 528.486 87.0576 527.349 87.0586Z" fill="#AF8D1F"/>
<path d="M513.958 95.6798H511.686V97.4824H513.958V95.6798Z" fill="#AF8D1F"/>
<path d="M527.349 95.6771H515.644V97.4797H527.724C528.58 97.4702 529.424 97.6964 530.173 98.1362C530.922 98.576 531.55 99.2144 531.997 99.9891C531.847 98.7946 531.293 97.6988 530.438 96.9056C529.583 96.1124 528.485 95.6758 527.349 95.6771Z" fill="#AF8D1F"/>
<path d="M527.349 60.5402H516.615V62.3428H527.719C528.575 62.3356 529.417 62.5641 530.165 63.0058C530.913 63.4476 531.54 64.0875 531.985 64.8632C531.837 63.6691 531.285 62.5725 530.433 61.7774C529.58 60.9822 528.485 60.5426 527.349 60.5402Z" fill="#AF8D1F"/>
<path d="M514.927 60.5457H511.686V62.3483H514.927V60.5457Z" fill="#AF8D1F"/>
<path d="M492.317 93.3102H488.725C487.588 93.3091 486.49 93.7469 485.634 94.5418C484.779 95.3367 484.226 96.4345 484.077 97.6304C484.522 96.8547 485.149 96.2148 485.896 95.773C486.644 95.3313 487.487 95.1028 488.343 95.11H492.309L492.317 93.3102Z" fill="#AF8D1F"/>
<path d="M504.51 93.3102H494.013V95.11H504.884C505.74 95.1028 506.583 95.3313 507.331 95.773C508.078 96.2148 508.705 96.8547 509.15 97.6304C509.002 96.4359 508.449 95.3392 507.596 94.5445C506.742 93.7498 505.646 93.3111 504.51 93.3102Z" fill="#AF8D1F"/>
<path d="M498.651 84.6917H488.725C487.588 84.6907 486.49 85.1284 485.634 85.9233C484.779 86.7182 484.226 87.816 484.077 89.0119C484.522 88.2362 485.149 87.5963 485.896 87.1545C486.644 86.7128 487.487 86.4843 488.343 86.4915H498.643L498.651 84.6917Z" fill="#AF8D1F"/>
<path d="M504.51 84.6917H500.347V86.4915H504.884C505.74 86.4843 506.583 86.7128 507.331 87.1545C508.078 87.5963 508.705 88.2362 509.15 89.0119C509.002 87.8174 508.449 86.7207 507.596 85.926C506.742 85.1313 505.646 84.6926 504.51 84.6917Z" fill="#AF8D1F"/>
<path d="M504.51 67.452H501.979V69.2546H504.884C505.74 69.2474 506.583 69.4755 507.33 69.9167C508.078 70.358 508.705 70.9972 509.15 71.7722C509.002 70.5777 508.449 69.481 507.596 68.6863C506.742 67.8916 505.646 67.4529 504.51 67.452Z" fill="#AF8D1F"/>
<path d="M500.28 67.452H488.725C487.588 67.451 486.49 67.8887 485.634 68.6836C484.779 69.4785 484.226 70.5763 484.077 71.7722C484.524 70.9948 485.153 70.354 485.904 69.9127C486.654 69.4713 487.5 69.2445 488.358 69.2546H500.288L500.28 67.452Z" fill="#AF8D1F"/>
<path d="M504.51 49.9959H491.101V51.7985H504.884C505.74 51.7907 506.583 52.0186 507.33 52.4599C508.078 52.9012 508.705 53.5408 509.15 54.3161C509.002 53.1216 508.449 52.0249 507.596 51.2302C506.742 50.4355 505.646 49.9968 504.51 49.9959Z" fill="#AF8D1F"/>
<path d="M497.801 45.473H488.725C487.588 45.4719 486.49 45.9097 485.634 46.7046C484.779 47.4995 484.226 48.5972 484.077 49.7932C484.522 49.0175 485.149 48.3776 485.896 47.9358C486.644 47.4941 487.487 47.2656 488.343 47.2728H497.794L497.801 45.473Z" fill="#AF8D1F"/>
<path d="M504.51 45.473H499.501V47.2728H504.884C505.74 47.2656 506.583 47.4941 507.331 47.9358C508.078 48.3776 508.705 49.0175 509.15 49.7932C509.002 48.5986 508.449 47.502 507.596 46.7073C506.742 45.9126 505.646 45.4739 504.51 45.473Z" fill="#AF8D1F"/>
<path d="M527.349 95.6771H526.833V97.4797H527.737C528.591 97.4726 529.432 97.6999 530.178 98.1396C530.925 98.5793 531.552 99.2164 531.997 99.9891C531.847 98.7946 531.293 97.6988 530.438 96.9056C529.583 96.1124 528.485 95.6758 527.349 95.6771Z" fill="#AF8D1F"/>
<path d="M488.358 90.8008H504.884C505.74 90.7936 506.583 91.022 507.331 91.4638C508.078 91.9055 508.705 92.5455 509.15 93.3211C509.002 92.1252 508.448 91.0274 507.593 90.2325C506.738 89.4376 505.639 88.9999 504.502 89.0009H488.717C487.58 88.9999 486.482 89.4376 485.627 90.2325C484.771 91.0274 484.218 92.1252 484.069 93.3211C484.516 92.5418 485.147 91.8996 485.899 91.4576C486.651 91.0157 487.499 90.7893 488.358 90.8008Z" fill="#AF8D1F"/>
<path d="M488.358 82.1823H504.884C505.74 82.1751 506.583 82.4035 507.331 82.8453C508.078 83.287 508.705 83.927 509.15 84.7026C509.002 83.5062 508.449 82.4078 507.594 81.6124C506.738 80.8169 505.64 80.3788 504.502 80.3797H488.717C487.58 80.3788 486.481 80.8169 485.626 81.6124C484.771 82.4078 484.217 83.5062 484.069 84.7026C484.516 83.9234 485.147 83.2811 485.899 82.8392C486.651 82.3972 487.499 82.1708 488.358 82.1823Z" fill="#AF8D1F"/>
<path d="M488.358 73.5638H504.884C505.74 73.5566 506.583 73.7848 507.33 74.226C508.078 74.6672 508.705 75.3065 509.15 76.0814C509.002 74.8855 508.448 73.7877 507.593 72.9929C506.738 72.198 505.639 71.7602 504.502 71.7612H488.717C487.58 71.7602 486.482 72.198 485.627 72.9929C484.771 73.7877 484.218 74.8855 484.069 76.0814C484.517 75.3029 485.147 74.6613 485.899 74.2199C486.652 73.7784 487.499 73.5523 488.358 73.5638Z" fill="#AF8D1F"/>
<path d="M488.358 64.9454H504.884C505.74 64.9381 506.583 65.1663 507.33 65.6075C508.078 66.0487 508.705 66.688 509.15 67.463C509.002 66.267 508.448 65.1693 507.593 64.3744C506.738 63.5795 505.639 63.1417 504.502 63.1428H488.717C487.58 63.1417 486.482 63.5795 485.627 64.3744C484.771 65.1693 484.218 66.267 484.069 67.463C484.517 66.6844 485.147 66.0428 485.899 65.6014C486.652 65.16 487.499 64.9339 488.358 64.9454Z" fill="#AF8D1F"/>
<path d="M488.358 56.3241H504.884C505.74 56.3169 506.583 56.5454 507.331 56.9871C508.078 57.4289 508.705 58.0688 509.15 58.8445C509.002 57.6486 508.448 56.5508 507.593 55.7559C506.738 54.961 505.639 54.5232 504.502 54.5243H488.717C487.58 54.5232 486.482 54.961 485.627 55.7559C484.771 56.5508 484.218 57.6486 484.069 58.8445C484.516 58.0652 485.147 57.423 485.899 56.981C486.651 56.539 487.499 56.3126 488.358 56.3241Z" fill="#AF8D1F"/>
<path d="M488.358 42.7334H504.884C505.74 42.7262 506.583 42.9546 507.331 43.3964C508.078 43.8381 508.705 44.4781 509.15 45.2538C509.002 44.0578 508.448 42.9601 507.593 42.1652C506.738 41.3703 505.639 40.9325 504.502 40.9335H488.717C487.58 40.9325 486.482 41.3703 485.627 42.1652C484.771 42.9601 484.218 44.0578 484.069 45.2538C484.516 44.4745 485.147 43.8322 485.899 43.3903C486.651 42.9483 487.499 42.7219 488.358 42.7334Z" fill="#AF8D1F"/>
<path d="M504.51 76.0732H503.981V77.8731H504.884C505.74 77.8659 506.583 78.0943 507.331 78.5361C508.078 78.9778 508.705 79.6178 509.15 80.3934C509.002 79.1989 508.449 78.1022 507.596 77.3075C506.742 76.5128 505.646 76.0742 504.51 76.0732Z" fill="#AF8D1F"/>
<path d="M504.51 40.9391H503.981V42.7335H504.884C505.74 42.7263 506.583 42.9547 507.331 43.3964C508.078 43.8382 508.705 44.4782 509.15 45.2538C509.001 44.0603 508.448 42.9649 507.594 42.1713C506.741 41.3777 505.645 40.9399 504.51 40.9391Z" fill="#AF8D1F"/>
<path d="M504.51 80.3797H503.981V82.1823H504.884C505.74 82.1751 506.583 82.4035 507.331 82.8453C508.078 83.287 508.705 83.927 509.15 84.7026C509.002 83.5076 508.45 82.4103 507.597 81.6151C506.743 80.8198 505.646 80.3808 504.51 80.3797Z" fill="#AF8D1F"/>
<path d="M509.15 93.3211C509.002 92.1252 508.448 91.0274 507.593 90.2325C506.738 89.4376 505.639 88.9999 504.502 89.0009H503.973V90.8008H504.877C505.734 90.7922 506.578 91.0199 507.327 91.4617C508.077 91.9035 508.705 92.5443 509.15 93.3211Z" fill="#AF8D1F"/>
<path d="M504.51 84.6917H503.981V86.4915H504.884C505.74 86.4843 506.583 86.7128 507.331 87.1545C508.078 87.5963 508.705 88.2362 509.15 89.0119C509.002 87.8174 508.449 86.7207 507.596 85.926C506.742 85.1313 505.646 84.6926 504.51 84.6917Z" fill="#AF8D1F"/>
<path d="M504.51 67.452H503.981V69.2546H504.884C505.74 69.2474 506.583 69.4755 507.33 69.9167C508.078 70.358 508.705 70.9972 509.15 71.7722C509.002 70.5777 508.449 69.481 507.596 68.6863C506.742 67.8916 505.646 67.4529 504.51 67.452Z" fill="#AF8D1F"/>
<path d="M504.51 71.7722H503.981V73.5748H504.884C505.74 73.5676 506.583 73.7957 507.33 74.2369C508.078 74.6782 508.705 75.3174 509.15 76.0924C509.002 74.8979 508.449 73.8012 507.596 73.0065C506.742 72.2118 505.646 71.7732 504.51 71.7722Z" fill="#AF8D1F"/>
<path d="M504.51 49.9959H503.981V51.7985H504.884C505.74 51.7907 506.583 52.0186 507.331 52.4599C508.078 52.9012 508.705 53.5408 509.15 54.3161C509.002 53.1216 508.449 52.0249 507.596 51.2302C506.742 50.4355 505.646 49.9968 504.51 49.9959Z" fill="#AF8D1F"/>
<path d="M504.51 45.473H503.981V47.2728H504.884C505.74 47.2656 506.583 47.4941 507.331 47.9358C508.078 48.3776 508.705 49.0175 509.15 49.7932C509.002 48.5986 508.449 47.502 507.596 46.7073C506.742 45.9126 505.646 45.4739 504.51 45.473Z" fill="#AF8D1F"/>
<path d="M509.15 97.6304C509.002 96.4345 508.448 95.3367 507.593 94.5418C506.738 93.7469 505.639 93.3091 504.502 93.3102H503.973V95.11H504.877C505.734 95.1014 506.578 95.3292 507.327 95.771C508.077 96.2128 508.705 96.8535 509.15 97.6304Z" fill="#AF8D1F"/>
<path d="M504.51 63.1428H503.981V64.9454H504.884C505.74 64.9381 506.583 65.1663 507.33 65.6075C508.078 66.0487 508.705 66.688 509.15 67.463C509.002 66.2684 508.449 65.1718 507.596 64.3771C506.742 63.5824 505.646 63.1437 504.51 63.1428Z" fill="#AF8D1F"/>
<path d="M504.51 58.8335H503.981V60.6361H504.884C505.74 60.6284 506.583 60.8563 507.331 61.2976C508.078 61.7388 508.705 62.3784 509.15 63.1537C509.002 61.9592 508.449 60.8626 507.596 60.0678C506.742 59.2731 505.646 58.8345 504.51 58.8335Z" fill="#AF8D1F"/>
<path d="M504.51 54.5133H503.981V56.3132H504.884C505.74 56.306 506.583 56.5344 507.331 56.9762C508.078 57.4179 508.705 58.0579 509.15 58.8335C509.002 57.639 508.449 56.5424 507.596 55.7477C506.742 54.9529 505.646 54.5143 504.51 54.5133Z" fill="#AF8D1F"/>
<path d="M488.725 76.0732H489.254V77.8731H488.358C487.503 77.8659 486.66 78.0943 485.912 78.5361C485.164 78.9778 484.537 79.6178 484.093 80.3934C484.241 79.2003 484.792 78.1048 485.644 77.3102C486.496 76.5157 487.591 76.0762 488.725 76.0732Z" fill="#AF8D1F"/>
<path d="M488.725 40.9391H489.254V42.7335H488.358C487.503 42.7263 486.66 42.9547 485.912 43.3964C485.164 43.8382 484.537 44.4782 484.093 45.2538C484.242 44.0617 484.794 42.9675 485.645 42.1741C486.497 41.3806 487.591 40.9419 488.725 40.9391Z" fill="#AF8D1F"/>
<path d="M488.725 80.3797H489.254V82.1823H488.358C487.503 82.1751 486.66 82.4035 485.912 82.8453C485.164 83.287 484.537 83.927 484.093 84.7026C484.24 83.509 484.791 82.4128 485.643 81.6178C486.495 80.8227 487.59 80.3827 488.725 80.3797Z" fill="#AF8D1F"/>
<path d="M484.085 93.3211C484.233 92.1252 484.787 91.0274 485.642 90.2325C486.497 89.4376 487.596 88.9999 488.733 89.0009H489.262V90.8008H488.358C487.501 90.7922 486.657 91.0199 485.908 91.4617C485.158 91.9035 484.53 92.5443 484.085 93.3211Z" fill="#AF8D1F"/>
<path d="M488.725 84.6917H489.254V86.4915H488.358C487.503 86.4843 486.66 86.7128 485.912 87.1545C485.164 87.5963 484.537 88.2362 484.093 89.0119C484.241 87.8188 484.792 86.7232 485.644 85.9287C486.496 85.1342 487.591 84.6946 488.725 84.6917Z" fill="#AF8D1F"/>
<path d="M488.725 67.452H489.254V69.2546H488.358C487.502 69.2459 486.657 69.4734 485.908 69.9147C485.159 70.356 484.531 70.996 484.085 71.7722C484.233 70.5777 484.786 69.481 485.639 68.6863C486.493 67.8916 487.589 67.4529 488.725 67.452Z" fill="#AF8D1F"/>
<path d="M488.725 71.7722H489.254V73.5748H488.358C487.503 73.5676 486.66 73.7957 485.913 74.2369C485.165 74.6782 484.538 75.3174 484.093 76.0924C484.241 74.8993 484.792 73.8037 485.644 73.0092C486.496 72.2147 487.591 71.7751 488.725 71.7722Z" fill="#AF8D1F"/>
<path d="M488.725 49.9959H489.254V51.7985H488.358C487.503 51.7907 486.66 52.0186 485.912 52.4599C485.165 52.9012 484.538 53.5408 484.093 54.3161C484.241 53.123 484.792 52.0274 485.644 51.2329C486.496 50.4384 487.591 49.9988 488.725 49.9959Z" fill="#AF8D1F"/>
<path d="M488.725 45.473H489.254V47.2728H488.358C487.503 47.2656 486.66 47.4941 485.912 47.9358C485.164 48.3776 484.537 49.0175 484.093 49.7932C484.241 48.6 484.792 47.5045 485.644 46.71C486.496 45.9155 487.591 45.4759 488.725 45.473Z" fill="#AF8D1F"/>
<path d="M484.085 97.6304C484.233 96.4345 484.787 95.3367 485.642 94.5418C486.497 93.7469 487.596 93.3091 488.733 93.3102H489.262V95.11H488.358C487.501 95.1014 486.657 95.3292 485.908 95.771C485.158 96.2128 484.53 96.8535 484.085 97.6304Z" fill="#AF8D1F"/>
<path d="M488.725 63.1428H489.254V64.9454H488.358C487.503 64.9381 486.66 65.1663 485.913 65.6075C485.165 66.0487 484.538 66.688 484.093 67.463C484.241 66.2698 484.792 65.1743 485.644 64.3798C486.496 63.5853 487.591 63.1457 488.725 63.1428Z" fill="#AF8D1F"/>
<path d="M488.725 58.8335H489.254V60.6361H488.358C487.503 60.6284 486.66 60.8563 485.912 61.2976C485.165 61.7388 484.538 62.3784 484.093 63.1537C484.241 61.9606 484.792 60.8651 485.644 60.0705C486.496 59.276 487.591 58.8365 488.725 58.8335Z" fill="#AF8D1F"/>
<path d="M488.725 54.5133H489.254V56.3132H488.358C487.503 56.306 486.66 56.5344 485.912 56.9762C485.164 57.4179 484.537 58.0579 484.093 58.8335C484.241 57.6404 484.792 56.5449 485.644 55.7503C486.496 54.9558 487.591 54.5163 488.725 54.5133Z" fill="#AF8D1F"/>
<path d="M527.349 60.5402H526.833V62.3428H527.737C528.593 62.3356 529.435 62.5641 530.183 63.0058C530.931 63.4476 531.558 64.0875 532.003 64.8632C531.854 63.6658 531.301 62.5666 530.444 61.7711C529.588 60.9755 528.488 60.5379 527.349 60.5402Z" fill="#AF8D1F"/>
<path d="M527.349 87.0586H526.833V88.8612H527.737C528.592 88.8544 529.433 89.0828 530.18 89.524C530.927 89.9652 531.553 90.6043 531.997 91.3788C531.849 90.1829 531.295 89.0851 530.44 88.2902C529.585 87.4953 528.486 87.0576 527.349 87.0586Z" fill="#AF8D1F"/>
<path d="M527.349 91.3679H526.833V93.1704H527.737C528.591 93.1642 529.433 93.3928 530.18 93.834C530.926 94.2751 531.553 94.9139 531.997 95.6881C531.849 94.4921 531.295 93.3944 530.44 92.5995C529.585 91.8046 528.486 91.3668 527.349 91.3679Z" fill="#AF8D1F"/>
<path d="M527.349 69.6025H526.833V71.4024H527.737C528.593 71.3952 529.435 71.6236 530.183 72.0653C530.931 72.5071 531.558 73.147 532.003 73.9227C531.854 72.7258 531.3 71.6273 530.443 70.8323C529.587 70.0373 528.487 69.6001 527.349 69.6025Z" fill="#AF8D1F"/>
<path d="M527.349 65.0741H526.833V66.8739H527.737C528.593 66.8667 529.435 67.0952 530.183 67.5369C530.931 67.9787 531.558 68.6186 532.003 69.3943C531.854 68.1974 531.3 67.0989 530.443 66.3039C529.587 65.5089 528.487 65.0717 527.349 65.0741Z" fill="#AF8D1F"/>
<path d="M527.349 82.7494H526.833V84.5492H527.737C528.593 84.542 529.435 84.7705 530.183 85.2122C530.931 85.654 531.558 86.2939 532.003 87.0696C531.854 85.8727 531.3 84.7742 530.443 83.9792C529.587 83.1842 528.487 82.747 527.349 82.7494Z" fill="#AF8D1F"/>
<path d="M527.349 78.4402H526.833V80.2427H527.737C528.592 80.2359 529.433 80.4643 530.18 80.9055C530.927 81.3468 531.553 81.9858 531.997 82.7603C531.849 81.5644 531.295 80.4667 530.44 79.6718C529.585 78.8769 528.486 78.4391 527.349 78.4402Z" fill="#AF8D1F"/>
<path d="M527.349 74.1309H526.833V75.9307H527.737C528.593 75.9235 529.435 76.152 530.183 76.5937C530.931 77.0355 531.558 77.6754 532.003 78.4511C531.854 77.2542 531.3 76.1557 530.443 75.3607C529.587 74.5657 528.487 74.1285 527.349 74.1309Z" fill="#AF8D1F"/>
<path d="M481.312 70.964H465.263C464.408 70.9565 463.565 71.1848 462.818 71.6267C462.07 72.0685 461.444 72.7086 461 73.4844C461.147 72.288 461.701 71.1896 462.556 70.3944C463.412 69.5993 464.511 69.162 465.648 69.1642H481.322L481.312 70.964Z" fill="#AF8D1F"/>
<path d="M465.635 82.7494H481.309V84.5492H465.261C464.405 84.5417 463.562 84.77 462.815 85.2118C462.068 85.6536 461.441 86.2938 460.997 87.0696C461.145 85.8751 461.696 84.7781 462.55 83.9833C463.403 83.1884 464.499 82.7499 465.635 82.7494Z" fill="#AF8D1F"/>
<path d="M465.635 91.3679H481.309V93.1704H465.261C464.405 93.1629 463.563 93.3909 462.816 93.8322C462.068 94.2735 461.442 94.9129 460.997 95.688C461.145 94.4938 461.697 93.3972 462.55 92.6024C463.403 91.8077 464.5 91.3689 465.635 91.3679Z" fill="#AF8D1F"/>
<path d="M481.314 78.221H478.079V80.0236H481.314V78.221Z" fill="#AF8D1F"/>
<path d="M465.635 78.221H476.374V80.0236H465.271C464.416 80.0155 463.573 80.2433 462.826 80.6846C462.078 81.126 461.452 81.7657 461.008 82.5412C461.155 81.3485 461.705 80.2531 462.556 79.4585C463.407 78.6638 464.501 78.2241 465.635 78.221Z" fill="#AF8D1F"/>
<path d="M481.314 73.6926H472.005V75.4952H481.314V73.6926Z" fill="#AF8D1F"/>
<path d="M465.635 73.6898H470.304V75.4897H465.261C464.405 75.4822 463.562 75.7105 462.815 76.1523C462.068 76.5941 461.441 77.2342 460.997 78.01C461.145 76.8155 461.696 75.7186 462.55 74.9237C463.403 74.1288 464.499 73.6903 465.635 73.6898Z" fill="#AF8D1F"/>
<path d="M481.314 87.0586H472.005V88.8612H481.314V87.0586Z" fill="#AF8D1F"/>
<path d="M465.635 87.0586H470.304V88.8612H465.261C464.405 88.8531 463.563 89.0809 462.815 89.5222C462.068 89.9636 461.442 90.6033 460.997 91.3788C461.145 90.1845 461.697 89.0879 462.55 88.2932C463.403 87.4984 464.5 87.0597 465.635 87.0586Z" fill="#AF8D1F"/>
<path d="M481.314 95.6798H478.079V97.4824H481.314V95.6798Z" fill="#AF8D1F"/>
<path d="M465.635 95.6771H476.374V97.4797H465.271C464.415 97.4699 463.572 97.6959 462.823 98.1358C462.074 98.5757 461.446 99.2143 461 99.9891C461.149 98.7967 461.702 97.7025 462.554 96.9095C463.407 96.1164 464.501 95.6785 465.635 95.6771Z" fill="#AF8D1F"/>
<path d="M465.635 69.1642H466.151V70.964H465.248C464.392 70.9565 463.55 71.1848 462.802 71.6266C462.055 72.0684 461.429 72.7086 460.985 73.4844C461.132 72.2875 461.686 71.1887 462.542 70.3935C463.398 69.5983 464.497 69.1613 465.635 69.1642Z" fill="#AF8D1F"/>
<path d="M465.635 95.6771H466.151V97.4797H465.248C464.396 97.4741 463.557 97.7023 462.813 98.1419C462.069 98.5816 461.444 99.2179 461 99.9891C461.149 98.7967 461.702 97.7025 462.554 96.9095C463.407 96.1164 464.501 95.6785 465.635 95.6771Z" fill="#AF8D1F"/>
<path d="M465.635 78.221H466.151V80.0236H465.248C464.392 80.0155 463.55 80.2433 462.802 80.6846C462.055 81.1259 461.429 81.7657 460.985 82.5412C461.132 81.3443 461.686 80.2455 462.542 79.4503C463.398 78.6551 464.497 78.2181 465.635 78.221Z" fill="#AF8D1F"/>
<path d="M465.635 73.6898H466.151V75.4897H465.248C464.392 75.4822 463.55 75.7105 462.802 76.1523C462.055 76.5941 461.429 77.2342 460.985 78.01C461.132 76.8132 461.686 75.7144 462.542 74.9192C463.398 74.124 464.497 73.687 465.635 73.6898Z" fill="#AF8D1F"/>
<path d="M465.635 91.3679H466.151V93.1704H465.248C464.393 93.1629 463.55 93.3909 462.803 93.8322C462.056 94.2735 461.429 94.9129 460.985 95.688C461.133 94.4914 461.686 93.3929 462.542 92.5979C463.398 91.8028 464.497 91.3656 465.635 91.3679Z" fill="#AF8D1F"/>
<path d="M465.635 87.0586H466.151V88.8612H465.248C464.392 88.8531 463.55 89.0809 462.802 89.5222C462.055 89.9636 461.429 90.6033 460.985 91.3788C461.133 90.1822 461.686 89.0837 462.542 88.2886C463.398 87.4936 464.497 87.0563 465.635 87.0586Z" fill="#AF8D1F"/>
<path d="M465.635 82.7494H466.151V84.5492H465.248C464.392 84.5417 463.55 84.77 462.802 85.2118C462.055 85.6536 461.429 86.2938 460.985 87.0696C461.132 85.8727 461.686 84.7739 462.542 83.9787C463.398 83.1835 464.497 82.7465 465.635 82.7494Z" fill="#AF8D1F"/>
</g>
<path d="M49.384 28.834C44.536 28.834 40.84 32.386 40.84 37.402C40.84 42.418 44.536 45.946 49.408 45.946C53.872 45.946 56.92 42.826 57.592 39.418V36.49H48.52V39.058H54.28C53.776 41.434 52.12 42.922 49.528 42.922C46.408 42.922 44.296 40.81 44.296 37.402C44.296 34.066 46.384 31.93 49.384 31.93C51.16 31.93 52.552 32.674 53.32 34.09H57.184C56.104 30.73 53.128 28.834 49.384 28.834ZM72.9179 39.154C72.9179 34.954 69.9179 32.29 66.0779 32.29C62.2379 32.29 59.2379 34.954 59.2379 39.154C59.2379 43.33 62.1419 46.018 65.9819 46.018C69.8459 46.018 72.9179 43.33 72.9179 39.154ZM62.6459 39.154C62.6459 36.49 64.2539 35.218 66.0299 35.218C67.8059 35.218 69.4619 36.49 69.4619 39.154C69.4619 41.794 67.7579 43.09 65.9819 43.09C64.1819 43.09 62.6459 41.794 62.6459 39.154ZM75.3826 45.802H78.7426V28.042H75.3826V45.802ZM81.1982 39.106C81.1982 43.258 83.8863 46.018 87.2703 46.018C89.3583 46.018 90.8463 45.058 91.6383 43.834V45.802H95.0463V28.042H91.6383V34.354C90.7263 33.106 89.0463 32.29 87.2943 32.29C83.8863 32.29 81.1982 34.954 81.1982 39.106ZM91.6623 39.154C91.6623 41.674 89.9823 43.066 88.1343 43.066C86.3343 43.066 84.6303 41.626 84.6303 39.106C84.6303 36.586 86.3343 35.242 88.1343 35.242C89.9823 35.242 91.6623 36.634 91.6623 39.154Z" fill="#85680B"/>
<path d="M41.716 80V64.49H44.554V80H41.716ZM47.748 80V71.662C47.748 71.2073 47.7333 70.7453 47.704 70.276C47.6746 69.8067 47.6306 69.3447 47.572 68.89H50.234L50.454 71.09H50.19C50.542 70.3127 51.0626 69.7187 51.752 69.308C52.4413 68.8827 53.2406 68.67 54.15 68.67C55.4553 68.67 56.438 69.0367 57.098 69.77C57.758 70.5033 58.088 71.6473 58.088 73.202V80H55.338V73.334C55.338 72.4393 55.162 71.8013 54.81 71.42C54.4726 71.024 53.9593 70.826 53.27 70.826C52.4193 70.826 51.7446 71.09 51.246 71.618C50.7473 72.146 50.498 72.85 50.498 73.73V80H47.748ZM64.1524 80L59.3564 68.89H62.2824L65.7584 77.58H65.0764L68.6404 68.89H71.3904L66.5724 80H64.1524ZM78.0163 80.22C76.1537 80.22 74.6943 79.7067 73.6383 78.68C72.5823 77.6533 72.0543 76.2453 72.0543 74.456C72.0543 73.2973 72.2817 72.2853 72.7363 71.42C73.191 70.5547 73.8217 69.88 74.6283 69.396C75.4497 68.912 76.403 68.67 77.4883 68.67C78.559 68.67 79.4537 68.8973 80.1723 69.352C80.891 69.8067 81.4337 70.4447 81.8003 71.266C82.1817 72.0873 82.3723 73.048 82.3723 74.148V74.874H74.2763V73.422H80.4143L80.0403 73.73C80.0403 72.7033 79.8203 71.9187 79.3803 71.376C78.955 70.8333 78.3317 70.562 77.5103 70.562C76.601 70.562 75.897 70.8847 75.3983 71.53C74.9143 72.1753 74.6723 73.0773 74.6723 74.236V74.522C74.6723 75.7247 74.9657 76.6267 75.5523 77.228C76.1537 77.8147 76.997 78.108 78.0823 78.108C78.713 78.108 79.2997 78.0273 79.8423 77.866C80.3997 77.69 80.9277 77.4113 81.4263 77.03L82.2403 78.878C81.7123 79.3033 81.0817 79.6333 80.3483 79.868C79.615 80.1027 78.8377 80.22 78.0163 80.22ZM88.6611 80.22C87.7077 80.22 86.8277 80.11 86.0211 79.89C85.2291 79.6553 84.5617 79.3327 84.0191 78.922L84.7891 77.074C85.3464 77.4553 85.9624 77.7487 86.6371 77.954C87.3117 78.1593 87.9937 78.262 88.6831 78.262C89.4164 78.262 89.9591 78.1373 90.3111 77.888C90.6777 77.6387 90.8611 77.3013 90.8611 76.876C90.8611 76.5387 90.7437 76.2747 90.5091 76.084C90.2891 75.8787 89.9297 75.7247 89.4311 75.622L87.2311 75.204C86.2924 74.9987 85.5737 74.6467 85.0751 74.148C84.5911 73.6493 84.3491 72.9967 84.3491 72.19C84.3491 71.5007 84.5324 70.892 84.8991 70.364C85.2804 69.836 85.8157 69.4253 86.5051 69.132C87.2091 68.824 88.0304 68.67 88.9691 68.67C89.7904 68.67 90.5604 68.78 91.2791 69C92.0124 69.22 92.6284 69.55 93.1271 69.99L92.3351 71.772C91.8804 71.4053 91.3597 71.1193 90.7731 70.914C90.1864 70.7087 89.6144 70.606 89.0571 70.606C88.2944 70.606 87.7371 70.7453 87.3851 71.024C87.0331 71.288 86.8571 71.6327 86.8571 72.058C86.8571 72.3807 86.9597 72.652 87.1651 72.872C87.3851 73.0773 87.7224 73.2313 88.1771 73.334L90.3771 73.752C91.3597 73.9427 92.1004 74.28 92.5991 74.764C93.1124 75.2333 93.3691 75.8787 93.3691 76.7C93.3691 77.4333 93.1711 78.064 92.7751 78.592C92.3791 79.12 91.8291 79.5233 91.1251 79.802C90.4211 80.0807 89.5997 80.22 88.6611 80.22ZM100.367 80.22C99.0471 80.22 98.0498 79.8753 97.3751 79.186C96.7005 78.4967 96.3631 77.4627 96.3631 76.084V70.958H94.2291V68.89H96.3631V66.052L99.1131 65.348V68.89H102.083V70.958H99.1131V75.908C99.1131 76.6707 99.2598 77.206 99.5531 77.514C99.8465 77.822 100.25 77.976 100.763 77.976C101.042 77.976 101.276 77.954 101.467 77.91C101.672 77.866 101.87 77.8073 102.061 77.734V79.912C101.812 80.0147 101.533 80.088 101.225 80.132C100.932 80.1907 100.646 80.22 100.367 80.22ZM103.951 80V71.662C103.951 71.2073 103.936 70.7453 103.907 70.276C103.878 69.8067 103.834 69.3447 103.775 68.89H106.437L106.657 71.09H106.393C106.701 70.3273 107.17 69.7333 107.801 69.308C108.446 68.8827 109.209 68.67 110.089 68.67C110.969 68.67 111.695 68.8827 112.267 69.308C112.854 69.7187 113.264 70.364 113.499 71.244H113.147C113.455 70.452 113.961 69.8287 114.665 69.374C115.369 68.9047 116.176 68.67 117.085 68.67C118.332 68.67 119.263 69.0367 119.879 69.77C120.495 70.5033 120.803 71.6473 120.803 73.202V80H118.053V73.312C118.053 72.432 117.906 71.8013 117.613 71.42C117.32 71.024 116.85 70.826 116.205 70.826C115.442 70.826 114.841 71.0973 114.401 71.64C113.961 72.168 113.741 72.8867 113.741 73.796V80H110.991V73.312C110.991 72.432 110.844 71.8013 110.551 71.42C110.258 71.024 109.788 70.826 109.143 70.826C108.38 70.826 107.779 71.0973 107.339 71.64C106.914 72.168 106.701 72.8867 106.701 73.796V80H103.951ZM129.106 80.22C127.244 80.22 125.784 79.7067 124.728 78.68C123.672 77.6533 123.144 76.2453 123.144 74.456C123.144 73.2973 123.372 72.2853 123.826 71.42C124.281 70.5547 124.912 69.88 125.718 69.396C126.54 68.912 127.493 68.67 128.578 68.67C129.649 68.67 130.544 68.8973 131.262 69.352C131.981 69.8067 132.524 70.4447 132.89 71.266C133.272 72.0873 133.462 73.048 133.462 74.148V74.874H125.366V73.422H131.504L131.13 73.73C131.13 72.7033 130.91 71.9187 130.47 71.376C130.045 70.8333 129.422 70.562 128.6 70.562C127.691 70.562 126.987 70.8847 126.488 71.53C126.004 72.1753 125.762 73.0773 125.762 74.236V74.522C125.762 75.7247 126.056 76.6267 126.642 77.228C127.244 77.8147 128.087 78.108 129.172 78.108C129.803 78.108 130.39 78.0273 130.932 77.866C131.49 77.69 132.018 77.4113 132.516 77.03L133.33 78.878C132.802 79.3033 132.172 79.6333 131.438 79.868C130.705 80.1027 129.928 80.22 129.106 80.22ZM135.791 80V71.662C135.791 71.2073 135.776 70.7453 135.747 70.276C135.718 69.8067 135.674 69.3447 135.615 68.89H138.277L138.497 71.09H138.233C138.585 70.3127 139.106 69.7187 139.795 69.308C140.484 68.8827 141.284 68.67 142.193 68.67C143.498 68.67 144.481 69.0367 145.141 69.77C145.801 70.5033 146.131 71.6473 146.131 73.202V80H143.381V73.334C143.381 72.4393 143.205 71.8013 142.853 71.42C142.516 71.024 142.002 70.826 141.313 70.826C140.462 70.826 139.788 71.09 139.289 71.618C138.79 72.146 138.541 72.85 138.541 73.73V80H135.791ZM153.799 80.22C152.479 80.22 151.481 79.8753 150.807 79.186C150.132 78.4967 149.795 77.4627 149.795 76.084V70.958H147.661V68.89H149.795V66.052L152.545 65.348V68.89H155.515V70.958H152.545V75.908C152.545 76.6707 152.691 77.206 152.985 77.514C153.278 77.822 153.681 77.976 154.195 77.976C154.473 77.976 154.708 77.954 154.899 77.91C155.104 77.866 155.302 77.8073 155.493 77.734V79.912C155.243 80.0147 154.965 80.088 154.657 80.132C154.363 80.1907 154.077 80.22 153.799 80.22ZM174.473 80.22C173.329 80.22 172.339 79.9853 171.503 79.516C170.667 79.0467 170.014 78.3793 169.545 77.514C169.09 76.6487 168.863 75.622 168.863 74.434C168.863 73.246 169.09 72.2267 169.545 71.376C170.014 70.5107 170.667 69.8433 171.503 69.374C172.339 68.9047 173.329 68.67 174.473 68.67C175.617 68.67 176.607 68.9047 177.443 69.374C178.294 69.8433 178.946 70.5107 179.401 71.376C179.87 72.2267 180.105 73.246 180.105 74.434C180.105 75.622 179.87 76.6487 179.401 77.514C178.946 78.3793 178.294 79.0467 177.443 79.516C176.607 79.9853 175.617 80.22 174.473 80.22ZM174.473 78.108C175.338 78.108 176.028 77.8073 176.541 77.206C177.054 76.59 177.311 75.666 177.311 74.434C177.311 73.202 177.054 72.2853 176.541 71.684C176.028 71.0827 175.338 70.782 174.473 70.782C173.608 70.782 172.918 71.0827 172.405 71.684C171.892 72.2853 171.635 73.202 171.635 74.434C171.635 75.666 171.892 76.59 172.405 77.206C172.918 77.8073 173.608 78.108 174.473 78.108ZM183.117 80V70.958H180.983V68.89H183.887L183.117 69.594V67.9C183.117 66.5213 183.469 65.48 184.173 64.776C184.892 64.072 185.94 63.72 187.319 63.72C187.642 63.72 187.979 63.742 188.331 63.786C188.698 63.83 189.013 63.9107 189.277 64.028V66.184C189.086 66.1107 188.859 66.052 188.595 66.008C188.331 65.964 188.074 65.942 187.825 65.942C187.444 65.942 187.099 66.0153 186.791 66.162C186.498 66.3087 186.263 66.536 186.087 66.844C185.926 67.1373 185.845 67.5333 185.845 68.032V69.374L185.449 68.89H188.771V70.958H185.867V80H183.117ZM204.096 80L200.818 75.072C200.627 74.764 200.422 74.5147 200.202 74.324C199.996 74.1333 199.762 74.0013 199.498 73.928C199.248 73.84 198.948 73.796 198.596 73.796H195.472V71.86H199.784C200.825 71.86 201.61 71.6473 202.138 71.222C202.666 70.782 202.981 70.1587 203.084 69.352L203.458 69.572H195.472V67.944H203.458L203.04 68.23C202.922 67.5407 202.607 67.02 202.094 66.668C201.58 66.3013 200.847 66.118 199.894 66.118H195.472V64.49H207.77V66.118H203.832L204.184 65.81C204.653 66.074 205.02 66.426 205.284 66.866C205.548 67.2913 205.709 67.79 205.768 68.362L205.262 67.944H207.77V69.572H205.328L205.812 69.066C205.826 70.0047 205.621 70.8187 205.196 71.508C204.77 72.1973 204.162 72.7327 203.37 73.114C202.592 73.4807 201.654 73.664 200.554 73.664V73.444H201.17C201.83 73.444 202.394 73.576 202.864 73.84C203.348 74.0893 203.802 74.5367 204.228 75.182L207.484 80H204.096ZM220.596 80.22C219.526 80.22 218.499 80.066 217.516 79.758C216.534 79.4353 215.727 78.9953 215.096 78.438L216.02 76.304C216.71 76.832 217.421 77.2207 218.154 77.47C218.902 77.7193 219.687 77.844 220.508 77.844C221.506 77.844 222.261 77.646 222.774 77.25C223.288 76.854 223.544 76.2747 223.544 75.512C223.544 74.7787 223.288 74.2287 222.774 73.862C222.276 73.4807 221.542 73.29 220.574 73.29H218.066V71.024H220.332C221.168 71.024 221.836 70.8187 222.334 70.408C222.833 69.9973 223.082 69.4327 223.082 68.714C223.082 68.0393 222.848 67.526 222.378 67.174C221.924 66.822 221.264 66.646 220.398 66.646C218.844 66.646 217.472 67.174 216.284 68.23L215.36 66.118C215.991 65.5313 216.768 65.0767 217.692 64.754C218.631 64.4313 219.614 64.27 220.64 64.27C222.254 64.27 223.515 64.6367 224.424 65.37C225.348 66.0887 225.81 67.0933 225.81 68.384C225.81 69.308 225.546 70.1073 225.018 70.782C224.505 71.442 223.794 71.882 222.884 72.102V71.838C223.955 72.014 224.784 72.454 225.37 73.158C225.972 73.8473 226.272 74.7127 226.272 75.754C226.272 77.1327 225.766 78.2253 224.754 79.032C223.742 79.824 222.356 80.22 220.596 80.22ZM242.399 80.22C240.785 80.22 239.399 79.8973 238.241 79.252C237.097 78.592 236.217 77.668 235.601 76.48C234.985 75.2773 234.677 73.862 234.677 72.234C234.677 70.606 234.985 69.198 235.601 68.01C236.217 66.822 237.097 65.9053 238.241 65.26C239.399 64.6 240.785 64.27 242.399 64.27C243.484 64.27 244.459 64.424 245.325 64.732C246.205 65.04 246.96 65.4947 247.591 66.096L246.667 68.34C245.977 67.7827 245.31 67.3867 244.665 67.152C244.034 66.9027 243.308 66.778 242.487 66.778C240.917 66.778 239.715 67.2547 238.879 68.208C238.057 69.1467 237.647 70.4887 237.647 72.234C237.647 73.9793 238.057 75.3287 238.879 76.282C239.715 77.2353 240.917 77.712 242.487 77.712C243.308 77.712 244.034 77.5947 244.665 77.36C245.31 77.1107 245.977 76.7 246.667 76.128L247.591 78.372C246.96 78.9587 246.205 79.4133 245.325 79.736C244.459 80.0587 243.484 80.22 242.399 80.22ZM250.001 80V71.728C250.001 71.2587 249.987 70.782 249.957 70.298C249.943 69.814 249.906 69.3447 249.847 68.89H252.509L252.817 71.926H252.377C252.524 71.1927 252.766 70.584 253.103 70.1C253.455 69.616 253.881 69.2567 254.379 69.022C254.878 68.7873 255.421 68.67 256.007 68.67C256.271 68.67 256.484 68.6847 256.645 68.714C256.807 68.7287 256.968 68.7653 257.129 68.824L257.107 71.244C256.829 71.1267 256.587 71.0533 256.381 71.024C256.191 70.9947 255.949 70.98 255.655 70.98C255.025 70.98 254.489 71.112 254.049 71.376C253.624 71.64 253.301 72.0067 253.081 72.476C252.876 72.9453 252.773 73.4807 252.773 74.082V80H250.001ZM257.858 80V76.942H260.938V80H257.858ZM273.95 80.22C272.982 80.22 272.131 79.9927 271.398 79.538C270.665 79.0687 270.093 78.4013 269.682 77.536C269.271 76.6707 269.066 75.6367 269.066 74.434C269.066 73.2313 269.271 72.2047 269.682 71.354C270.093 70.4887 270.665 69.8287 271.398 69.374C272.131 68.9047 272.982 68.67 273.95 68.67C274.889 68.67 275.71 68.9047 276.414 69.374C277.133 69.8287 277.609 70.4447 277.844 71.222H277.602L277.844 68.89H280.484C280.44 69.3447 280.396 69.8067 280.352 70.276C280.323 70.7453 280.308 71.2073 280.308 71.662V80H277.58L277.558 77.712H277.822C277.587 78.4747 277.111 79.0833 276.392 79.538C275.673 79.9927 274.859 80.22 273.95 80.22ZM274.72 78.108C275.585 78.108 276.282 77.8073 276.81 77.206C277.338 76.59 277.602 75.666 277.602 74.434C277.602 73.202 277.338 72.2853 276.81 71.684C276.282 71.0827 275.585 70.782 274.72 70.782C273.855 70.782 273.158 71.0827 272.63 71.684C272.102 72.2853 271.838 73.202 271.838 74.434C271.838 75.666 272.095 76.59 272.608 77.206C273.136 77.8073 273.84 78.108 274.72 78.108ZM283.303 80V71.662C283.303 71.2073 283.288 70.7453 283.259 70.276C283.229 69.8067 283.185 69.3447 283.127 68.89H285.789L286.009 71.09H285.745C286.097 70.3127 286.617 69.7187 287.307 69.308C287.996 68.8827 288.795 68.67 289.705 68.67C291.01 68.67 291.993 69.0367 292.653 69.77C293.313 70.5033 293.643 71.6473 293.643 73.202V80H290.893V73.334C290.893 72.4393 290.717 71.8013 290.365 71.42C290.027 71.024 289.514 70.826 288.825 70.826C287.974 70.826 287.299 71.09 286.801 71.618C286.302 72.146 286.053 72.85 286.053 73.73V80H283.303ZM300.87 80.22C299.903 80.22 299.045 79.9927 298.296 79.538C297.563 79.0687 296.991 78.4013 296.581 77.536C296.17 76.6707 295.965 75.6367 295.965 74.434C295.965 73.2313 296.17 72.2047 296.581 71.354C296.991 70.4887 297.563 69.8287 298.296 69.374C299.045 68.9047 299.903 68.67 300.87 68.67C301.795 68.67 302.609 68.8973 303.313 69.352C304.031 69.792 304.508 70.3933 304.743 71.156H304.457V63.808H307.207V80H304.501V77.646H304.765C304.53 78.438 304.053 79.0687 303.335 79.538C302.631 79.9927 301.809 80.22 300.87 80.22ZM301.641 78.108C302.506 78.108 303.203 77.8073 303.731 77.206C304.259 76.59 304.523 75.666 304.523 74.434C304.523 73.202 304.259 72.2853 303.731 71.684C303.203 71.0827 302.506 70.782 301.641 70.782C300.775 70.782 300.071 71.0827 299.529 71.684C299.001 72.2853 298.737 73.202 298.737 74.434C298.737 75.666 299.001 76.59 299.529 77.206C300.071 77.8073 300.775 78.108 301.641 78.108ZM320.528 80.22C319.56 80.22 318.71 79.9927 317.976 79.538C317.243 79.0687 316.671 78.4013 316.26 77.536C315.85 76.6707 315.644 75.6367 315.644 74.434C315.644 73.2313 315.85 72.2047 316.26 71.354C316.671 70.4887 317.243 69.8287 317.976 69.374C318.71 68.9047 319.56 68.67 320.528 68.67C321.467 68.67 322.288 68.9047 322.992 69.374C323.711 69.8287 324.188 70.4447 324.422 71.222H324.18L324.422 68.89H327.062C327.018 69.3447 326.974 69.8067 326.93 70.276C326.901 70.7453 326.886 71.2073 326.886 71.662V80H324.158L324.136 77.712H324.4C324.166 78.4747 323.689 79.0833 322.97 79.538C322.252 79.9927 321.438 80.22 320.528 80.22ZM321.298 78.108C322.164 78.108 322.86 77.8073 323.388 77.206C323.916 76.59 324.18 75.666 324.18 74.434C324.18 73.202 323.916 72.2853 323.388 71.684C322.86 71.0827 322.164 70.782 321.298 70.782C320.433 70.782 319.736 71.0827 319.208 71.684C318.68 72.2853 318.416 73.202 318.416 74.434C318.416 75.666 318.673 76.59 319.186 77.206C319.714 77.8073 320.418 78.108 321.298 78.108ZM336.239 80.22C335.3 80.22 334.479 79.9927 333.775 79.538C333.071 79.0687 332.601 78.438 332.367 77.646H332.609V80H329.881V63.808H332.631V71.156H332.367C332.616 70.3933 333.093 69.792 333.797 69.352C334.501 68.8973 335.315 68.67 336.239 68.67C337.221 68.67 338.079 68.9047 338.813 69.374C339.546 69.8433 340.118 70.5107 340.529 71.376C340.939 72.2267 341.145 73.2533 341.145 74.456C341.145 75.6587 340.939 76.6927 340.529 77.558C340.118 78.4087 339.539 79.0687 338.791 79.538C338.057 79.9927 337.207 80.22 336.239 80.22ZM335.469 78.108C336.334 78.108 337.031 77.8073 337.559 77.206C338.101 76.6047 338.373 75.688 338.373 74.456C338.373 73.224 338.101 72.3073 337.559 71.706C337.031 71.09 336.334 70.782 335.469 70.782C334.603 70.782 333.907 71.0827 333.379 71.684C332.851 72.2853 332.587 73.202 332.587 74.434C332.587 75.666 332.851 76.59 333.379 77.206C333.907 77.8073 334.603 78.108 335.469 78.108ZM348.539 80.22C347.395 80.22 346.405 79.9853 345.569 79.516C344.733 79.0467 344.081 78.3793 343.611 77.514C343.157 76.6487 342.929 75.622 342.929 74.434C342.929 73.246 343.157 72.2267 343.611 71.376C344.081 70.5107 344.733 69.8433 345.569 69.374C346.405 68.9047 347.395 68.67 348.539 68.67C349.683 68.67 350.673 68.9047 351.509 69.374C352.36 69.8433 353.013 70.5107 353.467 71.376C353.937 72.2267 354.171 73.246 354.171 74.434C354.171 75.622 353.937 76.6487 353.467 77.514C353.013 78.3793 352.36 79.0467 351.509 79.516C350.673 79.9853 349.683 80.22 348.539 80.22ZM348.539 78.108C349.405 78.108 350.094 77.8073 350.607 77.206C351.121 76.59 351.377 75.666 351.377 74.434C351.377 73.202 351.121 72.2853 350.607 71.684C350.094 71.0827 349.405 70.782 348.539 70.782C347.674 70.782 346.985 71.0827 346.471 71.684C345.958 72.2853 345.701 73.202 345.701 74.434C345.701 75.666 345.958 76.59 346.471 77.206C346.985 77.8073 347.674 78.108 348.539 78.108ZM359.584 80L354.788 68.89H357.714L361.19 77.58H360.508L364.072 68.89H366.822L362.004 80H359.584ZM373.448 80.22C371.585 80.22 370.126 79.7067 369.07 78.68C368.014 77.6533 367.486 76.2453 367.486 74.456C367.486 73.2973 367.713 72.2853 368.168 71.42C368.623 70.5547 369.253 69.88 370.06 69.396C370.881 68.912 371.835 68.67 372.92 68.67C373.991 68.67 374.885 68.8973 375.604 69.352C376.323 69.8067 376.865 70.4447 377.232 71.266C377.613 72.0873 377.804 73.048 377.804 74.148V74.874H369.708V73.422H375.846L375.472 73.73C375.472 72.7033 375.252 71.9187 374.812 71.376C374.387 70.8333 373.763 70.562 372.942 70.562C372.033 70.562 371.329 70.8847 370.83 71.53C370.346 72.1753 370.104 73.0773 370.104 74.236V74.522C370.104 75.7247 370.397 76.6267 370.984 77.228C371.585 77.8147 372.429 78.108 373.514 78.108C374.145 78.108 374.731 78.0273 375.274 77.866C375.831 77.69 376.359 77.4113 376.858 77.03L377.672 78.878C377.144 79.3033 376.513 79.6333 375.78 79.868C375.047 80.1027 374.269 80.22 373.448 80.22Z" fill="#85680B"/>
<defs>
<clipPath id="clip0_141_21">
<rect width="71" height="59.0609" fill="white" transform="translate(461 40.9391)"/>
</clipPath>
</defs>
</svg>
