<svg width="532" height="100" viewBox="0 0 532 100" fill="none" xmlns="http://www.w3.org/2000/svg">
<path d="M0 25C0 11.1929 11.1929 0 25 0H507C520.807 0 532 11.1929 532 25V100H0V25Z" fill="#A6A6A6"/>
<g clip-path="url(#clip0_141_20)">
<path d="M504.51 75.4855H491.237V77.3033H504.884C505.74 77.2961 506.583 77.5268 507.331 77.9729C508.078 78.4191 508.705 79.0655 509.15 79.8489C509.002 78.6424 508.449 77.5348 507.596 76.7321C506.742 75.9295 505.646 75.4864 504.51 75.4855Z" fill="#5A5A59"/>
<path d="M494.013 58.0734H488.725C487.588 58.0723 486.49 58.5144 485.634 59.3173C484.779 60.1201 484.226 61.2289 484.077 62.4368C484.524 61.6516 485.153 61.0044 485.904 60.5586C486.654 60.1129 487.5 59.8838 488.358 59.894H494.021L494.013 58.0734Z" fill="#5A5A59"/>
<path d="M504.51 58.0734H495.712V59.894H504.884C505.74 59.8861 506.583 60.1163 507.33 60.562C508.078 61.0077 508.705 61.6537 509.15 62.4367C509.002 61.2303 508.449 60.1227 507.596 59.32C506.742 58.5174 505.646 58.0743 504.51 58.0734Z" fill="#5A5A59"/>
<path d="M527.349 90.933H511.676V92.7537H527.724C528.581 92.7449 529.425 92.9747 530.174 93.4204C530.923 93.8661 531.551 94.5125 531.997 95.2964C531.849 94.0886 531.295 92.9798 530.44 92.177C529.585 91.3741 528.486 90.932 527.349 90.933Z" fill="#5A5A59"/>
<path d="M527.349 64.3763H511.676V66.1942H527.724C528.58 66.1869 529.423 66.4176 530.17 66.8638C530.918 67.31 531.545 67.9563 531.99 68.7397C531.841 67.5333 531.289 66.4257 530.435 65.623C529.582 64.8204 528.485 64.3773 527.349 64.3763Z" fill="#5A5A59"/>
<path d="M527.349 73.5237H511.676V75.3416H527.724C528.58 75.3343 529.423 75.565 530.17 76.0112C530.918 76.4574 531.545 77.1037 531.99 77.8871C531.841 76.6807 531.289 75.5731 530.435 74.7704C529.582 73.9678 528.485 73.5247 527.349 73.5237Z" fill="#5A5A59"/>
<path d="M527.349 82.2284H511.676V84.0462H527.724C528.58 84.039 529.423 84.2697 530.17 84.7159C530.918 85.162 531.545 85.8084 531.99 86.5918C531.841 85.3853 531.289 84.2777 530.435 83.4751C529.582 82.6724 528.485 82.2294 527.349 82.2284Z" fill="#5A5A59"/>
<path d="M519.19 68.9501H511.686V70.7707H519.19V68.9501Z" fill="#5A5A59"/>
<path d="M527.349 68.95H520.894V70.7679H527.739C528.595 70.7606 529.438 70.9913 530.186 71.4375C530.933 71.8837 531.56 72.53 532.005 73.3134C531.856 72.1041 531.302 70.9942 530.445 70.1912C529.588 69.3882 528.488 68.947 527.349 68.95Z" fill="#5A5A59"/>
<path d="M513.958 77.876H511.686V79.6967H513.958V77.876Z" fill="#5A5A59"/>
<path d="M527.349 77.876H515.644V79.6966H527.724C528.581 79.6874 529.425 79.9169 530.174 80.3626C530.924 80.8084 531.552 81.4551 531.997 82.2394C531.849 81.0315 531.295 79.9228 530.44 79.12C529.585 78.3171 528.486 77.875 527.349 77.876Z" fill="#5A5A59"/>
<path d="M521.842 86.5807H511.686V88.4013H521.842V86.5807Z" fill="#5A5A59"/>
<path d="M527.349 86.5807H523.53V88.4013H527.724C528.581 88.3921 529.425 88.6216 530.174 89.0673C530.924 89.5131 531.552 90.1598 531.997 90.9441C531.849 89.7362 531.295 88.6275 530.44 87.8247C529.585 87.0218 528.486 86.5797 527.349 86.5807Z" fill="#5A5A59"/>
<path d="M513.958 95.2881H511.686V97.1087H513.958V95.2881Z" fill="#5A5A59"/>
<path d="M527.349 95.2854H515.644V97.106H527.724C528.58 97.0964 529.424 97.3249 530.173 97.7691C530.922 98.2133 531.55 98.8581 531.997 99.6405C531.847 98.4341 531.293 97.3273 530.438 96.5262C529.583 95.725 528.485 95.2841 527.349 95.2854Z" fill="#5A5A59"/>
<path d="M527.349 59.7972H516.615V61.6178H527.719C528.575 61.6105 529.417 61.8413 530.165 62.2874C530.913 62.7336 531.54 63.38 531.985 64.1634C531.837 62.9573 531.285 61.8498 530.433 61.0467C529.58 60.2436 528.485 59.7996 527.349 59.7972Z" fill="#5A5A59"/>
<path d="M514.927 59.8027H511.686V61.6233H514.927V59.8027Z" fill="#5A5A59"/>
<path d="M492.317 92.8948H488.725C487.588 92.8937 486.49 93.3359 485.634 94.1387C484.779 94.9416 484.226 96.0503 484.077 97.2582C484.522 96.4748 485.149 95.8284 485.897 95.3822C486.644 94.9361 487.487 94.7054 488.343 94.7126H492.309L492.317 92.8948Z" fill="#5A5A59"/>
<path d="M504.51 92.8948H494.013V94.7126H504.884C505.74 94.7054 506.583 94.9361 507.331 95.3822C508.078 95.8284 508.705 96.4748 509.15 97.2582C509.002 96.0517 508.449 94.9441 507.596 94.1414C506.742 93.3388 505.646 92.8957 504.51 92.8948Z" fill="#5A5A59"/>
<path d="M498.651 84.1901H488.725C487.588 84.1891 486.49 84.6312 485.634 85.4341C484.779 86.2369 484.226 87.3457 484.077 88.5535C484.522 87.7701 485.149 87.1238 485.897 86.6776C486.644 86.2314 487.487 86.0007 488.343 86.008H498.643L498.651 84.1901Z" fill="#5A5A59"/>
<path d="M504.51 84.1901H500.347V86.008H504.884C505.74 86.0007 506.583 86.2314 507.331 86.6776C508.078 87.1238 508.705 87.7701 509.15 88.5535C509.002 87.3471 508.449 86.2395 507.596 85.4368C506.742 84.6341 505.646 84.1911 504.51 84.1901Z" fill="#5A5A59"/>
<path d="M504.51 66.778H501.979V68.5986H504.884C505.74 68.5914 506.583 68.8218 507.33 69.2674C508.078 69.7131 508.705 70.3587 509.15 71.1414C509.002 69.935 508.449 68.8273 507.596 68.0247C506.742 67.222 505.646 66.779 504.51 66.778Z" fill="#5A5A59"/>
<path d="M500.28 66.778H488.725C487.588 66.777 486.49 67.2191 485.634 68.022C484.779 68.8248 484.226 69.9335 484.077 71.1414C484.524 70.3563 485.153 69.7091 485.904 69.2633C486.654 68.8175 487.5 68.5885 488.358 68.5986H500.288L500.28 66.778Z" fill="#5A5A59"/>
<path d="M504.51 49.1473H491.101V50.968H504.884C505.74 50.9601 506.583 51.1903 507.331 51.636C508.078 52.0817 508.705 52.7277 509.15 53.5107C509.002 52.3043 508.449 51.1967 507.596 50.394C506.742 49.5914 505.646 49.1483 504.51 49.1473Z" fill="#5A5A59"/>
<path d="M497.801 44.5792H488.725C487.588 44.5782 486.49 45.0203 485.634 45.8232C484.779 46.626 484.226 47.7348 484.077 48.9426C484.522 48.1592 485.149 47.5129 485.897 47.0667C486.644 46.6205 487.487 46.3898 488.343 46.3971H497.794L497.801 44.5792Z" fill="#5A5A59"/>
<path d="M504.51 44.5792H499.5V46.3971H504.884C505.74 46.3898 506.583 46.6205 507.331 47.0667C508.078 47.5129 508.705 48.1592 509.15 48.9426C509.002 47.7362 508.449 46.6286 507.596 45.8259C506.742 45.0232 505.646 44.5802 504.51 44.5792Z" fill="#5A5A59"/>
<path d="M527.349 95.2854H526.833V97.106H527.737C528.591 97.0988 529.432 97.3284 530.178 97.7725C530.925 98.2166 531.552 98.8601 531.997 99.6405C531.847 98.4341 531.293 97.3273 530.438 96.5262C529.583 95.725 528.485 95.2841 527.349 95.2854Z" fill="#5A5A59"/>
<path d="M488.358 90.3603H504.884C505.74 90.353 506.583 90.5838 507.331 91.0299C508.078 91.4761 508.705 92.1224 509.15 92.9058C509.002 91.698 508.448 90.5892 507.593 89.7864C506.738 88.9835 505.639 88.5414 504.502 88.5425H488.717C487.58 88.5414 486.482 88.9835 485.627 89.7864C484.771 90.5892 484.218 91.698 484.069 92.9058C484.516 92.1188 485.147 91.4701 485.899 91.0237C486.651 90.5774 487.499 90.3487 488.358 90.3603Z" fill="#5A5A59"/>
<path d="M488.358 81.6556H504.884C505.74 81.6484 506.583 81.8791 507.331 82.3253C508.078 82.7714 508.705 83.4178 509.15 84.2012C509.002 82.9928 508.449 81.8834 507.594 81.08C506.738 80.2766 505.64 79.8341 504.502 79.835H488.717C487.58 79.8341 486.481 80.2766 485.626 81.08C484.771 81.8834 484.217 82.9928 484.069 84.2012C484.516 83.4141 485.147 82.7655 485.899 82.3191C486.651 81.8727 487.499 81.644 488.358 81.6556Z" fill="#5A5A59"/>
<path d="M488.358 72.951H504.884C505.74 72.9437 506.583 73.1741 507.33 73.6198C508.078 74.0654 508.705 74.7111 509.15 75.4938C509.002 74.2859 508.448 73.1771 507.593 72.3743C506.738 71.5715 505.639 71.1293 504.502 71.1304H488.717C487.58 71.1293 486.482 71.5715 485.627 72.3743C484.771 73.1771 484.218 74.2859 484.069 75.4938C484.517 74.7074 485.147 74.0594 485.899 73.6136C486.652 73.1677 487.499 72.9394 488.358 72.951Z" fill="#5A5A59"/>
<path d="M488.358 64.2463H504.884C505.74 64.2391 506.583 64.4695 507.33 64.9151C508.078 65.3608 508.705 66.0064 509.15 66.7891C509.002 65.5812 508.448 64.4725 507.593 63.6697C506.738 62.8668 505.639 62.4247 504.502 62.4257H488.717C487.58 62.4247 486.482 62.8668 485.627 63.6697C484.771 64.4725 484.218 65.5812 484.069 66.7891C484.517 66.0028 485.147 65.3548 485.899 64.9089C486.652 64.4631 487.499 64.2347 488.358 64.2463Z" fill="#5A5A59"/>
<path d="M488.358 55.5389H504.884C505.74 55.5316 506.583 55.7623 507.331 56.2085C508.078 56.6547 508.705 57.301 509.15 58.0844C509.002 56.8765 508.448 55.7678 507.593 54.9649C506.738 54.1621 505.639 53.72 504.502 53.721H488.717C487.58 53.72 486.482 54.1621 485.627 54.9649C484.771 55.7678 484.218 56.8765 484.069 58.0844C484.516 57.2974 485.147 56.6487 485.899 56.2023C486.651 55.7559 487.499 55.5273 488.358 55.5389Z" fill="#5A5A59"/>
<path d="M488.358 41.8123H504.884C505.74 41.805 506.583 42.0358 507.331 42.4819C508.078 42.9281 508.705 43.5745 509.15 44.3579C509.002 43.15 508.448 42.0412 507.593 41.2384C506.738 40.4355 505.639 39.9934 504.502 39.9944H488.717C487.58 39.9934 486.482 40.4355 485.627 41.2384C484.771 42.0412 484.218 43.15 484.069 44.3579C484.516 43.5708 485.147 42.9221 485.899 42.4757C486.651 42.0294 487.499 41.8007 488.358 41.8123Z" fill="#5A5A59"/>
<path d="M504.51 75.4855H503.981V77.3033H504.884C505.74 77.2961 506.583 77.5268 507.331 77.9729C508.078 78.4191 508.705 79.0655 509.15 79.8489C509.002 78.6424 508.449 77.5348 507.596 76.7321C506.742 75.9295 505.646 75.4864 504.51 75.4855Z" fill="#5A5A59"/>
<path d="M504.51 40H503.981V41.8123H504.884C505.74 41.805 506.583 42.0358 507.331 42.4819C508.078 42.9281 508.705 43.5745 509.15 44.3579C509.001 43.1524 508.448 42.0461 507.594 41.2446C506.741 40.443 505.645 40.0008 504.51 40Z" fill="#5A5A59"/>
<path d="M504.51 79.835H503.981V81.6556H504.884C505.74 81.6484 506.583 81.8791 507.331 82.3253C508.078 82.7714 508.705 83.4178 509.15 84.2012C509.002 82.9942 508.45 81.886 507.597 81.0827C506.743 80.2795 505.646 79.8361 504.51 79.835Z" fill="#5A5A59"/>
<path d="M509.15 92.9058C509.002 91.698 508.448 90.5892 507.593 89.7864C506.738 88.9835 505.639 88.5414 504.502 88.5425H503.973V90.3603H504.877C505.734 90.3516 506.578 90.5816 507.327 91.0279C508.076 91.4741 508.705 92.1212 509.15 92.9058Z" fill="#5A5A59"/>
<path d="M504.51 84.1901H503.981V86.008H504.884C505.74 86.0007 506.583 86.2314 507.331 86.6776C508.078 87.1238 508.705 87.7701 509.15 88.5535C509.002 87.3471 508.449 86.2395 507.596 85.4368C506.742 84.6341 505.646 84.1911 504.51 84.1901Z" fill="#5A5A59"/>
<path d="M504.51 66.778H503.981V68.5986H504.884C505.74 68.5914 506.582 68.8218 507.33 69.2674C508.078 69.7131 508.705 70.3587 509.15 71.1414C509.002 69.935 508.449 68.8273 507.596 68.0247C506.742 67.222 505.646 66.779 504.51 66.778Z" fill="#5A5A59"/>
<path d="M504.51 71.1414H503.981V72.962H504.884C505.74 72.9548 506.582 73.1852 507.33 73.6308C508.078 74.0765 508.705 74.7221 509.15 75.5048C509.002 74.2984 508.449 73.1908 507.596 72.3881C506.742 71.5854 505.646 71.1424 504.51 71.1414Z" fill="#5A5A59"/>
<path d="M504.51 49.1473H503.981V50.968H504.884C505.74 50.9601 506.583 51.1903 507.33 51.636C508.078 52.0817 508.705 52.7277 509.15 53.5107C509.002 52.3043 508.449 51.1967 507.596 50.394C506.742 49.5914 505.646 49.1483 504.51 49.1473Z" fill="#5A5A59"/>
<path d="M504.51 44.5792H503.981V46.3971H504.884C505.74 46.3898 506.583 46.6205 507.331 47.0667C508.078 47.5129 508.705 48.1592 509.15 48.9426C509.002 47.7362 508.449 46.6286 507.596 45.8259C506.742 45.0232 505.646 44.5802 504.51 44.5792Z" fill="#5A5A59"/>
<path d="M509.15 97.2582C509.002 96.0503 508.448 94.9416 507.593 94.1387C506.738 93.3359 505.639 92.8937 504.502 92.8948H503.973V94.7126H504.877C505.734 94.7039 506.578 94.934 507.327 95.3802C508.076 95.8264 508.705 96.4736 509.15 97.2582Z" fill="#5A5A59"/>
<path d="M504.51 62.4257H503.981V64.2463H504.884C505.74 64.2391 506.582 64.4695 507.33 64.9151C508.078 65.3608 508.705 66.0064 509.15 66.7891C509.002 65.5827 508.449 64.4751 507.596 63.6724C506.742 62.8697 505.646 62.4267 504.51 62.4257Z" fill="#5A5A59"/>
<path d="M504.51 58.0734H503.981V59.894H504.884C505.74 59.8861 506.583 60.1163 507.33 60.562C508.078 61.0077 508.705 61.6537 509.15 62.4367C509.002 61.2303 508.449 60.1227 507.596 59.32C506.742 58.5174 505.646 58.0743 504.51 58.0734Z" fill="#5A5A59"/>
<path d="M504.51 53.71H503.981V55.5278H504.884C505.74 55.5205 506.583 55.7513 507.331 56.1974C508.078 56.6436 508.705 57.29 509.15 58.0734C509.002 56.8669 508.449 55.7593 507.596 54.9566C506.742 54.154 505.646 53.7109 504.51 53.71Z" fill="#5A5A59"/>
<path d="M488.725 75.4855H489.254V77.3033H488.358C487.503 77.2961 486.66 77.5268 485.912 77.9729C485.164 78.4191 484.537 79.0655 484.093 79.8489C484.241 78.6438 484.792 77.5373 485.644 76.7349C486.496 75.9324 487.591 75.4885 488.725 75.4855Z" fill="#5A5A59"/>
<path d="M488.725 40H489.254V41.8123H488.358C487.503 41.805 486.66 42.0358 485.912 42.4819C485.164 42.9281 484.537 43.5745 484.093 44.3579C484.242 43.1538 484.794 42.0487 485.645 41.2473C486.497 40.446 487.591 40.0028 488.725 40Z" fill="#5A5A59"/>
<path d="M488.725 79.835H489.254V81.6556H488.358C487.503 81.6484 486.66 81.8791 485.912 82.3253C485.164 82.7714 484.537 83.4178 484.093 84.2012C484.24 82.9956 484.791 81.8885 485.643 81.0855C486.495 80.2824 487.59 79.8381 488.725 79.835Z" fill="#5A5A59"/>
<path d="M484.085 92.9058C484.233 91.698 484.787 90.5892 485.642 89.7864C486.497 88.9835 487.596 88.5414 488.733 88.5425H489.262V90.3603H488.358C487.501 90.3516 486.657 90.5816 485.908 91.0279C485.158 91.4741 484.53 92.1212 484.085 92.9058Z" fill="#5A5A59"/>
<path d="M488.725 84.1901H489.254V86.008H488.358C487.503 86.0007 486.66 86.2314 485.912 86.6776C485.164 87.1238 484.537 87.7701 484.093 88.5535C484.241 87.3485 484.792 86.242 485.644 85.4395C486.496 84.6371 487.591 84.1931 488.725 84.1901Z" fill="#5A5A59"/>
<path d="M488.725 66.778H489.254V68.5986H488.358C487.502 68.5899 486.657 68.8196 485.908 69.2654C485.159 69.7111 484.531 70.3575 484.085 71.1414C484.233 69.935 484.786 68.8273 485.639 68.0247C486.493 67.222 487.589 66.779 488.725 66.778Z" fill="#5A5A59"/>
<path d="M488.725 71.1414H489.254V72.962H488.358C487.503 72.9548 486.66 73.1852 485.913 73.6308C485.165 74.0765 484.538 74.7221 484.093 75.5048C484.241 74.2998 484.792 73.1933 485.644 72.3908C486.496 71.5883 487.591 71.1444 488.725 71.1414Z" fill="#5A5A59"/>
<path d="M488.725 49.1473H489.254V50.968H488.358C487.503 50.9601 486.66 51.1903 485.912 51.636C485.164 52.0817 484.538 52.7277 484.093 53.5107C484.241 52.3057 484.792 51.1992 485.644 50.3967C486.496 49.5943 487.591 49.1503 488.725 49.1473Z" fill="#5A5A59"/>
<path d="M488.725 44.5792H489.254V46.3971H488.358C487.503 46.3898 486.66 46.6205 485.912 47.0667C485.164 47.5129 484.537 48.1592 484.093 48.9426C484.241 47.7376 484.792 46.6311 485.644 45.8286C486.496 45.0261 487.591 44.5822 488.725 44.5792Z" fill="#5A5A59"/>
<path d="M484.085 97.2582C484.233 96.0503 484.787 94.9416 485.642 94.1387C486.497 93.3359 487.596 92.8937 488.733 92.8948H489.262V94.7126H488.358C487.501 94.7039 486.657 94.934 485.908 95.3802C485.158 95.8264 484.53 96.4736 484.085 97.2582Z" fill="#5A5A59"/>
<path d="M488.725 62.4257H489.254V64.2463H488.358C487.503 64.2391 486.66 64.4695 485.913 64.9151C485.165 65.3608 484.538 66.0064 484.093 66.7891C484.241 65.5841 484.792 64.4776 485.644 63.6751C486.496 62.8726 487.591 62.4287 488.725 62.4257Z" fill="#5A5A59"/>
<path d="M488.725 58.0734H489.254V59.894H488.358C487.503 59.8861 486.66 60.1163 485.912 60.562C485.164 61.0077 484.538 61.6537 484.093 62.4367C484.241 61.2317 484.792 60.1252 485.644 59.3228C486.496 58.5203 487.591 58.0763 488.725 58.0734Z" fill="#5A5A59"/>
<path d="M488.725 53.71H489.254V55.5278H488.358C487.503 55.5205 486.66 55.7513 485.912 56.1974C485.164 56.6436 484.537 57.29 484.093 58.0734C484.241 56.8683 484.792 55.7618 485.644 54.9594C486.496 54.1569 487.591 53.7129 488.725 53.71Z" fill="#5A5A59"/>
<path d="M527.349 59.7971H526.833V61.6178H527.737C528.593 61.6105 529.435 61.8412 530.183 62.2874C530.931 62.7335 531.558 63.3799 532.003 64.1633C531.854 62.954 531.3 61.8438 530.444 61.0403C529.588 60.2367 528.488 59.7948 527.349 59.7971Z" fill="#5A5A59"/>
<path d="M527.349 86.5807H526.833V88.4013H527.737C528.591 88.3945 529.433 88.6251 530.18 89.0708C530.927 89.5164 531.553 90.1619 531.997 90.9441C531.849 89.7362 531.295 88.6275 530.44 87.8247C529.585 87.0218 528.486 86.5797 527.349 86.5807Z" fill="#5A5A59"/>
<path d="M527.349 90.933H526.833V92.7537H527.737C528.591 92.7473 529.433 92.9782 530.18 93.4238C530.926 93.8694 531.552 94.5145 531.997 95.2964C531.849 94.0886 531.295 92.9798 530.44 92.177C529.585 91.3741 528.486 90.932 527.349 90.933Z" fill="#5A5A59"/>
<path d="M527.349 68.95H526.833V70.7679H527.737C528.593 70.7606 529.435 70.9913 530.183 71.4375C530.931 71.8837 531.558 72.53 532.003 73.3134C531.854 72.1046 531.3 70.9951 530.443 70.1921C529.587 69.3892 528.487 68.9476 527.349 68.95Z" fill="#5A5A59"/>
<path d="M527.349 64.3764H526.833V66.1942H527.737C528.593 66.1869 529.435 66.4177 530.183 66.8638C530.931 67.31 531.558 67.9564 532.003 68.7398C531.854 67.5309 531.3 66.4214 530.443 65.6185C529.587 64.8155 528.487 64.374 527.349 64.3764Z" fill="#5A5A59"/>
<path d="M527.349 82.2284H526.833V84.0462H527.737C528.593 84.039 529.435 84.2697 530.183 84.7158C530.931 85.162 531.558 85.8084 532.003 86.5918C531.854 85.383 531.3 84.2734 530.443 83.4705C529.587 82.6675 528.487 82.226 527.349 82.2284Z" fill="#5A5A59"/>
<path d="M527.349 77.876H526.833V79.6966H527.737C528.591 79.6898 529.433 79.9204 530.18 80.3661C530.927 80.8117 531.553 81.4572 531.997 82.2394C531.849 81.0315 531.295 79.9228 530.44 79.12C529.585 78.3171 528.486 77.875 527.349 77.876Z" fill="#5A5A59"/>
<path d="M527.349 73.5237H526.833V75.3415H527.737C528.593 75.3343 529.435 75.565 530.183 76.0112C530.931 76.4573 531.558 77.1037 532.003 77.8871C531.854 76.6783 531.3 75.5688 530.443 74.7658C529.587 73.9628 528.487 73.5213 527.349 73.5237Z" fill="#5A5A59"/>
<path d="M481.312 70.3252H465.263C464.408 70.3176 463.565 70.5482 462.818 70.9944C462.07 71.4406 461.444 72.0872 461 72.8707C461.147 71.6624 461.701 70.5529 462.556 69.7499C463.412 68.9468 464.511 68.5051 465.648 68.5073H481.322L481.312 70.3252Z" fill="#5A5A59"/>
<path d="M465.635 82.2284H481.309V84.0462H465.261C464.405 84.0386 463.562 84.2692 462.815 84.7155C462.068 85.1617 461.441 85.8082 460.997 86.5918C461.145 85.3853 461.696 84.2774 462.55 83.4746C463.403 82.6718 464.499 82.2289 465.635 82.2284Z" fill="#5A5A59"/>
<path d="M465.635 90.933H481.309V92.7537H465.261C464.405 92.746 463.563 92.9763 462.816 93.422C462.068 93.8677 461.442 94.5136 460.997 95.2964C461.145 94.0902 461.697 92.9826 462.55 92.1799C463.403 91.3772 464.5 90.9341 465.635 90.933Z" fill="#5A5A59"/>
<path d="M481.314 77.6547H478.079V79.4753H481.314V77.6547Z" fill="#5A5A59"/>
<path d="M465.635 77.6547H476.375V79.4753H465.271C464.416 79.4672 463.573 79.6973 462.826 80.143C462.078 80.5888 461.452 81.2349 461.008 82.0181C461.155 80.8135 461.705 79.7072 462.556 78.9046C463.407 78.102 464.501 77.6579 465.635 77.6547Z" fill="#5A5A59"/>
<path d="M481.314 73.081H472.005V74.9016H481.314V73.081Z" fill="#5A5A59"/>
<path d="M465.635 73.0782H470.304V74.8961H465.261C464.405 74.8885 463.562 75.1191 462.815 75.5653C462.068 76.0115 461.441 76.6581 460.997 77.4417C461.145 76.2352 461.696 75.1273 462.55 74.3244C463.403 73.5216 464.499 73.0787 465.635 73.0782Z" fill="#5A5A59"/>
<path d="M481.314 86.5807H472.005V88.4013H481.314V86.5807Z" fill="#5A5A59"/>
<path d="M465.635 86.5807H470.304V88.4013H465.261C464.405 88.3932 463.563 88.6232 462.815 89.069C462.068 89.5147 461.442 90.1609 460.997 90.9441C461.145 89.7379 461.697 88.6303 462.55 87.8276C463.403 87.0249 464.5 86.5818 465.635 86.5807Z" fill="#5A5A59"/>
<path d="M481.314 95.2881H478.079V97.1087H481.314V95.2881Z" fill="#5A5A59"/>
<path d="M465.635 95.2854H476.374V97.106H465.271C464.415 97.0961 463.572 97.3244 462.823 97.7687C462.074 98.213 461.446 98.8579 461 99.6405C461.149 98.4362 461.702 97.331 462.554 96.5301C463.407 95.7291 464.501 95.2868 465.635 95.2854Z" fill="#5A5A59"/>
<path d="M465.635 68.5073H466.151V70.3252H465.248C464.392 70.3176 463.55 70.5482 462.802 70.9944C462.055 71.4406 461.429 72.0872 460.984 72.8707C461.132 71.6619 461.686 70.5521 462.542 69.749C463.398 68.9459 464.497 68.5044 465.635 68.5073Z" fill="#5A5A59"/>
<path d="M465.635 95.2854H466.151V97.106H465.248C464.396 97.1004 463.557 97.3308 462.813 97.7749C462.069 98.2189 461.444 98.8616 461 99.6405C461.149 98.4362 461.702 97.331 462.554 96.5301C463.407 95.7291 464.501 95.2868 465.635 95.2854Z" fill="#5A5A59"/>
<path d="M465.635 77.6547H466.151V79.4753H465.248C464.392 79.4671 463.55 79.6972 462.802 80.143C462.055 80.5887 461.429 81.2349 460.984 82.0181C461.132 80.8093 461.686 79.6994 462.542 78.8963C463.398 78.0932 464.497 77.6518 465.635 77.6547Z" fill="#5A5A59"/>
<path d="M465.635 73.0783H466.151V74.8961H465.248C464.392 74.8885 463.55 75.1191 462.802 75.5653C462.055 76.0116 461.429 76.6581 460.984 77.4417C461.132 76.2328 461.686 75.123 462.542 74.3199C463.398 73.5168 464.497 73.0754 465.635 73.0783Z" fill="#5A5A59"/>
<path d="M465.635 90.9331H466.151V92.7537H465.248C464.393 92.746 463.55 92.9763 462.803 93.422C462.056 93.8677 461.429 94.5136 460.984 95.2964C461.133 94.0879 461.686 92.9784 462.542 92.1754C463.398 91.3724 464.497 90.9308 465.635 90.9331Z" fill="#5A5A59"/>
<path d="M465.635 86.5807H466.151V88.4013H465.248C464.392 88.3932 463.55 88.6232 462.802 89.069C462.055 89.5147 461.429 90.1609 460.984 90.9441C461.133 89.7355 461.686 88.626 462.542 87.823C463.398 87.02 464.497 86.5784 465.635 86.5807Z" fill="#5A5A59"/>
<path d="M465.635 82.2284H466.151V84.0462H465.248C464.392 84.0386 463.55 84.2692 462.802 84.7154C462.055 85.1617 461.429 85.8082 460.984 86.5918C461.132 85.383 461.686 84.2731 462.542 83.47C463.398 82.6669 464.497 82.2255 465.635 82.2284Z" fill="#5A5A59"/>
</g>
<path d="M53.1981 41.152C53.1981 35.248 44.6061 37.12 44.6061 33.76C44.6061 32.392 45.5901 31.744 46.9101 31.792C48.3501 31.816 49.2381 32.68 49.3101 33.784H53.0061C52.7901 30.76 50.4381 29.008 47.0061 29.008C43.5501 29.008 41.1021 30.832 41.1021 33.856C41.0781 39.928 49.7181 37.744 49.7181 41.368C49.7181 42.568 48.7821 43.408 47.1981 43.408C45.6381 43.408 44.7501 42.52 44.6541 41.176H41.0541C41.1021 44.344 43.7901 46.168 47.2701 46.168C51.0861 46.168 53.1981 43.792 53.1981 41.152ZM56.1111 46H59.4711V32.704H56.1111V46ZM57.8151 31.12C58.9911 31.12 59.8791 30.256 59.8791 29.152C59.8791 28.048 58.9911 27.184 57.8151 27.184C56.6151 27.184 55.7511 28.048 55.7511 29.152C55.7511 30.256 56.6151 31.12 57.8151 31.12ZM62.7908 46H66.1508V28.24H62.7908V46ZM68.0545 32.704L72.9505 46H77.0305L81.9505 32.704H78.3745L75.0145 42.904L71.6545 32.704H68.0545ZM89.5496 35.248C91.2776 35.248 92.6696 36.352 92.7176 38.104H86.4056C86.6696 36.28 87.9416 35.248 89.5496 35.248ZM95.8616 41.824H92.2376C91.8056 42.712 91.0136 43.432 89.5736 43.432C87.8936 43.432 86.5496 42.328 86.3816 40.36H96.1016C96.1736 39.928 96.1976 39.496 96.1976 39.064C96.1976 35.104 93.4856 32.488 89.6456 32.488C85.7096 32.488 82.9736 35.152 82.9736 39.352C82.9736 43.528 85.7816 46.216 89.6456 46.216C92.9336 46.216 95.1416 44.272 95.8616 41.824ZM102.01 39.376C102.01 36.808 103.21 36.04 105.202 36.04H106.09V32.512C104.242 32.512 102.85 33.4 102.01 34.768V32.704H98.6501V46H102.01V39.376Z" fill="#252424"/>
<path d="M40.716 79V63.49H43.554V79H40.716ZM46.748 79V70.662C46.748 70.2073 46.7333 69.7453 46.704 69.276C46.6746 68.8067 46.6306 68.3447 46.572 67.89H49.234L49.454 70.09H49.19C49.542 69.3127 50.0626 68.7187 50.752 68.308C51.4413 67.8827 52.2406 67.67 53.15 67.67C54.4553 67.67 55.438 68.0367 56.098 68.77C56.758 69.5033 57.088 70.6473 57.088 72.202V79H54.338V72.334C54.338 71.4393 54.162 70.8013 53.81 70.42C53.4726 70.024 52.9593 69.826 52.27 69.826C51.4193 69.826 50.7446 70.09 50.246 70.618C49.7473 71.146 49.498 71.85 49.498 72.73V79H46.748ZM63.1524 79L58.3564 67.89H61.2824L64.7584 76.58H64.0764L67.6404 67.89H70.3904L65.5724 79H63.1524ZM77.0163 79.22C75.1537 79.22 73.6943 78.7067 72.6383 77.68C71.5823 76.6533 71.0543 75.2453 71.0543 73.456C71.0543 72.2973 71.2817 71.2853 71.7363 70.42C72.191 69.5547 72.8217 68.88 73.6283 68.396C74.4497 67.912 75.403 67.67 76.4883 67.67C77.559 67.67 78.4537 67.8973 79.1723 68.352C79.891 68.8067 80.4337 69.4447 80.8003 70.266C81.1817 71.0873 81.3723 72.048 81.3723 73.148V73.874H73.2763V72.422H79.4143L79.0403 72.73C79.0403 71.7033 78.8203 70.9187 78.3803 70.376C77.955 69.8333 77.3317 69.562 76.5103 69.562C75.601 69.562 74.897 69.8847 74.3983 70.53C73.9143 71.1753 73.6723 72.0773 73.6723 73.236V73.522C73.6723 74.7247 73.9657 75.6267 74.5523 76.228C75.1537 76.8147 75.997 77.108 77.0823 77.108C77.713 77.108 78.2997 77.0273 78.8423 76.866C79.3997 76.69 79.9277 76.4113 80.4263 76.03L81.2403 77.878C80.7123 78.3033 80.0817 78.6333 79.3483 78.868C78.615 79.1027 77.8377 79.22 77.0163 79.22ZM87.6611 79.22C86.7077 79.22 85.8277 79.11 85.0211 78.89C84.2291 78.6553 83.5617 78.3327 83.0191 77.922L83.7891 76.074C84.3464 76.4553 84.9624 76.7487 85.6371 76.954C86.3117 77.1593 86.9937 77.262 87.6831 77.262C88.4164 77.262 88.9591 77.1373 89.3111 76.888C89.6777 76.6387 89.8611 76.3013 89.8611 75.876C89.8611 75.5387 89.7437 75.2747 89.5091 75.084C89.2891 74.8787 88.9297 74.7247 88.4311 74.622L86.2311 74.204C85.2924 73.9987 84.5737 73.6467 84.0751 73.148C83.5911 72.6493 83.3491 71.9967 83.3491 71.19C83.3491 70.5007 83.5324 69.892 83.8991 69.364C84.2804 68.836 84.8157 68.4253 85.5051 68.132C86.2091 67.824 87.0304 67.67 87.9691 67.67C88.7904 67.67 89.5604 67.78 90.2791 68C91.0124 68.22 91.6284 68.55 92.1271 68.99L91.3351 70.772C90.8804 70.4053 90.3597 70.1193 89.7731 69.914C89.1864 69.7087 88.6144 69.606 88.0571 69.606C87.2944 69.606 86.7371 69.7453 86.3851 70.024C86.0331 70.288 85.8571 70.6327 85.8571 71.058C85.8571 71.3807 85.9597 71.652 86.1651 71.872C86.3851 72.0773 86.7224 72.2313 87.1771 72.334L89.3771 72.752C90.3597 72.9427 91.1004 73.28 91.5991 73.764C92.1124 74.2333 92.3691 74.8787 92.3691 75.7C92.3691 76.4333 92.1711 77.064 91.7751 77.592C91.3791 78.12 90.8291 78.5233 90.1251 78.802C89.4211 79.0807 88.5997 79.22 87.6611 79.22ZM99.3671 79.22C98.0471 79.22 97.0498 78.8753 96.3751 78.186C95.7005 77.4967 95.3631 76.4627 95.3631 75.084V69.958H93.2291V67.89H95.3631V65.052L98.1131 64.348V67.89H101.083V69.958H98.1131V74.908C98.1131 75.6707 98.2598 76.206 98.5531 76.514C98.8465 76.822 99.2498 76.976 99.7631 76.976C100.042 76.976 100.276 76.954 100.467 76.91C100.672 76.866 100.87 76.8073 101.061 76.734V78.912C100.812 79.0147 100.533 79.088 100.225 79.132C99.9318 79.1907 99.6458 79.22 99.3671 79.22ZM102.951 79V70.662C102.951 70.2073 102.936 69.7453 102.907 69.276C102.878 68.8067 102.834 68.3447 102.775 67.89H105.437L105.657 70.09H105.393C105.701 69.3273 106.17 68.7333 106.801 68.308C107.446 67.8827 108.209 67.67 109.089 67.67C109.969 67.67 110.695 67.8827 111.267 68.308C111.854 68.7187 112.264 69.364 112.499 70.244H112.147C112.455 69.452 112.961 68.8287 113.665 68.374C114.369 67.9047 115.176 67.67 116.085 67.67C117.332 67.67 118.263 68.0367 118.879 68.77C119.495 69.5033 119.803 70.6473 119.803 72.202V79H117.053V72.312C117.053 71.432 116.906 70.8013 116.613 70.42C116.32 70.024 115.85 69.826 115.205 69.826C114.442 69.826 113.841 70.0973 113.401 70.64C112.961 71.168 112.741 71.8867 112.741 72.796V79H109.991V72.312C109.991 71.432 109.844 70.8013 109.551 70.42C109.258 70.024 108.788 69.826 108.143 69.826C107.38 69.826 106.779 70.0973 106.339 70.64C105.914 71.168 105.701 71.8867 105.701 72.796V79H102.951ZM128.106 79.22C126.244 79.22 124.784 78.7067 123.728 77.68C122.672 76.6533 122.144 75.2453 122.144 73.456C122.144 72.2973 122.372 71.2853 122.826 70.42C123.281 69.5547 123.912 68.88 124.718 68.396C125.54 67.912 126.493 67.67 127.578 67.67C128.649 67.67 129.544 67.8973 130.262 68.352C130.981 68.8067 131.524 69.4447 131.89 70.266C132.272 71.0873 132.462 72.048 132.462 73.148V73.874H124.366V72.422H130.504L130.13 72.73C130.13 71.7033 129.91 70.9187 129.47 70.376C129.045 69.8333 128.422 69.562 127.6 69.562C126.691 69.562 125.987 69.8847 125.488 70.53C125.004 71.1753 124.762 72.0773 124.762 73.236V73.522C124.762 74.7247 125.056 75.6267 125.642 76.228C126.244 76.8147 127.087 77.108 128.172 77.108C128.803 77.108 129.39 77.0273 129.932 76.866C130.49 76.69 131.018 76.4113 131.516 76.03L132.33 77.878C131.802 78.3033 131.172 78.6333 130.438 78.868C129.705 79.1027 128.928 79.22 128.106 79.22ZM134.791 79V70.662C134.791 70.2073 134.776 69.7453 134.747 69.276C134.718 68.8067 134.674 68.3447 134.615 67.89H137.277L137.497 70.09H137.233C137.585 69.3127 138.106 68.7187 138.795 68.308C139.484 67.8827 140.284 67.67 141.193 67.67C142.498 67.67 143.481 68.0367 144.141 68.77C144.801 69.5033 145.131 70.6473 145.131 72.202V79H142.381V72.334C142.381 71.4393 142.205 70.8013 141.853 70.42C141.516 70.024 141.002 69.826 140.313 69.826C139.462 69.826 138.788 70.09 138.289 70.618C137.79 71.146 137.541 71.85 137.541 72.73V79H134.791ZM152.799 79.22C151.479 79.22 150.481 78.8753 149.807 78.186C149.132 77.4967 148.795 76.4627 148.795 75.084V69.958H146.661V67.89H148.795V65.052L151.545 64.348V67.89H154.515V69.958H151.545V74.908C151.545 75.6707 151.691 76.206 151.985 76.514C152.278 76.822 152.681 76.976 153.195 76.976C153.473 76.976 153.708 76.954 153.899 76.91C154.104 76.866 154.302 76.8073 154.493 76.734V78.912C154.243 79.0147 153.965 79.088 153.657 79.132C153.363 79.1907 153.077 79.22 152.799 79.22ZM167.436 79.22C166.292 79.22 165.302 78.9853 164.466 78.516C163.63 78.0467 162.977 77.3793 162.508 76.514C162.053 75.6487 161.826 74.622 161.826 73.434C161.826 72.246 162.053 71.2267 162.508 70.376C162.977 69.5107 163.63 68.8433 164.466 68.374C165.302 67.9047 166.292 67.67 167.436 67.67C168.58 67.67 169.57 67.9047 170.406 68.374C171.256 68.8433 171.909 69.5107 172.364 70.376C172.833 71.2267 173.068 72.246 173.068 73.434C173.068 74.622 172.833 75.6487 172.364 76.514C171.909 77.3793 171.256 78.0467 170.406 78.516C169.57 78.9853 168.58 79.22 167.436 79.22ZM167.436 77.108C168.301 77.108 168.99 76.8073 169.504 76.206C170.017 75.59 170.274 74.666 170.274 73.434C170.274 72.202 170.017 71.2853 169.504 70.684C168.99 70.0827 168.301 69.782 167.436 69.782C166.57 69.782 165.881 70.0827 165.368 70.684C164.854 71.2853 164.598 72.202 164.598 73.434C164.598 74.666 164.854 75.59 165.368 76.206C165.881 76.8073 166.57 77.108 167.436 77.108ZM176.08 79V69.958H173.946V67.89H176.85L176.08 68.594V66.9C176.08 65.5213 176.432 64.48 177.136 63.776C177.855 63.072 178.903 62.72 180.282 62.72C180.605 62.72 180.942 62.742 181.294 62.786C181.661 62.83 181.976 62.9107 182.24 63.028V65.184C182.049 65.1107 181.822 65.052 181.558 65.008C181.294 64.964 181.037 64.942 180.788 64.942C180.407 64.942 180.062 65.0153 179.754 65.162C179.461 65.3087 179.226 65.536 179.05 65.844C178.889 66.1373 178.808 66.5333 178.808 67.032V68.374L178.412 67.89H181.734V69.958H178.83V79H176.08ZM197.059 79L193.781 74.072C193.59 73.764 193.385 73.5147 193.165 73.324C192.959 73.1333 192.725 73.0013 192.461 72.928C192.211 72.84 191.911 72.796 191.559 72.796H188.435V70.86H192.747C193.788 70.86 194.573 70.6473 195.101 70.222C195.629 69.782 195.944 69.1587 196.047 68.352L196.421 68.572H188.435V66.944H196.421L196.003 67.23C195.885 66.5407 195.57 66.02 195.057 65.668C194.543 65.3013 193.81 65.118 192.857 65.118H188.435V63.49H200.733V65.118H196.795L197.147 64.81C197.616 65.074 197.983 65.426 198.247 65.866C198.511 66.2913 198.672 66.79 198.731 67.362L198.225 66.944H200.733V68.572H198.291L198.775 68.066C198.789 69.0047 198.584 69.8187 198.159 70.508C197.733 71.1973 197.125 71.7327 196.333 72.114C195.555 72.4807 194.617 72.664 193.517 72.664V72.444H194.133C194.793 72.444 195.357 72.576 195.827 72.84C196.311 73.0893 196.765 73.5367 197.191 74.182L200.447 79H197.059ZM209.643 79V76.646H213.207V65.866H214.571L209.995 68.594V65.91L214.021 63.49H216.045V76.646H219.389V79H209.643ZM235.362 79.22C233.748 79.22 232.362 78.8973 231.204 78.252C230.06 77.592 229.18 76.668 228.564 75.48C227.948 74.2773 227.64 72.862 227.64 71.234C227.64 69.606 227.948 68.198 228.564 67.01C229.18 65.822 230.06 64.9053 231.204 64.26C232.362 63.6 233.748 63.27 235.362 63.27C236.447 63.27 237.422 63.424 238.288 63.732C239.168 64.04 239.923 64.4947 240.554 65.096L239.63 67.34C238.94 66.7827 238.273 66.3867 237.628 66.152C236.997 65.9027 236.271 65.778 235.45 65.778C233.88 65.778 232.678 66.2547 231.842 67.208C231.02 68.1467 230.61 69.4887 230.61 71.234C230.61 72.9793 231.02 74.3287 231.842 75.282C232.678 76.2353 233.88 76.712 235.45 76.712C236.271 76.712 236.997 76.5947 237.628 76.36C238.273 76.1107 238.94 75.7 239.63 75.128L240.554 77.372C239.923 77.9587 239.168 78.4133 238.288 78.736C237.422 79.0587 236.447 79.22 235.362 79.22ZM242.964 79V70.728C242.964 70.2587 242.95 69.782 242.92 69.298C242.906 68.814 242.869 68.3447 242.81 67.89H245.472L245.78 70.926H245.34C245.487 70.1927 245.729 69.584 246.066 69.1C246.418 68.616 246.844 68.2567 247.342 68.022C247.841 67.7873 248.384 67.67 248.97 67.67C249.234 67.67 249.447 67.6847 249.608 67.714C249.77 67.7287 249.931 67.7653 250.092 67.824L250.07 70.244C249.792 70.1267 249.55 70.0533 249.344 70.024C249.154 69.9947 248.912 69.98 248.618 69.98C247.988 69.98 247.452 70.112 247.012 70.376C246.587 70.64 246.264 71.0067 246.044 71.476C245.839 71.9453 245.736 72.4807 245.736 73.082V79H242.964ZM250.821 79V75.942H253.901V79H250.821ZM266.913 79.22C265.945 79.22 265.094 78.9927 264.361 78.538C263.628 78.0687 263.056 77.4013 262.645 76.536C262.234 75.6707 262.029 74.6367 262.029 73.434C262.029 72.2313 262.234 71.2047 262.645 70.354C263.056 69.4887 263.628 68.8287 264.361 68.374C265.094 67.9047 265.945 67.67 266.913 67.67C267.852 67.67 268.673 67.9047 269.377 68.374C270.096 68.8287 270.572 69.4447 270.807 70.222H270.565L270.807 67.89H273.447C273.403 68.3447 273.359 68.8067 273.315 69.276C273.286 69.7453 273.271 70.2073 273.271 70.662V79H270.543L270.521 76.712H270.785C270.55 77.4747 270.074 78.0833 269.355 78.538C268.636 78.9927 267.822 79.22 266.913 79.22ZM267.683 77.108C268.548 77.108 269.245 76.8073 269.773 76.206C270.301 75.59 270.565 74.666 270.565 73.434C270.565 72.202 270.301 71.2853 269.773 70.684C269.245 70.0827 268.548 69.782 267.683 69.782C266.818 69.782 266.121 70.0827 265.593 70.684C265.065 71.2853 264.801 72.202 264.801 73.434C264.801 74.666 265.058 75.59 265.571 76.206C266.099 76.8073 266.803 77.108 267.683 77.108ZM276.266 79V70.662C276.266 70.2073 276.251 69.7453 276.222 69.276C276.192 68.8067 276.148 68.3447 276.09 67.89H278.752L278.972 70.09H278.708C279.06 69.3127 279.58 68.7187 280.27 68.308C280.959 67.8827 281.758 67.67 282.668 67.67C283.973 67.67 284.956 68.0367 285.616 68.77C286.276 69.5033 286.606 70.6473 286.606 72.202V79H283.856V72.334C283.856 71.4393 283.68 70.8013 283.328 70.42C282.99 70.024 282.477 69.826 281.788 69.826C280.937 69.826 280.262 70.09 279.764 70.618C279.265 71.146 279.016 71.85 279.016 72.73V79H276.266ZM293.833 79.22C292.865 79.22 292.007 78.9927 291.259 78.538C290.526 78.0687 289.954 77.4013 289.543 76.536C289.133 75.6707 288.927 74.6367 288.927 73.434C288.927 72.2313 289.133 71.2047 289.543 70.354C289.954 69.4887 290.526 68.8287 291.259 68.374C292.007 67.9047 292.865 67.67 293.833 67.67C294.757 67.67 295.571 67.8973 296.275 68.352C296.994 68.792 297.471 69.3933 297.705 70.156H297.419V62.808H300.169V79H297.463V76.646H297.727C297.493 77.438 297.016 78.0687 296.297 78.538C295.593 78.9927 294.772 79.22 293.833 79.22ZM294.603 77.108C295.469 77.108 296.165 76.8073 296.693 76.206C297.221 75.59 297.485 74.666 297.485 73.434C297.485 72.202 297.221 71.2853 296.693 70.684C296.165 70.0827 295.469 69.782 294.603 69.782C293.738 69.782 293.034 70.0827 292.491 70.684C291.963 71.2853 291.699 72.202 291.699 73.434C291.699 74.666 291.963 75.59 292.491 76.206C293.034 76.8073 293.738 77.108 294.603 77.108ZM313.491 79.22C312.523 79.22 311.672 78.9927 310.939 78.538C310.206 78.0687 309.634 77.4013 309.223 76.536C308.812 75.6707 308.607 74.6367 308.607 73.434C308.607 72.2313 308.812 71.2047 309.223 70.354C309.634 69.4887 310.206 68.8287 310.939 68.374C311.672 67.9047 312.523 67.67 313.491 67.67C314.43 67.67 315.251 67.9047 315.955 68.374C316.674 68.8287 317.15 69.4447 317.385 70.222H317.143L317.385 67.89H320.025C319.981 68.3447 319.937 68.8067 319.893 69.276C319.864 69.7453 319.849 70.2073 319.849 70.662V79H317.121L317.099 76.712H317.363C317.128 77.4747 316.652 78.0833 315.933 78.538C315.214 78.9927 314.4 79.22 313.491 79.22ZM314.261 77.108C315.126 77.108 315.823 76.8073 316.351 76.206C316.879 75.59 317.143 74.666 317.143 73.434C317.143 72.202 316.879 71.2853 316.351 70.684C315.823 70.0827 315.126 69.782 314.261 69.782C313.396 69.782 312.699 70.0827 312.171 70.684C311.643 71.2853 311.379 72.202 311.379 73.434C311.379 74.666 311.636 75.59 312.149 76.206C312.677 76.8073 313.381 77.108 314.261 77.108ZM329.202 79.22C328.263 79.22 327.442 78.9927 326.738 78.538C326.034 78.0687 325.564 77.438 325.33 76.646H325.572V79H322.844V62.808H325.594V70.156H325.33C325.579 69.3933 326.056 68.792 326.76 68.352C327.464 67.8973 328.278 67.67 329.202 67.67C330.184 67.67 331.042 67.9047 331.776 68.374C332.509 68.8433 333.081 69.5107 333.492 70.376C333.902 71.2267 334.108 72.2533 334.108 73.456C334.108 74.6587 333.902 75.6927 333.492 76.558C333.081 77.4087 332.502 78.0687 331.754 78.538C331.02 78.9927 330.17 79.22 329.202 79.22ZM328.432 77.108C329.297 77.108 329.994 76.8073 330.522 76.206C331.064 75.6047 331.336 74.688 331.336 73.456C331.336 72.224 331.064 71.3073 330.522 70.706C329.994 70.09 329.297 69.782 328.432 69.782C327.566 69.782 326.87 70.0827 326.342 70.684C325.814 71.2853 325.55 72.202 325.55 73.434C325.55 74.666 325.814 75.59 326.342 76.206C326.87 76.8073 327.566 77.108 328.432 77.108ZM341.502 79.22C340.358 79.22 339.368 78.9853 338.532 78.516C337.696 78.0467 337.044 77.3793 336.574 76.514C336.12 75.6487 335.892 74.622 335.892 73.434C335.892 72.246 336.12 71.2267 336.574 70.376C337.044 69.5107 337.696 68.8433 338.532 68.374C339.368 67.9047 340.358 67.67 341.502 67.67C342.646 67.67 343.636 67.9047 344.472 68.374C345.323 68.8433 345.976 69.5107 346.43 70.376C346.9 71.2267 347.134 72.246 347.134 73.434C347.134 74.622 346.9 75.6487 346.43 76.514C345.976 77.3793 345.323 78.0467 344.472 78.516C343.636 78.9853 342.646 79.22 341.502 79.22ZM341.502 77.108C342.368 77.108 343.057 76.8073 343.57 76.206C344.084 75.59 344.34 74.666 344.34 73.434C344.34 72.202 344.084 71.2853 343.57 70.684C343.057 70.0827 342.368 69.782 341.502 69.782C340.637 69.782 339.948 70.0827 339.434 70.684C338.921 71.2853 338.664 72.202 338.664 73.434C338.664 74.666 338.921 75.59 339.434 76.206C339.948 76.8073 340.637 77.108 341.502 77.108ZM352.547 79L347.751 67.89H350.677L354.153 76.58H353.471L357.035 67.89H359.785L354.967 79H352.547ZM366.411 79.22C364.548 79.22 363.089 78.7067 362.033 77.68C360.977 76.6533 360.449 75.2453 360.449 73.456C360.449 72.2973 360.676 71.2853 361.131 70.42C361.586 69.5547 362.216 68.88 363.023 68.396C363.844 67.912 364.798 67.67 365.883 67.67C366.954 67.67 367.848 67.8973 368.567 68.352C369.286 68.8067 369.828 69.4447 370.195 70.266C370.576 71.0873 370.767 72.048 370.767 73.148V73.874H362.671V72.422H368.809L368.435 72.73C368.435 71.7033 368.215 70.9187 367.775 70.376C367.35 69.8333 366.726 69.562 365.905 69.562C364.996 69.562 364.292 69.8847 363.793 70.53C363.309 71.1753 363.067 72.0773 363.067 73.236V73.522C363.067 74.7247 363.36 75.6267 363.947 76.228C364.548 76.8147 365.392 77.108 366.477 77.108C367.108 77.108 367.694 77.0273 368.237 76.866C368.794 76.69 369.322 76.4113 369.821 76.03L370.635 77.878C370.107 78.3033 369.476 78.6333 368.743 78.868C368.01 79.1027 367.232 79.22 366.411 79.22Z" fill="#252424"/>
<defs>
<clipPath id="clip0_141_20">
<rect width="71" height="59.6515" fill="white" transform="translate(461 40)"/>
</clipPath>
</defs>
</svg>
